<?xml version="1.0" encoding="UTF-8" standalone="no"?><svg xmlns="http://www.w3.org/2000/svg" xmlns:xlink="http://www.w3.org/1999/xlink" contentStyleType="text/css" height="745px" preserveAspectRatio="none" style="width:926px;height:745px;background:#FFFFFF;" version="1.1" viewBox="0 0 926 745" width="926px" zoomAndPan="magnify"><defs/><g><!--MD5=[6286b41d69ac6bc435671cd9d9f3c2fe]
cluster playground--><g id="cluster_playground"><rect height="590" rx="2.5" ry="2.5" style="stroke:#181818;stroke-width:1.0;fill:none;" width="614" x="7" y="149.5"/><rect height="10" style="stroke:#181818;stroke-width:1.0;fill:none;" width="15" x="601" y="154.5"/><rect height="2" style="stroke:#181818;stroke-width:1.0;fill:none;" width="4" x="599" y="156.5"/><rect height="2" style="stroke:#181818;stroke-width:1.0;fill:none;" width="4" x="599" y="160.5"/><text fill="#000000" font-family="sans-serif" font-size="14" font-weight="bold" lengthAdjust="spacing" textLength="80" x="274" y="177.4659">playground</text></g><!--MD5=[3658bf981de0bf8225e28581e489e587]
cluster vercel.com--><g id="cluster_vercel.com"><path d="M340.4189,205.9234 C344.5162,198.9452 348.4323,198.7212 353.2338,205.2556 C358.0342,197.3082 364.1803,197.8538 368.7379,205.4971 C372.0407,199.3248 377.9429,198.69 382.3478,204.2148 C386.0463,198.9238 391.6781,197.7271 395.4747,204.1044 C399.6858,197.6731 404.1975,197.0795 409.4321,202.9423 C414.661,194.7473 419.624,195.444 425.6499,202.0701 C429.8681,196.5697 435.501,196.4044 438.5554,203.2834 C442.3641,196.958 447.4793,195.9652 452.7069,201.6054 C458.5502,195.6722 464.1552,196.145 467.4673,204.2641 C472.0589,196.7621 476.6812,196.6192 481.504,204.0468 C486.647,197.8085 492.4289,196.2639 496.9788,204.6734 C502.0328,198.6883 506.9396,196.9371 511.836,204.8419 C515.6545,199.172 519.5199,198.6373 523.8196,204.3348 C528.1198,195.6439 536.4634,195.8152 540.5264,204.5621 C552.8408,210.2233 550.7913,217.0432 543.311,225.3553 C552.0794,230.6272 555.5943,236.242 546.4332,244.4461 C553.0655,252.777 550.7186,258.2983 541.7871,262.6586 C550.8271,269.9809 548.1765,275.3452 539.9039,280.8779 C536.4229,288.4521 531.6725,289.5631 525.5278,283.7352 C521.6168,290.1049 516.9358,291.0576 511.5003,285.5331 C507.2058,293.2762 501.1506,294.0435 495.8446,286.5741 C492.9458,294.1034 486.2573,295.8547 481.1447,288.8064 C477.8825,296.0892 471.3633,295.4466 467.4329,289.4989 C464.3899,296.5775 458.4488,297.8528 453.7868,291.0958 C451.2096,297.465 444.6686,299.1717 439.9526,293.5667 C434.5069,299.7678 427.8395,297.2447 425.4946,290.1858 C421.3855,295.8613 415.25,295.6199 411.6884,289.5426 C407.8595,297.2437 400.4278,297.6868 396.6995,289.4479 C390.7461,295.5314 385.5045,295.0557 382.562,286.5335 C378.283,294.3743 371.3703,293.9337 367.7934,285.8811 C362.499,292.1675 356.8637,291.0286 354.2618,283.2844 C348.8873,290.4119 343.4353,290.0141 339.4862,281.9025 C328.9067,276.6081 326.7233,270.0367 336.1951,261.5068 C326.4858,257.2794 328.4053,248.9574 335.3521,243.931 C324.2771,236.6517 326.9965,228.9428 336.5219,222.8042 C328.7235,215.6129 330.1952,208.9543 340.4189,205.9234 " style="stroke:#181818;stroke-width:1.0;fill:none;"/><text fill="#000000" font-family="sans-serif" font-size="14" font-weight="bold" lengthAdjust="spacing" textLength="75" x="400.5" y="223.4659">vercel.com</text></g><!--MD5=[cd6868bbb6d80dbf2b5d991a022be6a4]
cluster playground-alpha--><g id="cluster_playground-alpha"><polygon points="31,349.5,41,339.5,597,339.5,597,705.5,587,715.5,31,715.5,31,349.5" style="stroke:#181818;stroke-width:1.0;fill:none;"/><line style="stroke:#181818;stroke-width:1.0;fill:none;" x1="587" x2="597" y1="349.5" y2="339.5"/><line style="stroke:#181818;stroke-width:1.0;fill:none;" x1="31" x2="587" y1="349.5" y2="349.5"/><line style="stroke:#181818;stroke-width:1.0;fill:none;" x1="587" x2="587" y1="349.5" y2="715.5"/><text fill="#000000" font-family="sans-serif" font-size="14" font-weight="bold" lengthAdjust="spacing" textLength="217" x="201.5" y="367.4659">playground-alpha.hoprtech.net</text></g><!--MD5=[5ec7eedd57310648f8059ffb2621ca4b]
cluster docker--><g id="cluster_docker"><rect height="195" rx="2.5" ry="2.5" style="stroke:#181818;stroke-width:1.0;fill:none;" width="518" x="55" y="496.5"/><rect height="10" style="stroke:#181818;stroke-width:1.0;fill:none;" width="15" x="553" y="501.5"/><rect height="2" style="stroke:#181818;stroke-width:1.0;fill:none;" width="4" x="551" y="503.5"/><rect height="2" style="stroke:#181818;stroke-width:1.0;fill:none;" width="4" x="551" y="507.5"/><text fill="#000000" font-family="sans-serif" font-size="14" font-weight="bold" lengthAdjust="spacing" textLength="100" x="264" y="524.4659">Docker Engine</text></g><!--MD5=[d735e91faf72260a86464e9557e7b94f]
cluster cluster_1--><g id="cluster_cluster_1"><rect height="109" rx="2.5" ry="2.5" style="stroke:#181818;stroke-width:1.0;fill:none;" width="207" x="334" y="550.5"/><path d="M425,550.5 L425,562.5679 L415,572.5679 L334,572.5679 " fill="none" style="stroke:#181818;stroke-width:1.0;"/><text fill="#000000" font-family="sans-serif" font-size="14" font-weight="bold" lengthAdjust="spacing" textLength="81" x="337" y="566.4659">Cluster One</text></g><!--MD5=[e4cb63848a67456201ffdc27d9c4a8ab]
cluster cluster_2--><g id="cluster_cluster_2"><rect height="109" rx="2.5" ry="2.5" style="stroke:#181818;stroke-width:1.0;fill:none;" width="207" x="87" y="550.5"/><path d="M179,550.5 L179,562.5679 L169,572.5679 L87,572.5679 " fill="none" style="stroke:#181818;stroke-width:1.0;"/><text fill="#000000" font-family="sans-serif" font-size="14" font-weight="bold" lengthAdjust="spacing" textLength="82" x="90" y="566.4659">Cluster Two</text></g><g id="cluster_##16"><path d="M654.7193,227.2281 C661.1304,217.4454 667.3034,219.3471 673.7553,227.184 C677.2893,218.3285 684.1246,217.9083 689.1859,225.7746 C693.8353,217.7225 702.8328,216.3723 707.5688,225.6828 C713.713,218.4013 719.8894,217.8819 725.2833,226.5179 C730.358,216.1122 736.6513,215.1101 744.2263,224.0725 C749.9203,216.0108 758.6541,217.4495 762.4072,226.1746 C766.7035,217.3331 774.2829,214.9979 780.6765,224.031 C785.7021,216.8005 792.1479,217.8324 795.8418,225.3961 C801.9208,215.9361 807.8157,217.8434 813.5906,225.7077 C819.8391,217.4262 827.2588,217.4156 833.554,225.6514 C838.2196,217.2797 846.2158,215.7996 851.4106,225.1171 C856.8249,218.6437 865.0385,217.3634 868.6044,227.08 C873.6572,218.0617 882.8375,219.1148 887.0328,227.9643 C890.9568,220.1168 898.2432,217.9473 904.0771,225.9045 C918.3004,231.9409 918.264,244.3516 906.9225,253.0661 C919.4062,263.3895 917.4244,272.4971 904.7944,280.9004 C900.522,291.6351 892.4225,292.216 884.6666,284.7536 C879.5595,291.8901 875.0062,292.7524 869.5574,285.1028 C864.3186,292.7809 857.2982,294.0089 851.6934,285.507 C847.1735,294.1396 839.3347,295.7215 833.241,287.1999 C827.8596,296.4251 820.8811,298.5651 813.6958,289.0848 C808.5109,297.0394 800.702,296.6753 796.8027,287.7947 C792.569,295.7988 787.4157,298.6165 780.1645,291.0111 C773.3077,299.3357 767.2869,298.1797 761.6611,289.6589 C756.117,296.9299 749.8795,298.087 744.6764,289.2982 C738.776,298.4416 729.5489,296.9446 725.213,287.647 C718.1446,295.6932 711.5365,296.3203 706.5016,285.6176 C700.4819,293.2529 694.431,295.1521 688.7394,285.2847 C682.6497,290.4644 676.77,288.9921 673.4793,281.8253 C667.8775,290.3278 660.439,291.1395 654.3268,282.392 C639.6974,276.6774 633.8835,267.8506 645.9466,254.2012 C635.4988,241.9097 638.3053,230.7832 654.7193,227.2281 " style="stroke:#181818;stroke-width:1.0;fill:none;"/></g><!--MD5=[e9053c6dbb891ad4199c45de881c9d13]
entity website--><g id="elem_website"><rect fill="#F1F1F1" height="39.0679" rx="2.5" ry="2.5" style="stroke:#181818;stroke-width:0.5;" width="183" x="346.5" y="233.5"/><text fill="#000000" font-family="sans-serif" font-size="14" lengthAdjust="spacing" textLength="163" x="356.5" y="258.4659">playground.hoprnet.org</text></g><!--MD5=[ae26ca3faef22e578d08b069b573c85d]
entity satellite--><g id="elem_satellite"><polygon fill="#F1F1F1" points="295,392.5,305,382.5,389,382.5,389,421.5679,379,431.5679,295,431.5679,295,392.5" style="stroke:#181818;stroke-width:0.5;"/><line style="stroke:#181818;stroke-width:0.5;" x1="379" x2="389" y1="392.5" y2="382.5"/><line style="stroke:#181818;stroke-width:0.5;" x1="295" x2="379" y1="392.5" y2="392.5"/><line style="stroke:#181818;stroke-width:0.5;" x1="379" x2="379" y1="392.5" y2="431.5679"/><text fill="#000000" font-family="sans-serif" font-size="14" lengthAdjust="spacing" textLength="54" x="310" y="417.4659">Satellite</text></g><!--MD5=[2b10d5ae04d26d113438a6166b31ca22]
entity hoprd_nodes_1--><g id="elem_hoprd_nodes_1"><rect fill="#F1F1F1" height="35.0679" rx="2.5" ry="2.5" style="stroke:#181818;stroke-width:0.5;" width="136" x="381" y="600.5"/><rect fill="#F1F1F1" height="35.0679" rx="2.5" ry="2.5" style="stroke:#181818;stroke-width:0.5;" width="136" x="377" y="596.5"/><text fill="#000000" font-family="sans-serif" font-size="14" lengthAdjust="spacing" textLength="120" x="385" y="619.4659">HOPRd nodes 1..5</text></g><!--MD5=[9651656438a33d1be1597e2509f33517]
entity hoprd_nodes_2--><g id="elem_hoprd_nodes_2"><rect fill="#F1F1F1" height="35.0679" rx="2.5" ry="2.5" style="stroke:#181818;stroke-width:0.5;" width="136" x="134" y="600.5"/><rect fill="#F1F1F1" height="35.0679" rx="2.5" ry="2.5" style="stroke:#181818;stroke-width:0.5;" width="136" x="130" y="596.5"/><text fill="#000000" font-family="sans-serif" font-size="14" lengthAdjust="spacing" textLength="120" x="138" y="619.4659">HOPRd nodes 1..5</text></g><!--MD5=[db15dfe70451766f02f82fe2d9128520]
entity dapp_1--><g id="elem_dapp_1"><rect fill="#F1F1F1" height="39.0679" rx="2.5" ry="2.5" style="stroke:#181818;stroke-width:0.5;" width="92" x="802" y="233.5"/><text fill="#000000" font-family="sans-serif" font-size="14" lengthAdjust="spacing" textLength="72" x="812" y="258.4659">Myne Chat</text></g><!--MD5=[207972477bcd0b8b1ef559f5d967001a]
entity dapp_2--><g id="elem_dapp_2"><rect fill="#F1F1F1" height="39.0679" rx="2.5" ry="2.5" style="stroke:#181818;stroke-width:0.5;" width="106" x="661" y="233.5"/><text fill="#000000" font-family="sans-serif" font-size="14" lengthAdjust="spacing" textLength="86" x="671" y="258.4659">Status Board</text></g><!--MD5=[958122c9ce172187f81310d5f73b8fea]
entity user_1--><g id="elem_user_1"><ellipse cx="695" cy="14" fill="#F1F1F1" rx="8" ry="8" style="stroke:#181818;stroke-width:0.5;"/><path d="M695,22 L695,49 M682,30 L708,30 M695,49 L682,64 M695,49 L708,64 " fill="none" style="stroke:#181818;stroke-width:0.5;"/><text fill="#000000" font-family="sans-serif" font-size="14" lengthAdjust="spacing" textLength="44" x="673" y="80.4659">User A</text></g><!--MD5=[b58bf2a2e7c01619e880259985df32e9]
entity user_2--><g id="elem_user_2"><ellipse cx="587" cy="14" fill="#F1F1F1" rx="8" ry="8" style="stroke:#181818;stroke-width:0.5;"/><path d="M587,22 L587,49 M574,30 L600,30 M587,49 L574,64 M587,49 L600,64 " fill="none" style="stroke:#181818;stroke-width:0.5;"/><text fill="#000000" font-family="sans-serif" font-size="14" lengthAdjust="spacing" textLength="44" x="565" y="80.4659">User B</text></g><!--MD5=[0006ff1d48595d1660c43847b4308af2]
link website to satellite--><g id="link_website_satellite"><path d="M426.23,272.64 C409.57,299.01 379.01,347.4 359.64,378.08 " fill="none" id="website-to-satellite" style="stroke:#181818;stroke-width:1.0;stroke-dasharray:7.0,7.0;"/><polygon fill="#181818" points="356.86,382.47,365.0486,376.9976,359.5305,378.2429,358.2852,372.7248,356.86,382.47" style="stroke:#181818;stroke-width:1.0;"/><text fill="#000000" font-family="sans-serif" font-size="13" lengthAdjust="spacing" textLength="50" x="405" y="319.397">uses API</text></g><!--MD5=[642660dffcfd5afbaceac5b61ba8d14f]
link satellite to cluster_1--><g id="link_satellite_cluster_1"><path d="M342,431.75 C342,458.51 342,503.32 342,541.93 C342,544.3431 342,546.732 342,549.0908 C342,549.3856 342,549.68 342,549.9739 " fill="none" id="satellite-to-cluster_1" style="stroke:#181818;stroke-width:2.0;"/><polygon fill="#181818" points="342,549.9739,346,540.9739,342,544.9739,338,540.9739,342,549.9739" style="stroke:#181818;stroke-width:2.0;"/><text fill="#000000" font-family="sans-serif" font-size="13" lengthAdjust="spacing" textLength="55" x="343" y="476.397">manages</text></g><!--MD5=[d9bb9218993e33eda71c90af3c098fc4]
link satellite to cluster_2--><g id="link_satellite_cluster_2"><path d="M294.67,410.82 C242.06,416.66 158.64,434.44 114,488.5 C105.0925,499.2875 99.4188,512.4269 95.9266,526.1072 C94.1805,532.9473 92.9798,539.9227 92.1929,546.807 C92.0946,547.6675 92.0027,548.5266 91.917,549.3839 C91.8956,549.5982 91.8746,549.8124 91.8539,550.0264 " fill="none" id="satellite-to-cluster_2" style="stroke:#181818;stroke-width:2.0;"/><polygon fill="#181818" points="91.8539,550.0264,96.6995,541.452,92.3339,545.0495,88.7364,540.684,91.8539,550.0264" style="stroke:#181818;stroke-width:2.0;"/><text fill="#000000" font-family="sans-serif" font-size="13" lengthAdjust="spacing" textLength="55" x="143" y="476.397">manages</text></g><!--MD5=[d3cca49c071f2850e7bba400d4318a33]
link dapp_1 to cluster_1--><g id="link_dapp_1_cluster_1"><path d="M835.99,272.76 C803.74,320.93 709.69,447.45 592,480.5 C579.64,483.97 370.58,479.95 361,488.5 C350.5575,497.81 344.1038,510.1988 340.308,523.5872 C338.4101,530.2814 337.1767,537.2255 336.4414,544.1597 C336.2576,545.8933 336.1049,547.6262 335.9808,549.3544 C335.9653,549.5705 335.9502,549.7864 335.9356,550.0023 " fill="none" id="dapp_1-to-cluster_1" style="stroke:#181818;stroke-width:1.0;stroke-dasharray:7.0,7.0;"/><polygon fill="#181818" points="335.9356,550.0023,340.535,541.2934,336.2737,545.0137,332.5533,540.7524,335.9356,550.0023" style="stroke:#181818;stroke-width:1.0;"/><text fill="#000000" font-family="sans-serif" font-size="13" lengthAdjust="spacing" textLength="103" x="793" y="412.397">uses HOPRd APIs</text></g><!--MD5=[dfb7a3c985b7324093503b588b789545]
link dapp_2 to cluster_2--><g id="link_dapp_2_cluster_2"><path d="M660.87,272.09 C632.2,284.5 598.57,303.79 578,331.5 C537.51,386.04 596.71,437.66 544,480.5 C525.46,495.57 131.96,472.74 114,488.5 C103.4825,497.7275 96.9906,510.0744 93.18,523.4466 C91.2747,530.1327 90.0397,537.0751 89.307,544.0121 C89.1238,545.7463 88.972,547.4802 88.849,549.2097 C88.8336,549.4259 88.8186,549.642 88.8042,549.858 " fill="none" id="dapp_2-to-cluster_2" style="stroke:#181818;stroke-width:1.0;stroke-dasharray:7.0,7.0;"/><polygon fill="#181818" points="88.8042,549.858,93.3973,541.1458,89.1386,544.8692,85.4152,540.6106,88.8042,549.858" style="stroke:#181818;stroke-width:1.0;"/><text fill="#000000" font-family="sans-serif" font-size="13" lengthAdjust="spacing" textLength="103" x="579" y="412.397">uses HOPRd APIs</text></g><!--MD5=[3bc948ea47982ab28386f7047e77f417]
link user_1 to dapp_1--><g id="link_user_1_dapp_1"><path d="M717.29,66.69 C736.54,85.21 764.4,113.66 785,141.5 C805.85,169.68 825.06,205.39 836.65,228.46 " fill="none" id="user_1-to-dapp_1" style="stroke:#181818;stroke-width:1.0;"/><polygon fill="#181818" points="839.01,233.19,838.5754,223.3507,836.7797,228.715,831.4154,226.9193,839.01,233.19" style="stroke:#181818;stroke-width:1.0;"/><text fill="#000000" font-family="sans-serif" font-size="13" lengthAdjust="spacing" textLength="27" x="779" y="129.397">uses</text></g><!--MD5=[6736937d0f9233bacfad17ca1bb99eb6]
link user_2 to dapp_2--><g id="link_user_2_dapp_2"><path d="M609.07,57.72 C629.14,69.49 658.12,89.45 675,114.5 C698.62,149.56 708.08,198.87 711.76,227.92 " fill="none" id="user_2-to-dapp_2" style="stroke:#181818;stroke-width:1.0;"/><polygon fill="#181818" points="712.38,233.1,715.2696,223.6846,711.7792,228.1362,707.3275,224.6459,712.38,233.1" style="stroke:#181818;stroke-width:1.0;"/><text fill="#000000" font-family="sans-serif" font-size="13" lengthAdjust="spacing" textLength="27" x="685" y="129.397">uses</text></g><!--MD5=[7acd00be53a88bc9ff155a2c55382bb6]
link user_1 to website--><g id="link_user_1_website"><path d="M672.76,58.87 C659.54,66.46 642.39,76.17 627,84.5 C601.48,98.32 592.22,97.09 569,114.5 C523.24,148.82 479.35,199.76 455.8,229.04 " fill="none" id="user_1-to-website" style="stroke:#181818;stroke-width:1.0;"/><polygon fill="#181818" points="452.48,233.2,461.2318,228.6827,455.6087,229.2998,454.9915,223.6768,452.48,233.2" style="stroke:#181818;stroke-width:1.0;"/><text fill="#000000" font-family="sans-serif" font-size="13" lengthAdjust="spacing" textLength="96" x="570" y="129.397">activates cluster</text></g><!--MD5=[8f3a1150c6d7f3f133663eb258042bf9]
link user_2 to website--><g id="link_user_2_website"><path d="M564.84,48.55 C530.14,53.87 463.98,69.65 435,114.5 C412.7,149 421.73,199.23 430.05,228.47 " fill="none" id="user_2-to-website" style="stroke:#181818;stroke-width:1.0;"/><polygon fill="#181818" points="431.48,233.32,432.7732,223.5564,430.0669,228.5239,425.0994,225.8175,431.48,233.32" style="stroke:#181818;stroke-width:1.0;"/><text fill="#000000" font-family="sans-serif" font-size="13" lengthAdjust="spacing" textLength="96" x="436" y="129.397">activates cluster</text></g><!--MD5=[d8700c85889d2def8df008612b0d1aa3]
@startuml

component playground {
  cloud vercel.com {
		agent website as "playground.hoprnet.org"
	}
	node playground-alpha as "playground-alpha.hoprtech.net" {
		node satellite as "Satellite"
		component docker as "Docker Engine" {
			frame cluster_1 as "Cluster One" {
				collections hoprd_nodes_1 as "HOPRd nodes 1..5"
			}
			frame cluster_2 as "Cluster Two" {
				collections hoprd_nodes_2 as "HOPRd nodes 1..5"
			}
		}
	}
}

actor user_1 as "User A"
actor user_2 as "User B"

cloud {
	agent dapp_1 as "Myne Chat"
	agent dapp_2 as "Status Board"
}

website ..> satellite : uses API

satellite ==> cluster_1 : manages
satellite ==> cluster_2 : manages

dapp_1 ..> cluster_1 : uses HOPRd APIs
dapp_2 ..> cluster_2 : uses HOPRd APIs

user_1 - -> dapp_1 : uses
user_2 - -> dapp_2 : uses

user_1 - -> website : activates cluster
user_2 - -> website : activates cluster


@enduml

PlantUML version 1.2022.5(Sat Apr 30 12:55:52 CEST 2022)
(GPL source distribution)
Java Runtime: OpenJDK Runtime Environment
JVM: OpenJDK 64-Bit Server VM
Default Encoding: UTF-8
Language: en
Country: US
--></g></svg>