<?xml version="1.0" encoding="UTF-8"?><svg id="Layer_1" xmlns="http://www.w3.org/2000/svg" xmlns:xlink="http://www.w3.org/1999/xlink" viewBox="0 0 256 256"><defs><style>.cls-1{fill:#f40d00;}.cls-2{stroke:#f40d00;}.cls-2,.cls-3{fill:none;stroke-miterlimit:10;stroke-width:5.34px;}.cls-3{stroke:#0000b4;}.cls-4{fill:url(#radial-gradient);}</style><radialGradient id="radial-gradient" cx="128" cy="130" fx="128" fy="130" r="128" gradientTransform="translate(0 258) scale(1 -1)" gradientUnits="userSpaceOnUse"><stop offset="0" stop-color="#fff"/><stop offset="1" stop-color="#00e9e6"/></radialGradient></defs><rect class="cls-4" width="256" height="256"/><line class="cls-3" x1="203.75" y1="201.75" x2="50.35" y2="201.75"/><g><g><circle class="cls-1" cx="203.75" cy="54.25" r="12.55"/><circle class="cls-1" cx="153.25" cy="54.25" r="12.55"/><circle class="cls-1" cx="102.75" cy="54.25" r="12.55"/><circle class="cls-1" cx="52.25" cy="54.25" r="12.55"/></g><g><circle class="cls-1" cx="203.75" cy="103.42" r="12.55"/><circle class="cls-1" cx="153.25" cy="103.42" r="12.55"/><circle class="cls-1" cx="102.75" cy="103.42" r="12.55"/><circle class="cls-1" cx="52.25" cy="103.42" r="12.55"/></g><g><circle class="cls-1" cx="203.75" cy="152.58" r="12.55"/><circle class="cls-1" cx="153.25" cy="152.58" r="12.55"/><circle class="cls-1" cx="102.75" cy="152.58" r="12.55"/><circle class="cls-1" cx="52.25" cy="152.58" r="12.55"/></g><g><circle class="cls-1" cx="203.75" cy="201.75" r="12.55"/><circle class="cls-1" cx="153.25" cy="201.75" r="12.55"/><circle class="cls-1" cx="102.75" cy="201.75" r="12.55"/><circle class="cls-1" cx="52.25" cy="201.75" r="12.55"/></g></g><line class="cls-2" x1="52.25" y1="52.84" x2="52.25" y2="212.89"/></svg>