<?xml version="1.0" encoding="UTF-8"?><svg id="Layer_1" xmlns="http://www.w3.org/2000/svg" xmlns:xlink="http://www.w3.org/1999/xlink" viewBox="0 0 256 256"><defs><style>.cls-1{fill:#13006a;}.cls-2{fill:url(#radial-gradient);}</style><radialGradient id="radial-gradient" cx="128" cy="128" fx="128" fy="128" r="128" gradientUnits="userSpaceOnUse"><stop offset="0" stop-color="#fff"/><stop offset="1" stop-color="#ff2a89"/></radialGradient></defs><rect class="cls-2" width="256" height="256"/><g><g><path class="cls-1" d="M131.81,128.53l-17.17,5.89c-2.32,.79-3.56,3.32-2.76,5.64,.63,1.84,2.35,3,4.2,3,.48,0,.96-.08,1.44-.24l17.17-5.89c2.32-.79,3.55-3.32,2.76-5.64-.79-2.32-3.31-3.56-5.64-2.76h0Z"/><path class="cls-1" d="M131.81,114.86l-17.17,5.89c-2.32,.79-3.56,3.32-2.76,5.64,.63,1.84,2.35,3,4.2,3,.48,0,.96-.08,1.44-.24l17.17-5.89c2.32-.79,3.55-3.32,2.76-5.64-.79-2.32-3.32-3.56-5.64-2.76h0Z"/><path class="cls-1" d="M127.15,226.01c-13.2,0-31.78-10.37-31.78-33.43,0-12.42,5.49-21.16,10.34-28.87,2.49-3.96,4.85-7.71,6.18-11.54,.8-2.31,3.33-3.54,5.65-2.74,2.32,.8,3.54,3.33,2.74,5.65-1.66,4.79-4.4,9.14-7.05,13.35-4.62,7.35-8.98,14.29-8.98,24.14,0,20.04,16.96,24.55,22.9,24.55,8.03,0,24.61-6,24.61-24.55,0-11.56-5.69-19.99-11.71-28.91-3-4.43-6.09-9.02-8.63-14.16-1.09-2.2-.19-4.86,2.01-5.95,2.2-1.09,4.86-.19,5.95,2.02,2.28,4.6,5.2,8.93,8.03,13.12,6.51,9.64,13.24,19.6,13.24,33.88,0,25.27-22.56,33.43-33.49,33.43h0Z"/><path class="cls-1" d="M123.47,97.35c-2.45,0-4.44-1.99-4.44-4.44V34.42c0-2.45,1.99-4.44,4.44-4.44s4.44,1.99,4.44,4.44v58.49c0,2.45-1.98,4.44-4.44,4.44h0Z"/></g><path class="cls-1" d="M137.45,104.25c-.79-2.32-3.32-3.56-5.64-2.76l-13.98,4.79s0-.01-.01-.02l-4.53,1.68c-.18,.07-.36,.1-.54,.1-.64,0-1.23-.39-1.46-1.02-.3-.81,.11-1.71,.92-2.01l4.03-1.5c-6.9-10.76-15.87-11.16-16.31-11.17-2.48,0-4.5,2-4.5,4.46s1.99,4.42,4.45,4.45c1.38,.23,7.25,1.79,11.37,11.88,.66,1.61,2.16,2.62,3.78,2.74,.35,.09,.69,.14,1.05,.14,.48,0,.96-.08,1.44-.24l17.17-5.89c2.32-.79,3.56-3.32,2.76-5.64h0Z"/></g></svg>