<?xml version="1.0" encoding="UTF-8"?><svg id="Layer_1" xmlns="http://www.w3.org/2000/svg" xmlns:xlink="http://www.w3.org/1999/xlink" viewBox="0 0 256 256"><defs><style>.cls-1{fill:#282828;}.cls-2{fill:url(#radial-gradient);}</style><radialGradient id="radial-gradient" cx="128" cy="128" fx="128" fy="128" r="128" gradientUnits="userSpaceOnUse"><stop offset="0" stop-color="#fff"/><stop offset="1" stop-color="#f7ff0a"/></radialGradient></defs><rect class="cls-2" width="256" height="256"/><g><path class="cls-1" d="M221.2,100.04v-6.21h-59.03V34.8h-6.21v59.03h-55.92V34.8h-6.21v59.03H34.8v6.21h59.03v55.92H34.8v6.21h59.03v59.03h6.21v-59.03h55.92v59.03h6.21v-59.03h59.03v-6.21h-59.03v-55.92h59.03Zm-65.24,55.92h-55.92v-55.92h55.92v55.92Z"/><path class="cls-1" d="M128,152.85c13.7,0,24.85-11.15,24.85-24.85s-11.15-24.85-24.85-24.85-24.85,11.15-24.85,24.85,11.15,24.85,24.85,24.85Zm0-43.49c10.28,0,18.64,8.36,18.64,18.64s-8.36,18.64-18.64,18.64-18.64-8.36-18.64-18.64,8.36-18.64,18.64-18.64Z"/><path class="cls-1" d="M65.87,165.28c-13.7,0-24.85,11.15-24.85,24.85s11.15,24.85,24.85,24.85,24.85-11.15,24.85-24.85-11.15-24.85-24.85-24.85Zm0,43.49c-10.28,0-18.64-8.36-18.64-18.64s8.36-18.64,18.64-18.64,18.64,8.36,18.64,18.64-8.36,18.64-18.64,18.64Z"/><path class="cls-1" d="M190.13,90.72c13.7,0,24.85-11.15,24.85-24.85s-11.15-24.85-24.85-24.85-24.85,11.15-24.85,24.85,11.15,24.85,24.85,24.85Zm0-43.49c10.28,0,18.64,8.36,18.64,18.64s-8.36,18.64-18.64,18.64-18.64-8.36-18.64-18.64,8.36-18.64,18.64-18.64Z"/><path class="cls-1" d="M209.68,166.19l-19.55,19.55-19.55-19.55-4.39,4.39,19.55,19.55-19.55,19.55,4.39,4.39,19.55-19.55,19.55,19.55,4.39-4.39-19.55-19.55,19.55-19.55-4.39-4.39Z"/><path class="cls-1" d="M46.32,151.94l19.55-19.55,19.55,19.55,4.39-4.39-19.55-19.55,19.55-19.55-4.39-4.39-19.55,19.55-19.55-19.55-4.39,4.39,19.55,19.55-19.55,19.55,4.39,4.39Z"/></g></svg>