<?xml version="1.0" encoding="UTF-8"?><svg id="Layer_1" xmlns="http://www.w3.org/2000/svg" xmlns:xlink="http://www.w3.org/1999/xlink" viewBox="0 0 256 256"><defs><style>.cls-1{fill:#ffffa0;}.cls-2{fill:url(#radial-gradient-20);}.cls-3{fill:url(#radial-gradient-21);}.cls-4{fill:url(#radial-gradient-10);}.cls-5{fill:url(#radial-gradient-19);}.cls-6{fill:url(#radial-gradient-18);}.cls-7{fill:url(#radial-gradient-17);}.cls-8{fill:url(#radial-gradient-11);}.cls-9{fill:url(#radial-gradient-16);}.cls-10{fill:url(#radial-gradient-15);}.cls-11{fill:url(#radial-gradient-12);}.cls-12{fill:url(#radial-gradient-14);}.cls-13{fill:url(#radial-gradient-13);}.cls-14{fill:url(#radial-gradient-6);}.cls-15{fill:url(#radial-gradient-5);}.cls-16{fill:url(#radial-gradient-3);}.cls-17{fill:url(#radial-gradient-4);}.cls-18{fill:url(#radial-gradient-9);}.cls-19{fill:url(#radial-gradient-8);}.cls-20{fill:url(#radial-gradient-7);}.cls-21{fill:url(#radial-gradient-2);}.cls-22{fill:url(#radial-gradient);}</style><radialGradient id="radial-gradient" cx="127.76" cy="128" fx="127.76" fy="128" r="128" gradientTransform="matrix(1, 0, 0, 1, 0, 0)" gradientUnits="userSpaceOnUse"><stop offset="0" stop-color="#0000b4"/><stop offset=".86" stop-color="#f7f7a1"/><stop offset="1" stop-color="#ffffa0"/></radialGradient><radialGradient id="radial-gradient-2" cx="132.28" cy="128.5" fx="132.28" fy="128.5" r="107.7" gradientTransform="matrix(1, 0, 0, 1, 0, 0)" gradientUnits="userSpaceOnUse"><stop offset="0" stop-color="#b4f0ff"/><stop offset="1" stop-color="#ffffa0"/></radialGradient><radialGradient id="radial-gradient-3" cx="132.28" cy="128.5" fx="132.28" fy="128.5" r="109.06" xlink:href="#radial-gradient-2"/><radialGradient id="radial-gradient-4" cx="132.28" cy="128.5" fx="132.28" fy="128.5" r="110.13" xlink:href="#radial-gradient-2"/><radialGradient id="radial-gradient-5" cx="132.28" cy="128.5" fx="132.28" fy="128.5" r="110.89" xlink:href="#radial-gradient-2"/><radialGradient id="radial-gradient-6" cx="132.28" fx="132.28" r="111.35" xlink:href="#radial-gradient-2"/><radialGradient id="radial-gradient-7" cx="132.28" cy="128.5" fx="132.28" fy="128.5" r="111.5" xlink:href="#radial-gradient-2"/><radialGradient id="radial-gradient-8" cx="132.28" fx="132.28" r="111.35" xlink:href="#radial-gradient-2"/><radialGradient id="radial-gradient-9" cx="132.28" cy="128.5" fx="132.28" fy="128.5" r="110.89" xlink:href="#radial-gradient-2"/><radialGradient id="radial-gradient-10" cx="132.28" cy="128.5" fx="132.28" fy="128.5" r="110.13" xlink:href="#radial-gradient-2"/><radialGradient id="radial-gradient-11" cx="132.28" cy="128.5" fx="132.28" fy="128.5" r="109.06" xlink:href="#radial-gradient-2"/><radialGradient id="radial-gradient-12" cx="132.28" cy="128.5" fx="132.28" fy="128.5" r="106.04" xlink:href="#radial-gradient-2"/><radialGradient id="radial-gradient-13" cx="132.28" cy="128.5" fx="132.28" fy="128.5" r="104.09" xlink:href="#radial-gradient-2"/><radialGradient id="radial-gradient-14" cx="132.28" cy="128.5" fx="132.28" fy="128.5" r="101.86" xlink:href="#radial-gradient-2"/><radialGradient id="radial-gradient-15" cx="132.28" cy="128.5" fx="132.28" fy="128.5" r="99.35" xlink:href="#radial-gradient-2"/><radialGradient id="radial-gradient-16" cx="132.28" cy="128.5" fx="132.28" fy="128.5" r="96.56" xlink:href="#radial-gradient-2"/><radialGradient id="radial-gradient-17" cx="132.28" cy="128.5" fx="132.28" fy="128.5" r="93.51" xlink:href="#radial-gradient-2"/><radialGradient id="radial-gradient-18" cx="132.28" cy="128.5" fx="132.28" fy="128.5" r="90.21" xlink:href="#radial-gradient-2"/><radialGradient id="radial-gradient-19" cx="132.28" fx="132.28" r="86.65" xlink:href="#radial-gradient-2"/><radialGradient id="radial-gradient-20" cx="132.28" cy="128.5" fx="132.28" fy="128.5" r="82.86" xlink:href="#radial-gradient-2"/><radialGradient id="radial-gradient-21" cx="132.28" cy="128.5" fx="132.28" fy="128.5" r="78.84" xlink:href="#radial-gradient-2"/></defs><rect class="cls-22" x="-.24" width="256" height="256" rx="25" ry="25"/><g><path class="cls-21" d="M161.13,236.2L24.58,157.36,103.42,20.8,239.98,99.64l-78.84,136.56ZM25.38,157.14l135.54,78.25L239.17,99.86,103.63,21.61,25.38,157.14Z"/><path class="cls-16" d="M155.46,237.56l-.25-.16L23.21,151.68l.16-.25L109.09,19.44l.25,.16L241.34,105.32l-.16,.25-85.72,132ZM24.03,151.51l131.25,85.24L240.52,105.49,109.27,20.25,24.03,151.51Z"/><path class="cls-17" d="M149.72,238.63l-.24-.17L22.15,145.94,114.83,18.37l.24,.17,127.33,92.51-92.68,127.57ZM22.97,145.81l126.61,91.99,91.99-126.61L114.96,19.2,22.97,145.81Z"/><path class="cls-15" d="M143.93,239.39L21.39,140.15l.19-.23L120.62,17.61l122.54,99.23-.19,.23-99.05,122.31ZM22.22,140.07l121.63,98.49,98.49-121.63L120.71,18.44,22.22,140.07Z"/><path class="cls-14" d="M138.11,239.85L20.93,134.34,126.44,17.15l117.18,105.51-105.51,117.18ZM21.76,134.29l116.3,104.72,104.72-116.3L126.48,17.99,21.76,134.29Z"/><path class="cls-20" d="M132.28,240L20.78,128.5,132.28,17l111.5,111.5-111.5,111.5ZM21.61,128.5l110.66,110.66,110.66-110.66L132.28,17.84,21.61,128.5Z"/><path class="cls-19" d="M126.44,239.85L20.93,122.66,138.11,17.15l105.51,117.18-117.18,105.51ZM21.76,122.71l104.72,116.3,116.3-104.72L138.07,17.99,21.76,122.71Z"/><path class="cls-18" d="M120.62,239.39l-.19-.23L21.39,116.85,143.93,17.61l.19,.23,99.05,122.31-122.54,99.23ZM22.22,116.93l98.49,121.63,121.63-98.49L143.84,18.44,22.22,116.93Z"/><path class="cls-4" d="M114.83,238.63l-.17-.24L22.15,111.06l.24-.17L149.72,18.37l.17,.24,92.51,127.33-.24,.17-127.33,92.51ZM22.97,111.19l91.99,126.61,126.61-91.99L149.59,19.2,22.97,111.19Z"/><path class="cls-8" d="M109.09,237.56L23.21,105.32,155.46,19.44l85.88,132.25L109.09,237.56ZM24.03,105.49L109.27,236.75l131.26-85.24L155.28,20.25,24.03,105.49Z"/><path class="cls-21" d="M103.42,236.2L24.58,99.64,161.13,20.8l78.84,136.56L103.42,236.2ZM25.38,99.86L103.63,235.39l135.54-78.25L160.92,21.61,25.38,99.86Z"/><path class="cls-11" d="M97.82,234.54l-.13-.26L26.23,94.04l.26-.13L166.73,22.46l.13,.26,71.45,140.24-.26,.13L97.82,234.54ZM27.03,94.3L98.08,233.75l139.45-71.05L166.47,23.25,27.03,94.3Z"/><path class="cls-13" d="M92.32,232.59l-.12-.27L28.18,88.54,172.23,24.41l.12,.27,64.02,143.78L92.32,232.59ZM28.96,88.84l63.66,142.97,142.97-63.66L171.93,25.19,28.96,88.84Z"/><path class="cls-12" d="M86.92,230.36L30.42,83.15,177.63,26.64l56.51,147.21-147.21,56.51ZM31.18,83.49l56.09,146.11,146.11-56.09L177.29,27.4,31.18,83.49Z"/><path class="cls-10" d="M81.66,227.85l-.09-.28L32.93,77.88,182.9,29.15l.09,.28,48.64,149.69-149.97,48.73ZM33.67,78.26l48.36,148.84,148.84-48.36L182.52,29.9,33.67,78.26Z"/><path class="cls-9" d="M76.53,225.06L35.71,72.75,188.03,31.94l40.81,152.31-152.31,40.81ZM36.44,73.17l40.51,151.17,151.17-40.51L187.61,32.66,36.44,73.17Z"/><path class="cls-7" d="M71.55,222.01L38.76,67.77,193,34.99l32.78,154.24-154.24,32.78ZM39.47,68.23l32.54,153.08,153.08-32.54L192.55,35.69,39.47,68.23Z"/><path class="cls-6" d="M66.74,218.71L42.07,62.96l155.74-24.67,24.67,155.74-155.74,24.67ZM42.75,63.45l24.48,154.58,154.58-24.48-24.48-154.58L42.75,63.45Z"/><path class="cls-5" d="M62.11,215.15L45.62,58.33l156.82-16.48,16.48,156.82-156.82,16.48ZM46.27,58.86l16.36,155.65,155.65-16.36-16.36-155.65L46.27,58.86Z"/><path class="cls-2" d="M57.67,211.36l-.02-.29L49.42,53.89l157.47-8.25,.02,.29,8.24,157.17-157.47,8.25Zm-7.63-156.91l8.19,156.29,156.29-8.19-8.19-156.29L50.04,54.45Z"/><path class="cls-3" d="M211.12,207.34H53.43V49.66H211.12V207.34Zm-157.09-.59H210.53V50.25H54.02V206.75Z"/></g><path class="cls-1" d="M136.91,161.94c-3.66,0-7.13-.65-10.4-1.94-3.27-1.29-6.15-3.19-8.64-5.71-2.49-2.52-4.47-5.65-5.94-9.4-1.47-3.75-2.21-8.08-2.21-13.01s.72-9.19,2.16-13c1.44-3.81,3.42-7.03,5.94-9.68,2.52-2.64,5.49-4.65,8.91-6.03,3.42-1.38,7.08-2.07,10.98-2.07s7.08,.76,10.08,2.29c3,1.53,5.49,3.26,7.47,5.17l-7.29,8.19c-1.38-1.26-2.9-2.28-4.54-3.06-1.65-.78-3.56-1.17-5.72-1.17s-4.02,.44-5.76,1.31c-1.74,.87-3.25,2.11-4.54,3.73-1.29,1.62-2.29,3.6-3.01,5.94-.72,2.34-1.08,4.98-1.08,7.92,0,6.06,1.38,10.76,4.14,14.09,2.76,3.33,6.36,5,10.8,5,2.1,0,4.04-.48,5.81-1.44,1.77-.96,3.38-2.22,4.81-3.78l7.29,8.01c-4.86,5.76-11.28,8.64-19.26,8.64Z"/></svg>