<?xml version="1.0" encoding="UTF-8"?><svg id="Layer_1" xmlns="http://www.w3.org/2000/svg" xmlns:xlink="http://www.w3.org/1999/xlink" viewBox="0 0 256 256"><defs><style>.cls-1{fill:#fff;}.cls-2{fill:url(#radial-gradient-20);}.cls-3{fill:url(#radial-gradient-21);}.cls-4{fill:url(#radial-gradient-22);}.cls-5{fill:url(#radial-gradient-10);}.cls-6{fill:url(#radial-gradient-19);}.cls-7{fill:url(#radial-gradient-18);}.cls-8{fill:url(#radial-gradient-17);}.cls-9{fill:url(#radial-gradient-11);}.cls-10{fill:url(#radial-gradient-16);}.cls-11{fill:url(#radial-gradient-15);}.cls-12{fill:url(#radial-gradient-12);}.cls-13{fill:url(#radial-gradient-14);}.cls-14{fill:url(#radial-gradient-13);}.cls-15{fill:url(#radial-gradient-6);}.cls-16{fill:url(#radial-gradient-5);}.cls-17{fill:url(#radial-gradient-3);}.cls-18{fill:url(#radial-gradient-4);}.cls-19{fill:url(#radial-gradient-9);}.cls-20{fill:url(#radial-gradient-8);}.cls-21{fill:url(#radial-gradient-7);}.cls-22{fill:url(#radial-gradient-2);}.cls-23{fill:url(#radial-gradient);}</style><radialGradient id="radial-gradient" cx="128" cy="128" fx="128" fy="128" r="128" gradientTransform="matrix(1, 0, 0, 1, 0, 0)" gradientUnits="userSpaceOnUse"><stop offset=".2" stop-color="#3c64a5"/><stop offset="1" stop-color="#000050"/></radialGradient><radialGradient id="radial-gradient-2" cx="128.31" cy="124.5" fx="128.31" fy="124.5" r="88.89" gradientTransform="matrix(1, 0, 0, 1, 0, 0)" gradientUnits="userSpaceOnUse"><stop offset="0" stop-color="#3c64a5"/><stop offset="1" stop-color="#000050"/></radialGradient><radialGradient id="radial-gradient-3" cx="128.31" cy="124.5" fx="128.31" fy="124.5" r="92.03" xlink:href="#radial-gradient-2"/><radialGradient id="radial-gradient-4" cy="124.5" fy="124.5" r="107.18" xlink:href="#radial-gradient-2"/><radialGradient id="radial-gradient-5" cy="124.5" fy="124.5" r="105.29" xlink:href="#radial-gradient-2"/><radialGradient id="radial-gradient-6" cy="124.5" fy="124.5" r="86.67" xlink:href="#radial-gradient-2"/><radialGradient id="radial-gradient-7" cy="124.5" fy="124.5" r="93.98" xlink:href="#radial-gradient-2"/><radialGradient id="radial-gradient-8" cx="128.31" cy="124.5" fx="128.31" fy="124.5" r="107.71" xlink:href="#radial-gradient-2"/><radialGradient id="radial-gradient-9" cx="128.31" cy="124.5" fx="128.31" fy="124.5" r="104.31" xlink:href="#radial-gradient-2"/><radialGradient id="radial-gradient-10" cx="128.31" cy="124.5" fx="128.31" fy="124.5" r="84.33" xlink:href="#radial-gradient-2"/><radialGradient id="radial-gradient-11" cy="124.5" fy="124.5" r="95.81" xlink:href="#radial-gradient-2"/><radialGradient id="radial-gradient-12" cx="128.31" cy="124.5" fx="128.31" fy="124.5" r="108.1" xlink:href="#radial-gradient-2"/><radialGradient id="radial-gradient-13" cx="128.31" cy="124.5" fx="128.31" fy="124.5" r="103.21" xlink:href="#radial-gradient-2"/><radialGradient id="radial-gradient-14" cy="124.5" fy="124.5" r="81.9" xlink:href="#radial-gradient-2"/><radialGradient id="radial-gradient-15" cx="128.31" cy="124.5" fx="128.31" fy="124.5" r="97.53" xlink:href="#radial-gradient-2"/><radialGradient id="radial-gradient-16" cy="124.5" fy="124.5" r="108.37" xlink:href="#radial-gradient-2"/><radialGradient id="radial-gradient-17" r="101.97" xlink:href="#radial-gradient-2"/><radialGradient id="radial-gradient-18" cx="128.31" cy="124.5" fx="128.31" fy="124.5" r="79.36" xlink:href="#radial-gradient-2"/><radialGradient id="radial-gradient-19" cy="124.5" fy="124.5" r="99.13" xlink:href="#radial-gradient-2"/><radialGradient id="radial-gradient-20" cy="124.5" fy="124.5" r="108.5" xlink:href="#radial-gradient-2"/><radialGradient id="radial-gradient-21" cx="128.31" cy="124.5" fx="128.31" fy="124.5" r="100.61" xlink:href="#radial-gradient-2"/><radialGradient id="radial-gradient-22" cx="128.31" cy="124.5" fx="128.31" fy="124.5" r="76.73" xlink:href="#radial-gradient-2"/></defs><rect class="cls-23" width="256" height="256" rx="25" ry="25"/><g><path class="cls-22" d="M190.56,213.39l-.19-.03-150.95-26.62,.03-.19L66.07,35.61l.19,.03,150.95,26.62-.03,.19-26.62,150.95Zm-150.69-26.96l150.38,26.52,26.52-150.38L66.38,36.05l-26.52,150.38Z"/><path class="cls-17" d="M70.81,216.53l-.04-.19L36.29,67,185.82,32.47l.04,.19,34.48,149.35-149.53,34.52ZM36.75,67.28l34.35,148.78,148.78-34.35L185.53,32.93,36.75,67.28Z"/><path class="cls-18" d="M111.34,231.68L21.13,107.52,145.29,17.32l90.2,124.16-124.16,90.2ZM21.67,107.61l89.75,123.54,123.54-89.75L145.21,17.86,21.67,107.61Z"/><path class="cls-16" d="M154.57,229.79l-.16-.1L23.02,150.75l.1-.16L102.06,19.21l.16,.1L233.61,98.25l-.1,.16-78.94,131.38ZM23.55,150.62l130.89,78.65L233.08,98.38,102.19,19.73,23.55,150.62Z"/><path class="cls-15" d="M193.62,211.17l-.19-.03-151.78-21.33L63.01,37.83l.19,.03,151.78,21.33-21.36,151.97Zm-151.54-21.68l151.21,21.25,21.25-151.21L63.33,38.27l-21.25,151.21Z"/><path class="cls-21" d="M74.06,218.48l-.05-.19L34.34,70.24,182.57,30.52l.05,.19,39.67,148.05-148.24,39.72ZM34.81,70.51l39.52,147.5,147.5-39.52L182.3,30.99,34.81,70.51Z"/><path class="cls-20" d="M115.09,232.21l-.12-.15L20.61,111.28l.15-.12L141.54,16.79l.12,.15,94.36,120.78-.15,.12-120.78,94.36ZM21.14,111.34l94.01,120.33,120.33-94.01L141.47,17.33,21.14,111.34Z"/><path class="cls-19" d="M158.23,228.81l-.17-.09L24,154.41l.09-.17L98.4,20.19l.17,.09L232.63,94.59l-.09,.17-74.31,134.06ZM24.52,154.26l133.55,74.03L232.11,94.74,98.55,20.71,24.52,154.26Z"/><path class="cls-5" d="M196.61,208.83l-.19-.02-152.43-16.02,.02-.19L60.02,40.17l.19,.02,152.43,16.02-.02,.19-16.02,152.43Zm-152.2-16.38l151.86,15.96,15.96-151.86L60.36,40.59l-15.96,151.86Z"/><path class="cls-9" d="M77.37,220.31l-.06-.18L32.5,73.55l.18-.06L179.26,28.69l.06,.18,44.81,146.58-.18,.06-146.58,44.81ZM32.98,73.81l44.64,146.03,146.03-44.64L179.01,29.16,32.98,73.81Z"/><path class="cls-12" d="M118.86,232.6l-.12-.15L20.21,115.04l.15-.12L137.77,16.4l.12,.15,98.52,117.41-.15,.12-117.41,98.52ZM20.75,115.09l98.15,116.97,116.97-98.15L137.72,16.94,20.75,115.09Z"/><path class="cls-14" d="M161.85,227.71L25.11,158.03,94.78,21.29,231.52,90.97l-69.67,136.74ZM25.62,157.87l136.06,69.32L231,91.13,94.95,21.81,25.62,157.87Z"/><path class="cls-13" d="M199.51,206.4l-153.09-10.71v-.19L57.12,42.6l153.09,10.71v.19l-10.71,152.9Zm-152.68-11.06l152.33,10.65,10.65-152.33L57.48,43.01l-10.65,152.33Z"/><path class="cls-11" d="M80.74,222.03l-.06-.18L30.78,76.93,175.88,26.97l.06,.18,49.9,144.92-145.1,49.96ZM31.27,77.17l49.71,144.38,144.38-49.71L175.65,27.45,31.27,77.17Z"/><path class="cls-10" d="M122.63,232.87l-.13-.14L19.95,118.82,133.99,16.13l.13,.14,102.56,113.9-114.05,102.69ZM20.49,118.85l102.18,113.48,113.48-102.18L133.97,16.67,20.49,118.85Z"/><path class="cls-8" d="M165.43,226.47l-.17-.08L26.34,161.61,91.2,22.53l.17,.08L230.29,87.39l-64.86,139.09ZM26.85,161.43l138.39,64.53L229.78,87.57,91.38,23.04,26.85,161.43Z"/><path class="cls-7" d="M202.32,203.86h-.19l-153.18-5.36v-.19l5.36-153.18h.19l153.18,5.36v.19l-5.36,153.18Zm-152.98-5.73l152.61,5.33,5.33-152.61-152.61-5.33-5.33,152.61Z"/><path class="cls-6" d="M84.18,223.63l-.07-.18L29.18,80.36l.18-.07L172.45,25.37l.07,.18,54.93,143.09-.18,.07-143.09,54.93ZM29.67,80.58l54.72,142.56,142.56-54.72L172.23,25.86,29.67,80.58Z"/><path class="cls-2" d="M126.42,233l-.13-.14L19.81,122.61l.14-.13L130.21,16l.13,.14,106.47,110.26-.14,.13-110.26,106.47ZM20.36,122.62l106.07,109.84,109.84-106.07L130.2,16.54,20.36,122.62Z"/><path class="cls-3" d="M168.97,225.11L27.7,165.15,87.66,23.89l141.27,59.96-.07,.18-59.89,141.09ZM28.2,164.95l140.56,59.66,59.66-140.56L87.87,24.39,28.2,164.95Z"/><path class="cls-4" d="M205.05,201.23H51.58V47.77H205.05V201.23Zm-153.08-.38H204.66V48.15H51.96V200.85Z"/></g><path class="cls-1" d="M134.62,112.06c-.53-.08-.99-.08-1.53-.08-3.74,0-7.41,1.53-10.7,4.43-1.53,1.38-2.98,3.06-4.28,4.89-.23-7.11-.61-14.67-1.38-22.39h-9.55c2.06,21.7,1.83,40.65,1.45,57.31h0v.08h9.55c.31-16.66,4.43-27.36,10.62-32.86,1.68-1.45,3.29-2.14,4.74-1.99,7.56,.84,6.34,24.38,5.81,34.84h9.55c.38-7.72,.84-17.12-.23-25.22-1.53-11.84-6.34-18.19-14.06-19.03Z"/><path class="cls-1" d="M153.7,116c-1.55,0-2.95-.3-4.22-.89-1.27-.59-2.35-1.44-3.26-2.54-.91-1.1-1.6-2.44-2.1-4.02-.49-1.58-.74-3.37-.74-5.38s.3-3.8,.89-5.38c.59-1.58,1.37-2.92,2.34-4.02,.97-1.1,2.08-1.95,3.33-2.54s2.55-.89,3.9-.89,2.55,.22,3.5,.67,1.84,1.09,2.67,1.95h.2l-.34-3.8v-8.34h7.25v34.59h-5.92l-.54-2.52h-.15c-.92,.89-1.97,1.63-3.16,2.22s-2.4,.89-3.65,.89Zm1.88-5.92c.82,0,1.58-.17,2.27-.52s1.36-.93,2.02-1.75v-9.92c-.66-.59-1.33-1.01-2-1.26-.67-.25-1.37-.37-2.1-.37-1.35,0-2.51,.56-3.48,1.68-.97,1.12-1.46,2.83-1.46,5.13,0,2.44,.41,4.21,1.23,5.33,.82,1.12,1.99,1.68,3.5,1.68Z"/></svg>