<?xml version="1.0" encoding="UTF-8"?><svg id="Layer_1" xmlns="http://www.w3.org/2000/svg" xmlns:xlink="http://www.w3.org/1999/xlink" viewBox="0 0 256 256"><defs><style>.cls-1{fill:#4dff22;}.cls-2{fill:url(#radial-gradient);}</style><radialGradient id="radial-gradient" cx="128.12" cy="128.9" fx="128.12" fy="128.9" r="98.04" gradientTransform="matrix(1, 0, 0, 1, 0, 0)" gradientUnits="userSpaceOnUse"><stop offset=".31" stop-color="#fff"/><stop offset=".58" stop-color="#fdfffd"/><stop offset=".67" stop-color="#f8fff6"/><stop offset=".74" stop-color="#eeffea"/><stop offset=".79" stop-color="#e0ffd9"/><stop offset=".84" stop-color="#cfffc3"/><stop offset=".88" stop-color="#b9ffa8"/><stop offset=".92" stop-color="#9fff87"/><stop offset=".95" stop-color="#80ff62"/><stop offset=".98" stop-color="#5fff39"/><stop offset="1" stop-color="#4dff22"/></radialGradient></defs><rect class="cls-1" x=".12" y=".9" width="256" height="256" rx="25" ry="25"/><path class="cls-2" d="M30.3,135.59h0c.13,1.93,.31,3.85,.56,5.76h0c.43,3.41,1.04,6.79,1.84,10.14,.16,.68,.33,1.37,.51,2.05,.06,.21,.11,.43,.17,.64,.08,.29,.15,.58,.23,.87,.06,.2,.11,.41,.17,.61,.03,.12,.07,.24,.1,.37,1.08,3.74,2.38,7.42,3.9,11.01h0c.65,1.56,1.35,3.1,2.09,4.62,.11,.22,.21,.43,.32,.65h0c1.1,2.22,2.27,4.39,3.53,6.52,.84,1.42,1.73,2.82,2.64,4.2,.12,.18,.23,.36,.36,.53,.26,.4,.53,.79,.81,1.18,.09,.14,.19,.27,.29,.41h0c2.24,3.2,4.67,6.26,7.27,9.18,.64-.61,1.28-1.21,1.92-1.82-2.51-2.81-4.85-5.76-7.01-8.84-.49-.7-.98-1.41-1.45-2.12-.43-.66-.86-1.32-1.28-1.99-1.7-2.7-3.25-5.49-4.67-8.35-.86-1.73-1.66-3.48-2.41-5.26-1.47-3.46-2.72-7-3.77-10.61-.23-.79-.44-1.57-.65-2.36,0-.04-.02-.08-.03-.11-1.01-3.86-1.77-7.79-2.28-11.75-.25-1.91-.44-3.84-.57-5.76-.25-3.73-.28-7.49-.09-11.22,.04-.86,.1-1.71,.17-2.57,.31-3.99,.87-7.97,1.68-11.89,.38-1.89,.83-3.77,1.33-5.63,.97-3.6,2.15-7.15,3.54-10.61,.32-.8,.65-1.59,.99-2.38,1.32-3.06,2.81-6.06,4.45-8.97,.34-.59,.67-1.18,1.02-1.76,.98-1.66,2.02-3.29,3.1-4.88,2.09-3.08,4.35-6.03,6.79-8.84,.56-.65,1.13-1.29,1.71-1.92,1.71-1.87,3.49-3.67,5.34-5.41,1.09-1.02,2.2-2.01,3.34-2.97,1.47-1.25,2.98-2.46,4.52-3.62,2.96-2.23,6.05-4.28,9.25-6.16,.74-.43,1.49-.86,2.24-1.27,1.47-.81,2.96-1.58,4.47-2.31,2.12-1.02,4.28-1.97,6.47-2.84,1.79-.71,3.61-1.36,5.44-1.96,3.52-1.15,7.1-2.09,10.73-2.82,.38,2.03,.76,4.06,1.14,6.09-3.3,.66-6.57,1.51-9.78,2.55,.3,.82,.59,1.64,.89,2.46,1.78-.57,3.59-1.09,5.4-1.55,1.32-.33,2.64-.63,3.96-.9,.84-.17,1.69-.33,2.53-.47,3.49-.6,7.02-.98,10.55-1.14,1.93-.09,3.86-.12,5.79-.08,1.22,.02,2.44,.07,3.66,.15,2,.13,3.99,.32,5.98,.59l-.91,6.16c-2.87-.38-5.75-.6-8.64-.67-1.93-.05-3.86-.03-5.79,.07-1.78,.08-3.56,.23-5.33,.43-1.4,.16-2.79,.36-4.17,.6-.85,.14-1.69,.3-2.53,.47-2.84,.57-5.65,1.31-8.41,2.19-1.84,.58-3.66,1.24-5.45,1.95-1.09,.43-2.17,.9-3.25,1.38-1.83,.83-3.63,1.73-5.4,2.69-.55-.98-1.11-1.96-1.66-2.94-.45-.81-.91-1.61-1.37-2.42,3.1-1.7,6.3-3.21,9.59-4.52-.3-.82-.59-1.65-.89-2.47-1.4,.55-2.78,1.14-4.15,1.76-1.98,.9-3.93,1.88-5.84,2.93-.75,.41-1.5,.83-2.24,1.27-2.91,1.71-5.73,3.58-8.43,5.6-1.55,1.16-3.05,2.36-4.52,3.62-.55,.46-1.08,.93-1.61,1.41-2.21,1.98-4.31,4.07-6.31,6.25-.58,.63-1.15,1.28-1.71,1.93-2.21,2.57-4.27,5.26-6.17,8.06,.74,.47,1.48,.93,2.22,1.4,1.83-2.68,3.81-5.25,5.93-7.71,.1-.12,.2-.24,.31-.36,.46-.53,.93-1.06,1.4-1.57,2.38-2.6,4.92-5.06,7.6-7.35,1.47-1.26,2.97-2.46,4.52-3.62,2.11-1.58,4.29-3.06,6.53-4.44,.51-.31,1.03-.63,1.55-.93,1.01,1.79,2.02,3.57,3.03,5.36-2.5,1.47-4.92,3.08-7.25,4.81,.55,.69,1.1,1.37,1.65,2.05,1.83-1.35,3.71-2.63,5.65-3.82,.41-.26,.83-.51,1.25-.75,.74-.43,1.49-.86,2.24-1.27,2.67-1.46,5.42-2.76,8.24-3.89,1.79-.72,3.6-1.38,5.44-1.96,1.49-.48,3-.91,4.52-1.29,1.15-.29,2.31-.56,3.48-.79,.84-.17,1.68-.33,2.53-.47,3-.51,6.03-.84,9.07-.99,1.93-.1,3.86-.12,5.79-.08,.99,.02,1.97,.07,2.96,.13,1.76,.11,3.52,.28,5.27,.51l-.91,6.16c-2.4-.31-4.81-.5-7.23-.57,.01,.81,.02,1.61,.04,2.42,0,.05,0,.11,0,.16,1.02,.03,2.03,.08,3.05,.15,1.26,.09,2.52,.22,3.77,.38h0c.85,.11,1.7,.23,2.54,.38,2.51,.42,5,.98,7.44,1.68,1.86,.52,3.69,1.13,5.5,1.81,2.13,.8,4.23,1.71,6.27,2.72,.77,.38,1.53,.77,2.28,1.18,2.23,1.21,4.4,2.53,6.49,3.98,1.52,1.06,3,2.17,4.43,3.35,.06,.05,.12,.1,.18,.15,1.76,1.46,3.45,3,5.05,4.62,.6,.61,1.19,1.23,1.77,1.86,1.71,1.86,3.32,3.82,4.82,5.86,1.14,1.56,2.22,3.16,3.23,4.8,1.2,1.95,2.31,3.96,3.31,6.02-.19,.09-.38,.18-.57,.26-1.68,.77-3.35,1.55-5.03,2.32-.1-.2-.2-.4-.3-.61-.78-1.55-1.62-3.07-2.53-4.55-1-1.65-2.08-3.25-3.24-4.8-1.3-1.75-2.69-3.44-4.17-5.04-.58-.63-1.17-1.25-1.78-1.86-1.38-1.38-2.82-2.71-4.31-3.96-1.48-1.24-3.02-2.41-4.61-3.5-1.68-1.15-3.41-2.23-5.2-3.21-.13-.08-.27-.15-.4-.22-.76-.41-1.52-.8-2.29-1.17-1.75-.86-3.54-1.63-5.36-2.31-.27,.83-.54,1.65-.81,2.47,1.69,.64,3.35,1.37,4.97,2.16,.77,.38,1.53,.77,2.28,1.18,1.79,.98,3.54,2.04,5.22,3.2,1.29,.88,2.54,1.81,3.75,2.8,.29,.23,.57,.47,.86,.71,1.39,1.17,2.72,2.39,4,3.68-1.49,1.42-2.98,2.85-4.46,4.27-1.05-1.04-2.14-2.05-3.26-3-.53,.69-1.05,1.39-1.58,2.08,1.02,.87,2.01,1.78,2.95,2.72,.61,.61,1.2,1.23,1.77,1.86,1.03,1.13,2.01,2.32,2.94,3.55,1.17,1.54,2.25,3.14,3.23,4.8,.69,1.16,1.33,2.34,1.93,3.55,.38,.77,.74,1.55,1.08,2.34,.61,1.4,1.15,2.82,1.63,4.27,.23,.7,.45,1.41,.66,2.12,.33,1.15,.61,2.3,.85,3.47,.28,1.33,.5,2.67,.67,4.02-2.06,.21-4.12,.42-6.18,.63-.13-1.02-.3-2.03-.5-3.04-.38-1.89-.87-3.76-1.49-5.6-.38-1.11-.79-2.21-1.26-3.29-.34-.79-.7-1.56-1.08-2.33h0c-.45-.91-.94-1.8-1.45-2.68-.97-1.67-2.05-3.27-3.23-4.8-.72-.94-1.48-1.85-2.28-2.73-.57-.64-1.17-1.26-1.78-1.86-.71-.71-1.45-1.39-2.21-2.05-1.46-1.27-3-2.44-4.61-3.51-.93-.62-1.89-1.2-2.87-1.75-.07-.04-.13-.07-.2-.11,.94-1.83,1.89-3.67,2.84-5.5,1.36,.74,2.68,1.55,3.96,2.41,.47-.62,.93-1.23,1.4-1.85,.06-.08,.12-.16,.18-.24-1.4-.95-2.85-1.83-4.34-2.65-.03-.02-.07-.04-.1-.05-.72-.39-1.44-.76-2.18-1.12-1.33-.64-2.68-1.23-4.06-1.76-1.8-.7-3.64-1.3-5.5-1.8-1.64-.44-3.3-.8-4.97-1.09l.91-6.16c2.02,.35,4.02,.79,5.99,1.34,.27-.82,.53-1.64,.8-2.46-2.12-.58-4.26-1.06-6.42-1.42-.85-.14-1.7-.27-2.54-.38-1.93-.25-3.87-.4-5.82-.47-1.93-.07-3.86-.05-5.79,.06-1.17,.07-2.35,.16-3.51,.3-1.02,.12-2.03,.26-3.03,.42-.85,.14-1.69,.3-2.53,.47-1.91,.4-3.8,.89-5.66,1.46-1.84,.57-3.66,1.22-5.45,1.96-2.03,.84-4.01,1.78-5.94,2.82-1.02-1.79-2.03-3.59-3.04-5.38,2.24-1.21,4.54-2.3,6.89-3.25,1.79-.73,3.61-1.38,5.45-1.96,2.18-.68,4.39-1.25,6.62-1.72,.84-.18,1.68-.33,2.53-.47,2.51-.42,5.04-.71,7.58-.86-.01-.87-.03-1.73-.04-2.6-1.46,.07-2.92,.19-4.38,.36-1.22,.14-2.44,.31-3.65,.51-.85,.14-1.69,.3-2.53,.47-2.38,.49-4.73,1.1-7.03,1.83-1.84,.58-3.66,1.24-5.45,1.96-2.49,1.01-4.92,2.16-7.29,3.45-.76,.41-1.5,.83-2.24,1.27-2.09,1.23-4.12,2.57-6.08,4.01-1.55,1.14-3.06,2.35-4.53,3.61-.17,.15-.34,.29-.51,.44-1.85,1.63-3.6,3.36-5.26,5.16-1.54-1.36-3.08-2.73-4.62-4.09,2.05-2.23,4.23-4.35,6.53-6.32-.55-.68-1.1-1.37-1.65-2.05-.29,.25-.57,.49-.86,.75-2.1,1.86-4.1,3.82-5.99,5.89-.58,.63-1.15,1.28-1.7,1.93-1.9,2.21-3.67,4.52-5.32,6.92-.91,1.33-1.78,2.69-2.61,4.08-.16,.27-.32,.55-.48,.82-1.6,2.74-3.03,5.57-4.29,8.48-.34,.79-.67,1.58-.99,2.38-1.08,2.72-2,5.49-2.78,8.32-.29,1.04-.55,2.08-.8,3.14-.19,.83-.37,1.66-.53,2.5-.62,3.1-1.06,6.23-1.31,9.37-1.15-.07-2.31-.15-3.46-.22-.92-.06-1.83-.12-2.75-.18,.27-3.5,.76-6.98,1.46-10.41,.34-1.67,.72-3.32,1.16-4.96,.06-.22,.12-.44,.18-.67,.86-3.14,1.89-6.24,3.1-9.27,.32-.8,.64-1.59,.99-2.38,1.4-3.23,3-6.37,4.79-9.4-.73-.46-1.47-.93-2.21-1.4-1.86,3.16-3.52,6.43-4.97,9.8-.34,.79-.67,1.58-.99,2.38-1.26,3.16-2.33,6.38-3.22,9.66-.28,1.04-.55,2.08-.79,3.14-.19,.83-.37,1.66-.54,2.49-.73,3.58-1.24,7.21-1.52,10.85-.07,.86-.13,1.71-.17,2.57-.18,3.4-.15,6.82,.07,10.22,.12,1.93,.31,3.85,.56,5.76,.38,2.97,.92,5.92,1.61,8.83,.15,.63,.3,1.26,.47,1.89,.21,.83,.44,1.66,.68,2.48,.95,3.29,2.09,6.52,3.41,9.68,.8-.37,1.59-.73,2.39-1.09-.38-.91-.75-1.83-1.1-2.76-.81-2.14-1.54-4.32-2.18-6.52-.24-.82-.47-1.65-.68-2.48-.87-3.38-1.55-6.82-2-10.29-.26-1.91-.44-3.83-.57-5.76-.02-.31-.04-.62-.05-.92-.16-2.96-.17-5.92-.02-8.88,1.73,.11,3.46,.22,5.19,.33,.34,.02,.68,.04,1.01,.07-.15,2.93-.13,5.87,.04,8.8,.86-.08,1.72-.17,2.58-.25-.01-.23-.03-.46-.04-.69-.13-2.56-.14-5.13-.01-7.7,.04-.86,.09-1.71,.16-2.57,.24-3,.66-5.99,1.25-8.94,.32-1.63,.7-3.25,1.13-4.85,.07-.26,.14-.52,.21-.78,.74-2.69,1.63-5.33,2.66-7.92,.31-.8,.64-1.59,.98-2.38,1.21-2.77,2.58-5.47,4.11-8.08,.97-1.66,2-3.29,3.1-4.88,1.57-2.28,3.26-4.48,5.07-6.58,1.54,1.36,3.08,2.73,4.62,4.09-1.59,1.86-3.08,3.79-4.46,5.8-1.1,1.59-2.13,3.22-3.1,4.89-1.34,2.31-2.54,4.7-3.61,7.15-.34,.79-.67,1.58-.99,2.38-.9,2.27-1.68,4.6-2.34,6.96,.76,.18,1.52,.36,2.29,.54,.07,.02,.15,.04,.22,.05,.63-2.23,1.37-4.42,2.22-6.57,.81,.34,1.61,.67,2.42,1.01,1.1,.46,2.21,.92,3.31,1.38-.72,1.84-1.36,3.72-1.9,5.62-.26,.89-.49,1.78-.7,2.68-.23,.98-.45,1.96-.63,2.95-.4,2.12-.69,4.27-.88,6.43-.07,.86-.13,1.71-.17,2.57-.09,1.99-.08,3.99,.02,5.97,.86-.08,1.73-.17,2.59-.25-.09-1.85-.1-3.7-.02-5.55,.03-.86,.09-1.71,.16-2.57,.17-2,.44-4.01,.81-5.99,.3-1.59,.66-3.18,1.08-4.75,.08-.3,.16-.59,.25-.89,.51-1.77,1.1-3.51,1.77-5.23,.31-.8,.64-1.59,.99-2.37,.82-1.86,1.74-3.67,2.74-5.43,.96-1.68,2-3.31,3.11-4.88,1.05-1.49,2.18-2.93,3.36-4.32,1.54,1.36,3.08,2.73,4.62,4.1-.96,1.14-1.88,2.32-2.74,3.54,.73,.47,1.47,.93,2.2,1.4,.79-1.1,1.62-2.17,2.5-3.2,.55-.65,1.12-1.3,1.71-1.92,1.05-1.13,2.15-2.21,3.3-3.24,1.44-1.29,2.94-2.5,4.52-3.62,1.03-.74,2.09-1.43,3.18-2.09,.06-.04,.13-.08,.19-.12,.73-.44,1.48-.86,2.24-1.27,1.37-.73,2.77-1.4,4.19-2,1.78-.75,3.6-1.4,5.45-1.95,1.28-.38,2.58-.71,3.88-.99,.38,2.03,.76,4.06,1.14,6.09-.98,.21-1.96,.46-2.92,.74-1.86,.53-3.68,1.19-5.45,1.96-1.1,.48-2.18,.99-3.24,1.56-.76,.4-1.5,.82-2.24,1.27-.87,.52-1.71,1.07-2.54,1.66-1.34,.93-2.62,1.93-3.86,3.01-.23,.19-.45,.39-.67,.59-.88,.8-1.74,1.64-2.55,2.51-.59,.62-1.16,1.27-1.71,1.93-.65,.78-1.28,1.59-1.88,2.41-1.13,1.56-2.17,3.2-3.1,4.89-.57,1.04-1.1,2.09-1.58,3.17-1.92-.8-3.83-1.59-5.74-2.39,.62-1.4,1.31-2.77,2.06-4.11-.25-.16-.51-.32-.76-.48-.48-.3-.95-.6-1.43-.91-.82,1.47-1.57,2.96-2.25,4.5-.35,.79-.68,1.58-.99,2.38-.54,1.4-1.03,2.83-1.46,4.27-.25,.85-.48,1.7-.68,2.57-.24,1.02-.46,2.04-.65,3.07-.3,1.64-.52,3.29-.66,4.95-.08,.86-.13,1.71-.17,2.57-.06,1.52-.06,3.04,0,4.55,.08,1.93,.27,3.85,.56,5.76,.25,1.63,.57,3.26,.97,4.86-.21,.06-.42,.12-.63,.17-1.78,.49-3.57,.98-5.35,1.46-.49-1.94-.87-3.91-1.17-5.9-.86,.09-1.72,.17-2.59,.26,.3,2.13,.72,4.24,1.25,6.33-1.99,.54-3.98,1.09-5.98,1.63-.61-2.42-1.1-4.88-1.44-7.35-.27-1.91-.46-3.84-.57-5.76-.13-2.32-.14-4.65-.04-6.97,.04-.86,.09-1.71,.16-2.57,.2-2.5,.54-4.99,1.02-7.47-.84-.2-1.67-.4-2.51-.6-.51,2.61-.87,5.25-1.09,7.9h0c-.07,.86-.13,1.71-.17,2.57-.12,2.46-.11,4.93,.04,7.38,.11,1.93,.3,3.85,.56,5.76,.36,2.62,.87,5.23,1.52,7.79-1.99,.54-3.98,1.09-5.98,1.63-.75-2.9-1.32-5.85-1.73-8.82l-2.59,.25c.34,2.58,.82,5.15,1.42,7.68,.12,.53,.25,1.05,.39,1.57,.21,.83,.44,1.66,.68,2.48,.83,2.83,1.81,5.62,2.94,8.35,.74,1.78,1.54,3.54,2.41,5.26,.82,1.63,1.69,3.23,2.62,4.8,.67,1.13,1.36,2.24,2.08,3.33,.47,.72,.95,1.42,1.45,2.12,1.7,2.42,3.54,4.75,5.49,6.96,1.28,1.45,2.61,2.85,3.98,4.2,.82,.81,1.66,1.59,2.52,2.37,1.47,1.32,2.98,2.58,4.54,3.79-.69,.92-1.37,1.84-2.06,2.75-.55,.73-1.09,1.46-1.63,2.19-2.75-2.12-5.36-4.42-7.83-6.85-1.37-1.35-2.7-2.76-3.98-4.2-1.12-1.26-2.2-2.55-3.24-3.87-1-1.26-1.96-2.55-2.88-3.86-.49-.7-.98-1.41-1.45-2.13-1.92-2.91-3.66-5.92-5.22-9.04-.8,.36-1.6,.73-2.4,1.09,.97,1.96,2.02,3.88,3.14,5.77,.74,1.24,1.5,2.46,2.3,3.66,.47,.72,.95,1.42,1.45,2.12,1.97,2.81,4.1,5.5,6.39,8.07,1.28,1.44,2.61,2.84,3.98,4.2,.99,.98,2.01,1.94,3.04,2.87,1.65,1.49,3.37,2.91,5.13,4.27,.68,.53,1.36,1.04,2.06,1.54,2.78,2.02,5.68,3.88,8.68,5.56,.4-.77,.8-1.54,1.21-2.31-2.12-1.2-4.2-2.49-6.21-3.86-.71-.49-1.41-.98-2.11-1.49,1.03-1.38,2.06-2.76,3.1-4.14,.2-.27,.4-.54,.61-.81,2.4,1.74,4.9,3.34,7.48,4.8,1.68,.95,3.39,1.85,5.14,2.67,.41,.19,.82,.39,1.24,.58,2.42,1.1,4.9,2.08,7.42,2.93,.81,.28,1.63,.54,2.45,.79,2.84,.86,5.73,1.56,8.65,2.1,.13-.85,.26-1.7,.39-2.55-2.78-.52-5.53-1.2-8.24-2.02-.04,0-.08-.02-.11-.03-.78-.24-1.56-.49-2.34-.75-2.81-.96-5.57-2.07-8.25-3.35-1.74-.83-3.46-1.72-5.14-2.68-1.96-1.12-3.87-2.32-5.72-3.6-.47-.32-.94-.65-1.4-.99-.69-.5-1.38-1.02-2.06-1.55-2.35-1.82-4.59-3.78-6.72-5.86-1.38-1.35-2.71-2.75-3.98-4.2-1.03-1.17-2.02-2.37-2.98-3.59-.78-.99-1.53-2-2.25-3.03,1.7-1.16,3.4-2.32,5.1-3.48,1.44,2.03,2.98,3.98,4.62,5.85,.59-.57,1.18-1.13,1.78-1.69,.04-.04,.09-.08,.13-.12-1.54-1.77-2.99-3.61-4.35-5.52-.5-.7-.98-1.41-1.45-2.12-1.36-2.08-2.61-4.23-3.75-6.45-.8,.36-1.59,.73-2.39,1.09,.68,1.34,1.4,2.65,2.17,3.95,.58,.98,1.18,1.94,1.8,2.89-1.7,1.16-3.4,2.31-5.1,3.47-1.64-2.5-3.14-5.08-4.48-7.75-.87-1.72-1.68-3.48-2.42-5.26-.32-.77-.63-1.55-.92-2.32-.7-1.85-1.33-3.72-1.88-5.62,1.99-.54,3.98-1.09,5.97-1.63,.69,2.38,1.51,4.72,2.45,7.01,.72-.33,1.45-.66,2.18-.99,.07-.03,.14-.06,.21-.1-.29-.69-.56-1.4-.82-2.1-.55-1.48-1.05-2.99-1.5-4.51,.2-.06,.41-.11,.61-.17,1.79-.49,3.58-.98,5.36-1.47,.57,1.92,1.22,3.82,1.97,5.68,.72,1.79,1.52,3.55,2.41,5.26,.52,1.02,1.07,2.02,1.65,3,.5,.86,1.03,1.71,1.57,2.54,.47,.72,.95,1.43,1.45,2.12,1.17,1.64,2.42,3.22,3.74,4.74,1.26,1.46,2.59,2.86,3.99,4.2,1.54,1.48,3.14,2.87,4.82,4.18-1.24,1.65-2.47,3.3-3.71,4.95-1.95-1.53-3.82-3.16-5.6-4.88-.63,.6-1.27,1.2-1.9,1.8,1.88,1.83,3.86,3.56,5.94,5.17,.68,.53,1.36,1.04,2.06,1.55,2.02,1.46,4.12,2.82,6.28,4.06,1.67,.96,3.38,1.85,5.13,2.67,.14,.07,.28,.13,.42,.19,2.24,1.03,4.53,1.94,6.87,2.73,.81,.28,1.63,.54,2.45,.79,2.39,.72,4.82,1.31,7.27,1.78,1.9,.36,3.81,.64,5.72,.86,2.6,.28,5.21,.43,7.83,.43,.86,0,1.72-.01,2.57-.04,2.5-.08,4.98-.3,7.45-.65-.15-.8-.29-1.6-.44-2.4l-.03-.17c-2.33,.33-4.68,.55-7.04,.63-.7,.03-1.4,.04-2.1,.05-.16,0-.31,0-.47,0-2.47,0-4.94-.14-7.39-.4-1.92-.21-3.83-.5-5.73-.86-2.31-.45-4.6-1.01-6.86-1.7-.82-.25-1.64-.51-2.45-.79-2.34-.8-4.63-1.72-6.87-2.77-1.75-.82-3.46-1.7-5.14-2.67-1.78-1.02-3.51-2.12-5.19-3.3-.25-.17-.49-.35-.74-.53,.13-.17,.25-.34,.38-.51,1.11-1.48,2.22-2.96,3.33-4.45,1.64,1.18,3.34,2.28,5.09,3.3,.4-.77,.8-1.55,1.21-2.32-1.4-.81-2.76-1.68-4.09-2.61-.22-.15-.43-.3-.64-.45-.7-.5-1.38-1.02-2.06-1.55-1.56-1.22-3.06-2.53-4.48-3.9-1.39-1.34-2.72-2.74-3.98-4.2-1.22-1.42-2.38-2.89-3.47-4.42-.5-.7-.98-1.4-1.45-2.12-1.09-1.67-2.09-3.39-3.01-5.15-.89-1.71-1.7-3.47-2.42-5.26-.18-.45-.36-.9-.53-1.35-.49-1.29-.93-2.6-1.32-3.92,1.99-.55,3.99-1.09,5.98-1.64,.44,1.47,.94,2.91,1.5,4.34,.79-.36,1.58-.72,2.37-1.08-.11-.29-.22-.58-.33-.87-.38-1.02-.72-2.04-1.04-3.08-.25-.82-.47-1.65-.68-2.48-.36-1.46-.66-2.94-.89-4.43-.3-1.91-.48-3.83-.56-5.76-.06-1.38-.06-2.76,0-4.13,.03-.86,.09-1.72,.16-2.57,.13-1.51,.33-3.02,.6-4.52,.27-1.52,.61-3.03,1.02-4.53,.1-.37,.21-.74,.31-1.1,.39-1.31,.83-2.6,1.32-3.88,1.92,.8,3.83,1.59,5.74,2.39-.37,.96-.71,1.94-1.01,2.93,.84,.2,1.68,.4,2.52,.6,.26-.85,.55-1.7,.87-2.53,.3-.8,.64-1.59,.99-2.37h0c.43-.95,.89-1.87,1.39-2.78,.92-1.7,1.96-3.33,3.11-4.88,.52-.71,1.07-1.4,1.63-2.08,.55-.66,1.12-1.3,1.71-1.92,.72-.76,1.46-1.49,2.23-2.2,1.42-1.31,2.93-2.51,4.52-3.62,.72-.5,1.44-.97,2.19-1.43,.73-.45,1.48-.87,2.24-1.27,.93-.49,1.88-.95,2.84-1.37,1.77-.77,3.59-1.42,5.45-1.95,.83-.23,1.67-.45,2.51-.63,.84-.18,1.68-.34,2.53-.48,1.04-.16,2.09-.29,3.14-.38,1.92-.16,3.85-.18,5.79-.07,.19,0,.39,.02,.58,.04,.67,.05,1.33,.11,1.99,.19l-.91,6.16c-.53-.06-1.05-.11-1.57-.14-1.85-.13-3.71-.12-5.56,.03-.08,0-.15,.01-.23,.02-.7,.06-1.4,.15-2.1,.25-.85,.13-1.69,.28-2.53,.47-.52,.12-1.03,.24-1.55,.38,.3,.83,.6,1.66,.9,2.49,.38-.1,.75-.19,1.13-.28,.83-.19,1.68-.36,2.53-.49,.55-.08,1.1-.15,1.66-.21,1.91-.19,3.85-.23,5.79-.08,.15,.01,.31,.02,.46,.04,.23,.02,.46,.04,.7,.07,.85,.09,1.7,.22,2.54,.38,.55,.1,1.09,.22,1.63,.35,1.88,.45,3.72,1.06,5.49,1.82,.36,.15,.71,.31,1.07,.48,.78,.36,1.54,.76,2.28,1.18,.48,.27,.95,.55,1.42,.85,1.38,.87,2.7,1.85,3.94,2.91,.22,.19,.45,.39,.66,.59,.29,.26,.58,.53,.86,.81,.62,.6,1.21,1.22,1.77,1.86,.36,.41,.71,.83,1.05,1.25,1.21,1.51,2.29,3.12,3.23,4.8,.19,.35,.38,.71,.57,1.06,.39,.76,.75,1.54,1.08,2.33,.21,.49,.4,.98,.58,1.49,.33,.9,.62,1.82,.87,2.75,.25,.94,.46,1.88,.63,2.84,.07,.41,.14,.82,.19,1.23,.12,.85,.21,1.7,.26,2.56,.04,.52,.05,1.04,.06,1.55,.03,1.93-.1,3.86-.39,5.78-.06,.42-.14,.84-.22,1.26-.16,.84-.35,1.68-.58,2.51-.13,.49-.28,.98-.43,1.46-.2,.64-.43,1.28-.67,1.9-.46,1.17-.98,2.32-1.57,3.44-.2,.39-.42,.77-.64,1.15-.43,.74-.89,1.47-1.37,2.18-.28,.41-.56,.81-.86,1.2-1.16,1.55-2.45,2.99-3.86,4.33-.32,.31-.66,.61-1,.91-.64,.56-1.31,1.1-2,1.62-.39,.29-.78,.58-1.19,.85-1.6,1.09-3.29,2.04-5.04,2.84-.42,.19-.84,.37-1.26,.55-.79,.33-1.6,.62-2.42,.88-.46,.15-.92,.29-1.38,.42-1.86,.52-3.77,.88-5.69,1.07-.46,.05-.92,.08-1.38,.11-.82,.05-1.64,.06-2.46,.05-.04,0-.08,0-.12,0-.48,0-.96-.03-1.44-.06-1.93-.12-3.85-.41-5.73-.86-.46-.11-.91-.23-1.35-.35-.83-.23-1.64-.5-2.45-.79-.45-.16-.91-.34-1.35-.52-1.78-.74-3.51-1.63-5.14-2.66-.39-.24-.77-.5-1.15-.76-.3-.21-.59-.42-.88-.63-.4-.3-.8-.61-1.18-.92-.38-.31-.75-.62-1.12-.95-1.45-1.28-2.78-2.69-3.99-4.2-.28-.35-.56-.71-.83-1.08-.51-.69-.99-1.4-1.44-2.12-.27-.42-.53-.85-.77-1.29-.96-1.68-1.77-3.44-2.43-5.26-.03-.07-.05-.14-.07-.21-.12-.35-.24-.7-.35-1.05-.26-.82-.49-1.65-.68-2.48-.12-.5-.22-1-.31-1.51-.35-1.9-.54-3.83-.56-5.76,0-.43,0-.86,0-1.3,.02-.86,.08-1.71,.16-2.57,.05-.52,.12-1.04,.19-1.56,.21-1.46,.52-2.9,.93-4.32,.13-.44,.26-.88,.4-1.31,.13-.4,.27-.79,.42-1.19,.3-.8,.63-1.6,.99-2.38h0c.22-.49,.46-.98,.71-1.45,.9-1.73,1.95-3.36,3.12-4.88,.25-.32,.5-.64,.76-.95,.55-.66,1.12-1.3,1.72-1.92,.38-.39,.77-.77,1.17-1.15,1.41-1.32,2.93-2.53,4.54-3.59,.33-.22,.66-.43,1-.64,.73-.45,1.48-.87,2.24-1.27,.49-.26,.98-.5,1.48-.73-.3-.83-.6-1.66-.9-2.5-.64,.29-1.27,.59-1.89,.92-.76,.39-1.51,.82-2.24,1.26-.46,.28-.91,.57-1.36,.87-1.15,.77-2.25,1.61-3.31,2.51-.42,.35-.82,.72-1.22,1.1-.51,.47-1,.96-1.48,1.47-.59,.62-1.16,1.26-1.7,1.92-.35,.42-.69,.85-1.02,1.29-1.16,1.55-2.2,3.18-3.1,4.89-.32,.61-.62,1.22-.91,1.84-.36,.78-.69,1.57-.99,2.38-.2,.52-.38,1.05-.55,1.58-.25,.77-.47,1.54-.67,2.33-.27,1.09-.49,2.19-.67,3.31-.1,.66-.19,1.33-.25,2-1.73-.11-3.46-.22-5.2-.33-.34-.02-.68-.04-1.01-.07,.1-1.02,.23-2.03,.39-3.04-.84-.2-1.67-.4-2.51-.6-.2,1.15-.35,2.31-.45,3.47h0c-.08,.86-.14,1.71-.17,2.57-.04,1.05-.04,2.09,0,3.14,.06,1.93,.25,3.86,.56,5.76,.19,1.14,.42,2.28,.69,3.4,.2,.83,.43,1.66,.68,2.48,.31,1.01,.65,2.01,1.03,3,.68,1.8,1.49,3.56,2.41,5.26,.25,.47,.51,.94,.78,1.4,.31,.53,.63,1.05,.96,1.56-1.7,1.16-3.41,2.32-5.11,3.48-.81-1.25-1.57-2.54-2.27-3.86-.7,.32-1.4,.64-2.11,.96-.09,.04-.18,.08-.28,.13,.36,.69,.74,1.37,1.13,2.05,.43,.74,.89,1.48,1.36,2.2,.47,.72,.95,1.43,1.45,2.12,.9,1.25,1.85,2.47,2.85,3.63,1.25,1.47,2.59,2.87,3.99,4.2,1.19,1.12,2.42,2.19,3.7,3.2,.67,.53,1.36,1.05,2.06,1.55,1.26,.9,2.56,1.74,3.89,2.53,1.59,.94,3.24,1.8,4.93,2.57,.07,.03,.14,.06,.21,.09,1.48,.67,2.99,1.27,4.53,1.8-.06,.19-.12,.38-.19,.57-.57,1.78-1.14,3.55-1.71,5.33-1.87-.64-3.7-1.38-5.5-2.2-.4,.77-.81,1.55-1.21,2.32,.07,.03,.14,.06,.21,.09,1.86,.85,3.76,1.61,5.7,2.27,.81,.28,1.63,.54,2.45,.78,1.94,.58,3.91,1.06,5.89,1.45,1.89,.37,3.81,.66,5.73,.86,2.11,.22,4.22,.33,6.34,.34,.86,0,1.72,0,2.57-.04,2.02-.08,4.04-.25,6.04-.52,1.22-.16,2.44-.37,3.66-.6,.68-.14,1.36-.28,2.04-.44,2.07-.48,4.11-1.07,6.11-1.75,.7,1.93,1.41,3.86,2.11,5.79-2.33,.8-4.71,1.49-7.11,2.04,.15,.86,.31,1.73,.47,2.59,2.56-.58,5.07-1.3,7.55-2.16l2.12,5.8c-.29,.1-.57,.2-.86,.29-2.53,.85-5.09,1.56-7.69,2.14-1.88,.42-3.78,.77-5.69,1.05-2.8,.41-5.62,.67-8.45,.76-.55,.02-1.09,.03-1.64,.04-.31,0-.62,0-.93,0-2.97,0-5.93-.16-8.88-.49-.13,.85-.26,1.7-.38,2.55,3.09,.35,6.2,.53,9.31,.52,.02,1.16,.04,2.32,.07,3.47,.02,.92,.04,1.83,.05,2.75-3.46,.01-6.93-.18-10.37-.58-1.92-.23-3.83-.51-5.73-.86-3.06-.56-6.09-1.29-9.07-2.18-.18-.06-.37-.11-.55-.17-.82-.25-1.64-.51-2.45-.79-3.28-1.11-6.5-2.42-9.62-3.92-.4,.77-.8,1.54-1.21,2.31,.62,.3,1.25,.59,1.88,.88,2.66,1.2,5.38,2.27,8.15,3.2-.63,1.97-1.27,3.94-1.9,5.91-2.32-.78-4.61-1.65-6.86-2.61-1.4-.59-2.78-1.22-4.14-1.88-1.74-.84-3.45-1.73-5.13-2.68-3.29-1.85-6.47-3.89-9.51-6.11-.69-.5-1.38-1.02-2.06-1.55-1.31-1.01-2.58-2.05-3.84-3.12-1.76-1.51-3.46-3.08-5.11-4.72-.19,.18-.37,.35-.55,.52-.46,.43-.92,.87-1.37,1.3,1.17,1.16,2.36,2.29,3.59,3.39,1.84,1.65,3.74,3.23,5.7,4.73h0c.13,.1,.26,.2,.39,.3,.13,.1,.26,.2,.39,.3,.18,.14,.36,.27,.55,.41,.25,.18,.49,.36,.73,.54,3.16,2.3,6.47,4.41,9.88,6.32h0c1.47,.83,2.97,1.61,4.48,2.36,.22,.11,.43,.21,.65,.32,.7,.34,1.4,.67,2.11,.99,3.04,1.38,6.14,2.6,9.3,3.66h0c.81,.28,1.63,.54,2.45,.79h0c3.74,1.14,7.55,2.06,11.41,2.75h0c.48,.09,.97,.17,1.45,.25,.04,0,.07,.01,.11,.02,.43,.07,.87,.14,1.3,.2l.27,.04c.08,.01,.17,.02,.25,.04,.18,.03,.35,.05,.53,.08,.6,.09,1.21,.16,1.81,.24h0c.15,.02,.31,.04,.46,.05,3.92,.46,7.87,.68,11.82,.66h0c.86,0,1.72-.01,2.57-.04h0c3.91-.12,7.82-.48,11.69-1.07h0c.12-.02,.24-.04,.37-.06,.27-.04,.53-.08,.8-.13,.09-.01,.17-.03,.26-.04,.58-.1,1.17-.2,1.75-.31,.3-.06,.6-.11,.89-.17,.54-.11,1.09-.22,1.63-.34,4.01-.86,7.98-1.97,11.85-3.33h0c.81-.28,1.62-.57,2.42-.88h0c3.66-1.39,7.23-2.99,10.69-4.81,.49-.26,.98-.52,1.47-.79,.26-.14,.52-.28,.77-.43,.73-.41,1.46-.83,2.18-1.25,.21-.12,.41-.25,.62-.37,3.52-2.12,6.91-4.46,10.14-7.01,.51-.4,1.01-.8,1.51-1.21,.16-.14,.33-.27,.49-.41,2.77-2.3,5.42-4.75,7.92-7.34,.21-.22,.41-.44,.62-.65,.17-.17,.33-.35,.5-.53,.28-.3,.55-.6,.83-.9,.18-.19,.35-.38,.53-.58,.04-.04,.08-.09,.12-.14,.43-.48,.85-.96,1.27-1.44,.21-.24,.42-.49,.62-.73h0c2.65-3.16,5.11-6.48,7.34-9.94h0c.05-.07,.09-.14,.14-.22,.37-.58,.74-1.16,1.1-1.75,.04-.07,.08-.14,.13-.21h0c1.39-2.29,2.69-4.63,3.89-7.03,.54-1.08,1.06-2.18,1.56-3.28h0l.07-.16c.13-.29,.26-.58,.39-.87,.13-.29,.25-.58,.38-.87l.63-1.49c.09-.22,.17-.43,.26-.64,.08-.22,.17-.43,.26-.64,.08-.22,.17-.43,.25-.65,1.48-3.86,2.72-7.81,3.71-11.82h0c.21-.83,.4-1.67,.58-2.51h0c.43-1.99,.81-3.99,1.12-6.01,.28-1.82,.51-3.64,.69-5.47h0l.06-.6c0-.08,.02-.17,.02-.25,.03-.27,.05-.53,.07-.8,.03-.3,.05-.61,.07-.91,0,0,0-.01,0-.02,.08-1.07,.14-2.13,.18-3.2h0c.17-4.14,.07-8.29-.29-12.42h0c-.03-.3-.05-.59-.08-.89-.03-.34-.07-.69-.11-1.03-.01-.11-.03-.23-.04-.34-.01-.1-.02-.2-.03-.3h0c-.15-1.3-.32-2.6-.53-3.9-.39-2.52-.88-5.03-1.48-7.51-.04-.15-.07-.3-.11-.45-.07-.31-.15-.62-.23-.92-.03-.15-.07-.29-.11-.44-.07-.26-.13-.53-.2-.79-.16-.61-.33-1.21-.5-1.82-1.26-4.39-2.83-8.69-4.69-12.86-.15-.34-.31-.68-.47-1.03-.16-.35-.32-.7-.49-1.04-.02-.04-.04-.09-.06-.13-.02-.04-.04-.09-.06-.13h0c-.23-.47-.46-.95-.7-1.42-1.48-2.98-3.12-5.87-4.9-8.69-.73,.49-1.46,.99-2.2,1.48,1.28,2.02,2.47,4.08,3.59,6.18,.62,1.17,1.22,2.36,1.79,3.55,.37,.77,.73,1.55,1.08,2.33,1.64,3.66,3.04,7.42,4.2,11.26,.56,1.85,1.07,3.71,1.51,5.59,.38,1.58,.72,3.18,1.01,4.78,.38,2.06,.69,4.13,.93,6.22,.1,.85,.19,1.7,.26,2.56,.35,3.98,.45,7.99,.3,11.98-.07,1.93-.2,3.86-.39,5.78-.09,.91-.19,1.83-.31,2.74-.36,2.8-.84,5.57-1.44,8.32-.19,.84-.38,1.67-.58,2.51-.95,3.87-2.15,7.68-3.58,11.4-.69,1.8-1.44,3.58-2.24,5.33-.13,.28-.26,.56-.39,.84-1.46,3.12-3.09,6.15-4.89,9.09-.45,.73-.9,1.46-1.37,2.18-2.16,3.33-4.53,6.53-7.09,9.57-.94,1.12-1.92,2.22-2.91,3.3-.31,.34-.63,.68-.95,1.01-2.59,2.72-5.34,5.29-8.23,7.69-.66,.55-1.33,1.09-2,1.62-3.11,2.45-6.38,4.71-9.77,6.76-.5,.3-.99,.59-1.5,.88-1.17,.68-2.35,1.33-3.55,1.96-3.34,1.75-6.78,3.3-10.3,4.65-.7-1.93-1.41-3.86-2.11-5.8,3.21-1.22,6.35-2.63,9.4-4.22-.43-.77-.86-1.53-1.29-2.3-2.92,1.52-5.93,2.88-9,4.06-.8,.31-1.61,.61-2.42,.89-.32,.11-.64,.22-.96,.33-2.96,1-5.98,1.83-9.03,2.51,.15,.85,.31,1.71,.47,2.56,3.53-.77,7.01-1.75,10.42-2.94,.71,1.93,1.41,3.87,2.12,5.8-3.55,1.25-7.18,2.29-10.86,3.11-.19,.04-.37,.08-.56,.12-1.89,.41-3.78,.76-5.69,1.05-3.73,.57-7.5,.92-11.27,1.04-.86,.03-1.71,.04-2.57,.05-3.1,.02-6.2-.12-9.28-.4-.86-.08-1.72-.17-2.57-.27-1.92-.23-3.82-.52-5.72-.86-3.71-.67-7.39-1.57-11-2.67,.64-1.97,1.27-3.94,1.91-5.91,3.29,1,6.64,1.81,10.02,2.43,1.9,.34,3.81,.63,5.73,.86,3.59,.42,7.19,.63,10.8,.62,.86,0,1.71-.02,2.57-.04,3.44-.11,6.87-.42,10.28-.92-.15-.85-.31-1.7-.46-2.55-3.27,.49-6.56,.79-9.86,.9-.03-1.73-.06-3.46-.1-5.19,0-.34-.01-.68-.02-1.02,2.97-.1,5.93-.36,8.86-.79,1.22-.18,2.44-.38,3.65-.62,.68-.13,1.36-.27,2.04-.42,3.04-.67,6.04-1.52,8.98-2.54,.81-.28,1.62-.57,2.42-.88,2.77-1.06,5.47-2.27,8.11-3.63,.51-.26,1.02-.53,1.53-.81,1.19-.65,2.36-1.32,3.51-2.03,2.66-1.63,5.23-3.41,7.68-5.33,.69,.86,1.39,1.72,2.09,2.58,.6,.74,1.19,1.47,1.79,2.21-.86,.68-1.73,1.33-2.61,1.97-1.92,1.4-3.9,2.71-5.93,3.94,.43,.77,.86,1.54,1.29,2.3,3.09-1.87,6.07-3.93,8.91-6.17,.68-.53,1.34-1.07,2-1.62,2.5-2.07,4.87-4.28,7.12-6.61,.13-.13,.26-.27,.38-.4,1.33-1.4,2.62-2.84,3.86-4.32,2.32-2.78,4.47-5.71,6.44-8.75,.47-.72,.92-1.44,1.36-2.18,1.26-2.08,2.44-4.21,3.53-6.39,.44-.88,.87-1.77,1.28-2.66-.8-.34-1.6-.67-2.4-1.01-1.37,2.98-2.91,5.88-4.62,8.67-.44,.73-.9,1.46-1.37,2.18-1.01,1.56-2.07,3.08-3.18,4.57-.97,1.3-1.97,2.57-3.02,3.82-1.24,1.48-2.53,2.92-3.86,4.31-2.27,2.37-4.68,4.62-7.2,6.72-1.08-1.33-2.16-2.67-3.24-4.01-.21-.26-.42-.52-.63-.78,2.24-1.87,4.38-3.86,6.4-5.96,.03-.03,.05-.05,.08-.08-.65-.58-1.31-1.17-1.96-1.75-1.95,2.03-4.01,3.95-6.17,5.75-.66,.55-1.32,1.09-2,1.62-.73,.57-1.47,1.13-2.22,1.67-1.65,1.2-3.35,2.33-5.09,3.4-1.65,1.01-3.33,1.96-5.04,2.84-2.51,1.29-5.09,2.45-7.72,3.47-.71-1.94-1.41-3.87-2.12-5.81,2.32-.9,4.6-1.92,6.81-3.06-.39-.69-.78-1.39-1.17-2.08-.04-.07-.08-.14-.12-.21-2.09,1.07-4.24,2.03-6.43,2.87-.08-.21-.15-.41-.23-.61-.63-1.73-1.26-3.45-1.89-5.18,1.88-.73,3.72-1.56,5.52-2.46,1.72-.87,3.41-1.82,5.04-2.85,1.8-1.12,3.55-2.34,5.22-3.64,1.29,1.6,2.59,3.2,3.89,4.8-.77,.6-1.55,1.18-2.34,1.75-1.22,.87-2.47,1.7-3.74,2.49,.43,.76,.85,1.52,1.28,2.28,2.23-1.38,4.39-2.87,6.45-4.48,.68-.53,1.34-1.06,2-1.61,1.73-1.45,3.39-2.98,4.98-4.58,.16-.16,.31-.32,.47-.48,1.35-1.39,2.63-2.83,3.85-4.32,1.67-2.04,3.23-4.16,4.66-6.37,1.75,1.1,3.5,2.19,5.25,3.29-.88,1.34-1.79,2.66-2.75,3.95-.82,1.1-1.67,2.19-2.55,3.25,.65,.58,1.3,1.16,1.96,1.75,2-2.41,3.85-4.93,5.56-7.56,.47-.72,.92-1.45,1.36-2.18,1.13-1.86,2.17-3.76,3.14-5.7,.34-.69,.68-1.39,1-2.09,.81-1.75,1.55-3.53,2.23-5.34,1.11-2.94,2.04-5.94,2.8-8.98,1.13,.26,2.25,.53,3.38,.79,.89,.21,1.79,.42,2.68,.62-.61,2.45-1.32,4.88-2.14,7.27-.31,.91-.64,1.81-.98,2.71,.8,.33,1.59,.67,2.39,1.01,1.29-3.4,2.38-6.87,3.25-10.4,.2-.83,.4-1.67,.58-2.51,.38-1.75,.71-3.52,.98-5.29,.25-1.59,.45-3.18,.61-4.78,.19-1.92,.33-3.85,.4-5.78,.13-3.65,.05-7.3-.26-10.93-.07-.85-.16-1.71-.26-2.56-.14-1.18-.3-2.36-.48-3.54-.34-2.17-.76-4.33-1.27-6.47-.84,.23-1.68,.45-2.52,.68,.74,3.17,1.3,6.37,1.68,9.6,.1,.85,.19,1.71,.26,2.56,.27,3.07,.37,6.15,.31,9.23,0,.42-.02,.85-.04,1.27-.07,1.93-.2,3.86-.4,5.78-.33,3.25-.84,6.47-1.54,9.66-1.69-.39-3.38-.79-5.07-1.18-.33-.08-.66-.15-.99-.23,.34-1.59,.64-3.2,.88-4.81,.2-1.28,.36-2.57,.5-3.86-.86-.06-1.71-.11-2.57-.17-.29,2.78-.73,5.54-1.32,8.27-.18,.84-.37,1.67-.58,2.5-.54,2.16-1.17,4.31-1.9,6.41-.25,.72-.5,1.44-.77,2.15-.68,1.81-1.43,3.58-2.25,5.33-1.18,2.54-2.5,5.02-3.96,7.42-1.75-1.1-3.5-2.19-5.25-3.29,1.27-2.12,2.43-4.3,3.48-6.54-.72-.31-1.45-.61-2.17-.92-.07-.03-.15-.06-.22-.09-1,2.11-2.1,4.16-3.31,6.16-.44,.73-.9,1.46-1.37,2.18-1.36,2.08-2.83,4.08-4.41,6-1.22,1.49-2.51,2.94-3.86,4.32-1.63,1.68-3.34,3.28-5.14,4.78-.13-.16-.26-.33-.39-.49-1.16-1.44-2.32-2.87-3.49-4.31,1.54-1.29,3.01-2.66,4.42-4.09-.65-.59-1.31-1.17-1.96-1.75-1.31,1.33-2.68,2.61-4.11,3.81-.65,.56-1.32,1.1-2,1.62-.57,.44-1.15,.88-1.74,1.3-1.02,.73-2.06,1.43-3.12,2.1-1.64,1.03-3.32,1.98-5.05,2.84-1.68,.84-3.4,1.6-5.14,2.29-.8,.31-1.6,.61-2.42,.88-1.86,.64-3.76,1.19-5.68,1.64-1.88,.44-3.78,.8-5.69,1.06-1.86,.25-3.74,.42-5.63,.5-.58,.02-1.17,.04-1.75,.04-.27,0-.55,0-.83,0-1.97,0-3.94-.11-5.9-.31-1.92-.2-3.83-.49-5.72-.87-1.85-.37-3.68-.82-5.48-1.36,.64-1.97,1.27-3.93,1.9-5.9,1.49,.44,2.99,.81,4.51,1.12,.13-.85,.26-1.7,.39-2.55-1.38-.29-2.75-.63-4.11-1.03-.82-.24-1.64-.5-2.45-.79-1.4-.49-2.77-1.03-4.12-1.64-1.76-.79-3.48-1.68-5.14-2.67-1.08-.64-2.14-1.32-3.17-2.05-.12-.08-.24-.17-.36-.26-.7-.5-1.38-1.02-2.06-1.55-1.16-.92-2.29-1.89-3.37-2.91-1.4-1.33-2.73-2.73-3.98-4.2-.91-1.07-1.77-2.17-2.59-3.31,1.7-1.16,3.41-2.32,5.11-3.48,.63,.87,1.28,1.71,1.97,2.52,.63-.6,1.26-1.2,1.89-1.8-.59-.71-1.16-1.44-1.7-2.2-.51-.69-.99-1.4-1.45-2.12-.54-.84-1.05-1.7-1.52-2.57-.92-1.69-1.74-3.45-2.42-5.26-.07-.18-.14-.36-.2-.54-.25-.68-.48-1.37-.69-2.07-.25-.82-.48-1.65-.68-2.48-.24-.98-.44-1.97-.61-2.97-.32-1.9-.51-3.83-.56-5.76-.03-.91-.03-1.81,0-2.72l3.45,.22c.92,.06,1.83,.12,2.75,.18-.02,.57-.02,1.14-.01,1.71,.03,1.93,.22,3.86,.56,5.76,.11,.65,.25,1.29,.4,1.93,.19,.83,.42,1.66,.68,2.48,.17,.56,.36,1.11,.56,1.66,.66,1.81,1.47,3.57,2.41,5.26,.32,.57,.65,1.12,.99,1.67,.46,.72,.94,1.43,1.45,2.12,.35,.48,.72,.95,1.09,1.41,1.22,1.5,2.56,2.9,3.99,4.19,.47,.43,.95,.84,1.45,1.24,.67,.54,1.36,1.06,2.06,1.55,.49,.34,.99,.67,1.5,.99,1.04,.65,2.11,1.25,3.21,1.78,.64,.31,1.28,.6,1.93,.88,.58,.24,1.17,.47,1.76,.68,.81,.29,1.63,.55,2.45,.78,.58,.17,1.17,.32,1.75,.45,1.89,.43,3.8,.72,5.73,.85,.63,.04,1.25,.07,1.88,.08,.86,.02,1.72,0,2.57-.04,.6-.03,1.2-.08,1.8-.14,.78-.08,1.55-.18,2.32-.31,1.13-.19,2.26-.44,3.37-.74,.61-.16,1.21-.34,1.81-.54,.82-.26,1.62-.56,2.42-.89,.55-.23,1.1-.46,1.65-.72,1.75-.81,3.44-1.77,5.04-2.85,.53-.35,1.04-.72,1.55-1.1,1.09,1.35,2.17,2.69,3.26,4.03,.21,.26,.42,.53,.64,.79-.36,.28-.72,.55-1.1,.81-.43,.31-.87,.61-1.31,.9-1.62,1.06-3.3,2.01-5.04,2.84-.84,.4-1.69,.77-2.56,1.12-.8,.32-1.6,.61-2.42,.88-.93,.31-1.87,.59-2.81,.83,.15,.86,.31,1.71,.47,2.57,1.09-.27,2.17-.59,3.24-.95,.71,1.93,1.41,3.87,2.12,5.81-1.4,.47-2.81,.89-4.24,1.24-1.88,.46-3.78,.81-5.69,1.06-1.4,.18-2.8,.3-4.21,.36-.04-2.07-.08-4.14-.12-6.21,1.07-.05,2.15-.13,3.22-.26-.15-.85-.31-1.7-.46-2.55-.93,.11-1.86,.19-2.8,.23-.62,.03-1.25,.05-1.87,.05-.23,0-.47,0-.71,0-.98-.01-1.95-.06-2.93-.14-1.93-.16-3.84-.44-5.72-.86-.91-.2-1.82-.43-2.72-.69-.83-.23-1.64-.5-2.45-.79-.92-.33-1.84-.69-2.73-1.08-1.77-.77-3.49-1.66-5.14-2.66-.8-.49-1.58-1-2.35-1.54-.03-.02-.06-.04-.09-.06-.67-.48-1.33-.97-1.97-1.48-.77-.62-1.52-1.26-2.25-1.93-.63,.6-1.26,1.19-1.89,1.79,.83,.77,1.69,1.51,2.58,2.22,.67,.54,1.36,1.05,2.06,1.55,.88,.62,1.78,1.21,2.7,1.77,1.4,.84,2.84,1.61,4.32,2.3,.27,.12,.54,.25,.81,.37,1.03,.45,2.08,.86,3.15,1.24,.81,.29,1.63,.55,2.45,.78,1.03,.3,2.08,.56,3.13,.79,1.89,.41,3.8,.69,5.73,.85,1.12,.1,2.24,.15,3.37,.16,.04,2.07,.08,4.15,.12,6.22-1.48-.01-2.95-.08-4.42-.22-.11,.75-.23,1.5-.34,2.25-.02,.1-.03,.2-.05,.3,1.61,.15,3.23,.24,4.85,.25,.86,0,1.71,0,2.57-.04,1.55-.06,3.1-.19,4.63-.39,1.15-.15,2.29-.33,3.43-.55,.76-.15,1.51-.31,2.26-.49,1.58-.38,3.14-.83,4.67-1.35,.81-.28,1.62-.57,2.42-.89,1.44-.57,2.85-1.19,4.23-1.88-.43-.76-.85-1.52-1.28-2.28-1.26,.62-2.54,1.19-3.85,1.7-.7-1.94-1.41-3.87-2.12-5.81,.99-.4,1.97-.83,2.94-1.3,1.74-.84,3.42-1.79,5.04-2.85,.95-.61,1.87-1.27,2.77-1.95,.68-.52,1.35-1.06,2-1.62,.81-.69,1.59-1.41,2.35-2.15,.16-.15,.32-.31,.47-.47,1.2-1.22,2.33-2.5,3.38-3.84,.7-.9,1.37-1.82,2-2.77,.48-.71,.93-1.44,1.36-2.18,.53-.91,1.03-1.83,1.5-2.78,.86-1.73,1.61-3.51,2.24-5.34,.38-1.09,.71-2.19,1-3.3,.22-.83,.41-1.67,.58-2.51,.13-.65,.25-1.31,.36-1.97,.06-.36,.11-.73,.16-1.1-.86-.06-1.72-.12-2.58-.18-.12,.89-.27,1.78-.45,2.66-.17,.84-.36,1.68-.58,2.51-.26,.97-.54,1.93-.87,2.88-.05,.14-.1,.28-.15,.42-.6,1.68-1.3,3.32-2.1,4.91-.41,.82-.85,1.62-1.31,2.4-.43,.74-.89,1.47-1.37,2.18-.55,.82-1.13,1.63-1.74,2.41-1.18,1.52-2.47,2.97-3.85,4.32-.66,.65-1.34,1.27-2.04,1.87-.72-.89-1.45-1.79-2.17-2.69-.57-.71-1.15-1.42-1.73-2.13,.45-.39,.88-.79,1.31-1.19,.03-.03,.05-.05,.08-.08,1.37-1.32,2.63-2.74,3.77-4.25,.39-.51,.76-1.03,1.12-1.57,.48-.71,.93-1.44,1.36-2.18,.29-.5,.57-1.01,.83-1.52,.89-1.71,1.63-3.5,2.24-5.34,.2-.62,.39-1.25,.56-1.87,.22-.79,.4-1.59,.56-2.39,0-.04,.01-.08,.02-.11,.11-.56,.2-1.11,.29-1.67,.28-1.92,.41-3.85,.39-5.78,0-.67-.03-1.33-.07-2-.05-.86-.14-1.71-.25-2.56-.08-.55-.16-1.1-.26-1.64-.34-1.9-.84-3.77-1.49-5.6-.23-.64-.48-1.27-.74-1.9-.08-.2-.17-.39-.25-.59-.26-.59-.54-1.17-.83-1.74-.24-.48-.5-.96-.77-1.43-.95-1.68-2.03-3.29-3.23-4.8-.43-.54-.87-1.07-1.33-1.58-.57-.64-1.16-1.26-1.77-1.86-.38-.37-.77-.74-1.17-1.09-1.44-1.29-2.98-2.47-4.61-3.51-.26-.17-.52-.33-.79-.49-.33-.2-.67-.4-1.01-.58-.75-.42-1.51-.81-2.29-1.17-.48-.23-.96-.44-1.45-.64-1.78-.75-3.62-1.35-5.5-1.8-.68-.17-1.37-.31-2.06-.44l.91-6.16c1.04,.19,2.07,.41,3.09,.67,.26-.82,.53-1.64,.8-2.46-1.16-.3-2.33-.56-3.52-.76-.84-.15-1.69-.28-2.54-.38-.99-.12-1.99-.21-2.99-.26-1.93-.11-3.86-.09-5.79,.05-.53,.04-1.05,.09-1.57,.15-.67,.07-1.34,.16-2.01,.27-.38-2.03-.76-4.06-1.13-6.09,1.53-.25,3.07-.43,4.62-.54,0-.76-.02-1.53-.03-2.3,0-.1,0-.2,0-.3-1,.06-2,.16-3,.28-.69,.08-1.38,.18-2.06,.29-.85,.14-1.69,.29-2.53,.47-1.44,.3-2.88,.67-4.29,1.1-1.85,.56-3.67,1.21-5.45,1.96-1.56,.66-3.09,1.39-4.59,2.19-.76,.41-1.5,.83-2.24,1.27-1.27,.76-2.52,1.58-3.72,2.44-1.51,1.08-2.96,2.23-4.35,3.46-.06,.05-.11,.1-.17,.15-1.27,1.12-2.47,2.31-3.62,3.54-.16-.14-.32-.28-.48-.43-1.38-1.22-2.76-2.44-4.14-3.67,1.38-1.49,2.84-2.92,4.37-4.27-.55-.68-1.1-1.37-1.65-2.05-1.65,1.44-3.22,2.97-4.69,4.58-.58,.63-1.15,1.27-1.71,1.93-1.27,1.5-2.48,3.06-3.6,4.67-1.11,1.58-2.14,3.21-3.1,4.89-1.08,1.89-2.06,3.83-2.93,5.82-1.91-.79-3.83-1.59-5.74-2.39,1.02-2.31,2.16-4.57,3.43-6.75,.97-1.67,2-3.3,3.11-4.88,1.31-1.89,2.72-3.71,4.22-5.45,.56-.65,1.13-1.29,1.71-1.92,1.72-1.86,3.53-3.63,5.45-5.3,1.45-1.27,2.96-2.48,4.52-3.62,1.66-1.22,3.37-2.37,5.13-3.44,.2-.12,.39-.23,.59-.35,.45,.79,.9,1.59,1.35,2.38,.57,1,1.14,2,1.7,3.01-1.68,1-3.32,2.07-4.9,3.22,.55,.68,1.09,1.36,1.64,2.04,1.28-.93,2.61-1.81,3.96-2.64,.19-.12,.39-.24,.58-.35,.74-.44,1.48-.86,2.24-1.27,1.8-.97,3.65-1.85,5.54-2.63,1.78-.74,3.61-1.39,5.45-1.95,1.73-.53,3.48-.98,5.25-1.35,.84-.18,1.68-.34,2.53-.47,2.02-.34,4.06-.57,6.1-.7,1.93-.12,3.86-.15,5.79-.08,.62,.02,1.25,.05,1.87,.09,1.18,.08,2.36,.19,3.53,.34l-.91,6.16c-1.46-.18-2.93-.31-4.4-.37,.01,.86,.02,1.72,.04,2.58,.47,.02,.94,.05,1.4,.08,.86,.06,1.73,.15,2.58,.25,.85,.11,1.7,.23,2.54,.38,1.53,.27,3.04,.6,4.54,1,1.87,.5,3.7,1.11,5.5,1.81,1.24,.49,2.47,1.02,3.67,1.61-.95,1.83-1.89,3.67-2.84,5.5-.91-.43-1.82-.83-2.75-1.21-.27,.83-.54,1.65-.81,2.47,.8,.32,1.59,.67,2.36,1.05,.77,.37,1.54,.76,2.29,1.18,.92,.51,1.81,1.05,2.69,1.63,1.27,.83,2.5,1.74,3.68,2.71,.31,.26,.62,.52,.93,.79,.65,.57,1.29,1.16,1.9,1.77,.61,.6,1.2,1.22,1.77,1.86,.69,.77,1.36,1.57,2,2.39,1.18,1.52,2.26,3.13,3.23,4.8,.44,.76,.86,1.53,1.25,2.31,.38,.77,.75,1.54,1.08,2.33,.41,.95,.78,1.9,1.11,2.88,.21,.59,.4,1.19,.58,1.79,.37,1.25,.68,2.52,.93,3.79,.17,.87,.31,1.75,.43,2.63,.11,.85,.2,1.7,.26,2.56,.07,1.01,.11,2.03,.11,3.05,.86,.06,1.72,.11,2.58,.17,0-1.16-.04-2.32-.12-3.48,2.06-.21,4.12-.42,6.19-.63,.11,1.51,.16,3.02,.14,4.54-.02,1.93-.15,3.86-.39,5.78-.17,1.36-.39,2.72-.67,4.06-.17,.84-.37,1.68-.58,2.51-.38,1.45-.82,2.89-1.32,4.3h0c-.65,1.82-1.4,3.6-2.25,5.33-.61,1.25-1.27,2.46-1.98,3.65-.44,.74-.9,1.46-1.37,2.18-.83,1.24-1.7,2.44-2.63,3.61-1.2,1.51-2.49,2.95-3.85,4.32-.98,.99-2.01,1.94-3.07,2.84-.65,.56-1.32,1.1-2,1.62-.53,.4-1.06,.8-1.61,1.19-.67,.47-1.34,.92-2.03,1.36,.38,.67,.76,1.35,1.13,2.02,.05,.09,.1,.17,.14,.26,1.37-.87,2.71-1.81,4-2.8,.68-.52,1.35-1.06,2-1.62,1.17-.99,2.3-2.04,3.39-3.12,.24-.24,.47-.48,.7-.72,1.11-1.15,2.16-2.35,3.15-3.6,1.02-1.28,1.98-2.61,2.88-3.97l.55,.34c1.56,.98,3.12,1.96,4.69,2.94-1.09,1.66-2.27,3.26-3.52,4.8,.66,.59,1.31,1.17,1.97,1.75,1.35-1.66,2.61-3.39,3.77-5.17,.47-.72,.92-1.45,1.36-2.18,1.02-1.72,1.97-3.48,2.82-5.29,.83-1.74,1.57-3.52,2.23-5.33,.74-2.01,1.37-4.06,1.9-6.14,.21-.83,.41-1.67,.58-2.51,.24-1.12,.45-2.25,.62-3.39,.13-.83,.24-1.65,.33-2.48,.22-1.92,.35-3.85,.39-5.78,.05-2.16-.02-4.31-.19-6.46-.07-.86-.15-1.71-.26-2.56-.24-1.96-.57-3.9-.99-5.83-.83,.23-1.67,.45-2.5,.68,.39,1.79,.7,3.6,.92,5.42,.1,.85,.19,1.7,.26,2.56,.16,2,.22,4.01,.18,6.02-.04,1.93-.17,3.86-.39,5.78-.21,1.83-.51,3.65-.88,5.46-.18,.84-.37,1.68-.58,2.51-.42,1.68-.92,3.33-1.49,4.97-.09,.25-.18,.51-.27,.76-.66,1.82-1.41,3.59-2.25,5.33-.8,1.68-1.69,3.32-2.65,4.91-1.75-1.1-3.5-2.19-5.25-3.29,.78-1.31,1.5-2.66,2.16-4.03,.84-1.74,1.59-3.52,2.23-5.33,.55-1.55,1.04-3.13,1.45-4.72,.22-.83,.41-1.66,.58-2.51,.22-1.04,.4-2.08,.56-3.13,.07-.45,.12-.89,.18-1.34,.23-1.92,.36-3.85,.39-5.77,.02-1.66-.03-3.32-.16-4.97-.06-.86-.15-1.71-.26-2.56-.18-1.49-.43-2.97-.74-4.43-.39-1.89-.89-3.76-1.49-5.6-.52-1.59-1.11-3.15-1.78-4.69-.34-.79-.7-1.57-1.08-2.34-.06-.13-.13-.26-.2-.4-.6-1.2-1.25-2.37-1.94-3.52-.99-1.66-2.08-3.26-3.24-4.8-1.01-1.35-2.09-2.64-3.22-3.88,.15-.14,.29-.28,.44-.42,1.34-1.28,2.68-2.57,4.02-3.85,1.37,1.5,2.67,3.07,3.88,4.7,1.15,1.55,2.23,3.15,3.23,4.8,.95,1.55,1.82,3.15,2.62,4.79,.38,.77,.74,1.55,1.08,2.33,.81,1.85,1.53,3.74,2.16,5.67,.84-.23,1.68-.45,2.52-.68-.65-2.07-1.42-4.1-2.29-6.09,1.87-.86,3.73-1.72,5.6-2.58,1.02,2.3,1.91,4.66,2.67,7.07,.19,.59,.36,1.18,.53,1.77,.36,1.26,.69,2.53,.97,3.82,.51,2.25,.9,4.53,1.17,6.81,.1,.85,.19,1.71,.26,2.56,.21,2.5,.28,5.01,.21,7.51-.05,1.93-.18,3.86-.39,5.78-.25,2.31-.62,4.6-1.1,6.86-.18,.84-.37,1.68-.58,2.51-.53,2.12-1.17,4.21-1.9,6.27-.1,.29-.21,.58-.32,.87,.79,.34,1.58,.67,2.37,1,.92-2.47,1.71-4.99,2.35-7.56,.21-.83,.4-1.67,.58-2.51,.26-1.21,.49-2.42,.68-3.64,.19-1.21,.36-2.42,.49-3.63,.21-1.92,.34-3.85,.39-5.78,.07-2.65,0-5.31-.22-7.95,2.07-.21,4.13-.42,6.19-.63,.24,2.76,.32,5.53,.26,8.3,0,.23-.01,.47-.02,.7,.86,.06,1.71,.12,2.57,.18,.1-3.15,.03-6.3-.24-9.44-.07-.86-.15-1.71-.26-2.56-.12-1.03-.26-2.05-.42-3.08-.29-1.86-.65-3.71-1.07-5.55-.43-1.88-.93-3.75-1.5-5.59-.93-3.02-2.04-5.99-3.32-8.88-.34-.79-.71-1.56-1.08-2.34-.15-.3-.29-.6-.44-.9-1.15-2.3-2.4-4.55-3.76-6.73-1.02-1.64-2.1-3.24-3.24-4.8-1.87-2.57-3.89-5.03-6.04-7.36,.82-.78,1.63-1.56,2.45-2.34,.67-.64,1.34-1.28,2.01-1.92,2.4,2.58,4.63,5.31,6.7,8.16,.61,.84,1.21,1.7,1.79,2.57,.49,.74,.98,1.48,1.45,2.23,1.72,2.75,3.29,5.58,4.69,8.5,.37,.77,.73,1.55,1.08,2.34,1.43,3.21,2.66,6.5,3.7,9.86,.84-.23,1.68-.45,2.52-.68-1.06-3.5-2.34-6.94-3.83-10.29-.35-.79-.71-1.56-1.08-2.34-.19-.4-.39-.81-.59-1.21-1.31-2.62-2.75-5.18-4.31-7.66-1.03-1.63-2.11-3.23-3.24-4.8-2.15-2.98-4.48-5.82-6.98-8.51-.34-.37-.69-.74-1.04-1.11-.24-.25-.49-.5-.73-.76-2.37-2.4-4.87-4.67-7.49-6.79-.53,.7-1.06,1.4-1.58,2.1,2.51,2.04,4.9,4.22,7.16,6.52-1.26,1.2-2.51,2.4-3.77,3.61-.23,.22-.45,.43-.68,.65-2.03-2.06-4.18-4.02-6.43-5.85-1.5-1.22-3.03-2.39-4.62-3.49-2.42-1.7-4.94-3.27-7.53-4.69-.2-.11-.39-.22-.59-.32-.76-.4-1.52-.8-2.29-1.18-2.59-1.29-5.26-2.43-7.97-3.42-.27,.82-.53,1.64-.8,2.46,.36,.13,.72,.27,1.08,.41,2.21,.85,4.38,1.81,6.5,2.87,.77,.38,1.53,.77,2.28,1.18,2.67,1.44,5.26,3.04,7.75,4.78,1.42,1,2.81,2.04,4.16,3.14,.15,.12,.3,.24,.45,.37,2.13,1.75,4.17,3.61,6.11,5.57,.6,.61,1.19,1.23,1.78,1.86,2.05,2.22,3.98,4.56,5.76,7.01,.59,.81,1.17,1.63,1.72,2.46,.52,.77,1.02,1.55,1.51,2.34,1.46,2.35,2.8,4.78,4,7.27,.37,.77,.73,1.55,1.08,2.34,1.22,2.76,2.29,5.58,3.18,8.46,.09,.3,.18,.59,.27,.89,.46,1.55,.88,3.12,1.24,4.7,.62,2.71,1.1,5.45,1.43,8.21-2.06,.21-4.12,.42-6.19,.63-.29-2.43-.7-4.84-1.24-7.23-.42-1.88-.92-3.75-1.49-5.59-.79-2.54-1.72-5.04-2.8-7.49-.34-.78-.7-1.56-1.08-2.33l-.3-.61c-.98-1.98-2.06-3.91-3.22-5.78-1.01-1.64-2.1-3.25-3.24-4.8-1.59-2.16-3.29-4.23-5.11-6.2-.58-.63-1.17-1.25-1.78-1.86-1.7-1.73-3.49-3.37-5.37-4.91-1.49-1.23-3.03-2.4-4.61-3.5-2.08-1.45-4.23-2.79-6.46-4-.13-.08-.27-.15-.41-.22-.76-.41-1.52-.8-2.29-1.18-2.17-1.07-4.4-2.02-6.67-2.87-1.81-.67-3.64-1.27-5.5-1.79-2.59-.73-5.22-1.32-7.87-1.76l.91-6.16c3,.49,5.98,1.16,8.9,2l.8-2.46c-2.31-.67-4.65-1.23-7.02-1.68-.77-.15-1.54-.28-2.31-.41l.91-6.16c3.49,.57,6.95,1.35,10.35,2.34,1.85,.54,3.69,1.14,5.5,1.8,.51,.19,1.02,.38,1.52,.57,2.51,.97,4.96,2.05,7.37,3.26,.77,.38,1.53,.78,2.28,1.18,3.11,1.67,6.12,3.54,9,5.58,.53-.7,1.06-1.4,1.58-2.09-2.82-1.99-5.75-3.82-8.78-5.47-.21-.11-.41-.22-.61-.33-.76-.4-1.52-.8-2.28-1.18-3.01-1.5-6.11-2.83-9.28-3.98-1.82-.66-3.65-1.26-5.5-1.8-2.7-.79-5.45-1.45-8.21-1.98-.85-.16-1.7-.31-2.56-.45-.85-.14-1.7-.26-2.54-.38h0c-3.34-.44-6.69-.7-10.05-.77-1.93-.04-3.86-.02-5.79,.07-2.19,.1-4.37,.28-6.54,.54-1.49,.18-2.97,.39-4.45,.65-.38-2.03-.76-4.06-1.14-6.09,.86-.15,1.72-.28,2.58-.41,3.13-.45,6.29-.75,9.45-.89,1.93-.09,3.86-.11,5.79-.08,3.7,.06,7.39,.34,11.05,.83h0c.85,.11,1.7,.24,2.54,.38,.08,.01,.15,.02,.23,.04,3.9,.64,7.77,1.52,11.56,2.64,1.85,.54,3.69,1.14,5.5,1.8,3.48,1.26,6.88,2.72,10.19,4.37,.28,.14,.56,.28,.83,.42,.49,.25,.97,.5,1.45,.76,3.56,1.9,6.98,4.03,10.27,6.37,1.57,1.12,3.11,2.29,4.61,3.5,2.53,2.04,4.95,4.21,7.26,6.5,.32,.32,.64,.64,.96,.96,.6,.61,1.19,1.23,1.78,1.86,2.73,2.95,5.29,6.06,7.63,9.32,.21-.14,.42-.28,.63-.42,.52-.35,1.04-.7,1.56-1.06-2.43-3.39-5.07-6.62-7.91-9.67-.17-.18-.34-.36-.51-.54-.2-.22-.41-.43-.62-.65-.22-.23-.43-.45-.65-.67h0c-2.69-2.75-5.55-5.33-8.54-7.74h0c-.4-.32-.8-.64-1.21-.95-.25-.19-.49-.38-.74-.57-.19-.14-.37-.28-.56-.42-.12-.09-.24-.18-.36-.27-.26-.2-.53-.4-.8-.59-.31-.23-.63-.46-.95-.69h0c-3.16-2.24-6.44-4.3-9.85-6.15-.27-.15-.53-.29-.8-.43-.04-.02-.07-.04-.11-.06-.72-.39-1.44-.76-2.17-1.12h0c-3.44-1.71-6.97-3.22-10.58-4.52,0,0,0,0,0,0-1.82-.65-3.65-1.25-5.51-1.8h0c-3.04-.89-6.12-1.64-9.23-2.23-1-.19-1.99-.37-2.99-.53-.07,0-.13-.02-.19-.03-.31-.05-.62-.1-.93-.14-.28-.04-.56-.08-.83-.12-.2-.03-.39-.06-.59-.08h0c-3.8-.51-7.63-.8-11.47-.87h0c-.07,0-.14,0-.21,0-.81-.01-1.63-.02-2.44,0-.81,0-1.61,.02-2.42,.05-.24,0-.48,.02-.72,.03-2.47,.1-4.95,.3-7.41,.59-1.7,.2-3.38,.45-5.06,.74-.42,.07-.84,.15-1.26,.23-.07,.01-.14,.03-.21,.04-.32,.06-.64,.13-.97,.19-.03,0-.06,0-.09,.02-1.88,.38-3.76,.81-5.62,1.29-1.86,.49-3.7,1.03-5.53,1.62h0c-.07,.02-.13,.04-.2,.06-.07,.02-.13,.04-.2,.07-.57,.19-1.14,.38-1.71,.58-.21,.08-.42,.15-.63,.23-.91,.32-1.81,.66-2.71,1.02-1.6,.63-3.18,1.3-4.74,2.01-2.24,1.02-4.45,2.12-6.61,3.31-.01,0-.03,.02-.04,.03-.27,.15-.54,.3-.81,.45-.27,.15-.54,.3-.81,.46-.19,.11-.38,.22-.57,.33-3.32,1.94-6.53,4.08-9.6,6.4h0c-.16,.12-.32,.24-.48,.36-.99,.76-1.97,1.54-2.94,2.33-.16,.14-.32,.27-.48,.4-.13,.11-.27,.22-.4,.34-.08,.06-.15,.12-.22,.19h0c-.63,.53-1.25,1.07-1.86,1.62-2.5,2.23-4.88,4.59-7.14,7.07h0s-.06,.07-.09,.1c-.21,.23-.42,.46-.62,.69-.16,.18-.33,.37-.49,.55-.08,.09-.16,.18-.23,.27-.09,.1-.18,.21-.27,.31h0c-2.52,2.92-4.87,5.99-7.03,9.19h0c-.27,.4-.53,.8-.8,1.2-.11,.17-.23,.35-.34,.52-.45,.71-.9,1.41-1.33,2.13-.13,.22-.26,.44-.39,.66-.08,.13-.15,.25-.23,.38-2.12,3.58-4.01,7.3-5.66,11.12h0c-.34,.79-.67,1.58-.98,2.38h0c-1.44,3.59-2.66,7.27-3.66,11.01-.05,.19-.1,.37-.15,.55-.05,.2-.1,.39-.15,.59-.11,.42-.21,.84-.31,1.26-.06,.23-.11,.47-.17,.7-.14,.61-.28,1.23-.41,1.85-.04,.17-.07,.34-.11,.51-.01,.06-.02,.11-.03,.17-.84,4.07-1.42,8.18-1.74,12.32-.03,.34-.05,.69-.08,1.03-.02,.22-.03,.45-.04,.67-.02,.29-.04,.58-.05,.87-.2,3.88-.17,7.76,.09,11.64Z"/></svg>