<?xml version="1.0" encoding="UTF-8"?><svg id="Layer_1" xmlns="http://www.w3.org/2000/svg" viewBox="0 0 256 256"><defs><style>.cls-1{fill:#282828;}.cls-2{fill:#fefefe;fill-rule:evenodd;}.cls-3{fill:none;stroke:#7af5e7;stroke-linecap:square;stroke-width:3.72px;}</style></defs><rect class="cls-1" x="-.03" y="1" width="256" height="256" rx="25" ry="25"/><g id="Page-1"><g id="Artboard" transform="translate(-28.000000, -825.000000)"><g id="Group-9" transform="translate(28.000000, 826.000000)"><g id="Group-12"><g id="Group-13" transform="translate(0.000000, 0.750000)"><g id="Group-5" transform="translate(0.000000, 5.250000)"><path id="Fill-1" class="cls-2" d="M132.81,108.29v38.22h6.59v-32.01h19.87l-.19,32.01h6.59v-38.22h-32.87Zm-14.04,.09l-10.41,25.23-11.94-25.23h-7.26l15.86,33.06-6.36,14.55h7.36l19.64-47.61h-6.88Zm-88.38,.1v38.22h6.59v-32.01h16.43l-.09,32.01h6.59v-32.01h16.34v32.01h6.59v-38.22H30.39Z"/><polygon id="Fill-2" class="cls-2" points="88.23 149.41 88.23 156 104.77 156 101.79 150.05 101.79 149.41 88.23 149.41"/><path id="Fill-3" class="cls-2" d="M211.64,129.4v-1.72c0-4.59-1.1-8.55-3.3-11.9-2.2-3.34-5.05-5.75-8.55-7.21h-14.52c-3.44,1.47-6.28,3.86-8.5,7.17-2.23,3.31-3.34,7.3-3.34,11.94,0,3.06,.51,5.84,1.53,8.36,1.02,2.52,2.39,4.68,4.11,6.5,1.72,1.82,3.74,3.22,6.07,4.2,2.33,.99,4.79,1.48,7.41,1.48,1.72,0,3.54-.21,5.45-.62s3.71-1.08,5.4-2.01c1.69-.92,3.2-2.13,4.54-3.63,1.34-1.5,2.33-3.36,2.96-5.59h-6.59c-1.53,1.91-3.22,3.33-5.06,4.25-1.85,.92-4.08,1.38-6.69,1.38-1.72,0-3.33-.33-4.83-1-1.5-.67-2.79-1.58-3.87-2.72-1.09-1.15-1.98-2.49-2.68-4.01-.7-1.53-1.08-3.15-1.15-4.87h31.63Zm-31.05-6.02c.32-1.53,1-3.09,2.05-4.68,1.05-1.59,2.47-2.9,4.25-3.92h11.47c1.72,.96,3.09,2.21,4.11,3.78,1.02,1.56,1.72,3.17,2.1,4.83h-23.98Z"/></g><line id="Line-4" class="cls-3" x1="225.56" y1="99" x2="225.56" y2="154.76"/></g></g></g></g></g></svg>