<?xml version="1.0" encoding="UTF-8"?><svg id="Layer_1" xmlns="http://www.w3.org/2000/svg" xmlns:xlink="http://www.w3.org/1999/xlink" viewBox="0 0 256.24 256"><defs><style>.cls-1{fill:#f2f2f2;}.cls-2{fill:#d3d3d3;}.cls-3{fill:#414141;}.cls-4{fill:url(#radial-gradient);}</style><radialGradient id="radial-gradient" cx="128.24" cy="128" fx="128.24" fy="128" r="128" gradientUnits="userSpaceOnUse"><stop offset=".41" stop-color="#636466"/><stop offset="1" stop-color="#414141"/></radialGradient></defs><g><g><rect class="cls-2" width="256" height="256"/><rect x="10" y="10" width="236" height="236" rx="12" ry="12"/></g><rect class="cls-4" x=".24" y="0" width="256" height="256"/></g><g><g><path class="cls-3" d="M176.74,240.52c-3.13,0-6.27-.79-9.01-2.31-2.8-1.47-4.93-3.85-7.24-5.93l-13.71-12.76-27.42-25.52-54.93-50.96-13.72-12.76-3.43-3.19c-1.15-1.05-2.3-2.19-3.22-3.48-1.88-2.57-3.1-5.62-3.51-8.78-.84-6.32,1.6-13.01,6.49-17.17,2.39-2.11,5.4-3.49,8.42-4.3l8.95-2.75,71.62-22,71.64-22.01c3.11-.86,6.44-.96,9.59-.23,3.15,.73,6.1,2.28,8.51,4.42,2.42,2.13,4.33,4.85,5.46,7.88,1.14,3.03,1.47,6.35,1,9.54-.24,1.62-.65,3.11-.99,4.63l-1.05,4.56-2.11,9.13-4.21,18.25-17.15,72.93-8.57,36.47-2.14,9.12c-.37,1.51-.66,3.06-1.2,4.54-.53,1.48-1.23,2.9-2.1,4.21-3.46,5.29-9.71,8.51-15.98,8.46Zm0-.13c6.23,0,12.39-3.24,15.75-8.48,.85-1.3,1.53-2.7,2.04-4.16,.51-1.46,.79-3,1.15-4.52l2.07-9.13,8.29-36.53,16.55-73.07,4.22-18.25,2.11-9.13,1.05-4.56c.34-1.52,.75-3.05,.97-4.52,.44-2.98,.13-6.07-.93-8.89-1.05-2.82-2.83-5.36-5.09-7.36-2.26-2-5-3.45-7.94-4.12-2.94-.68-6.04-.59-8.94,.21l-71.67,21.76-71.68,21.81-8.96,2.73c-3.01,.8-5.81,2.09-8.13,4.12-4.69,3.96-7.06,10.39-6.27,16.46,.38,3.03,1.55,5.96,3.35,8.44,.89,1.26,1.96,2.33,3.12,3.39l3.42,3.2,13.68,12.79,54.67,51.24,27.37,25.58,13.69,12.79c2.31,2.08,4.42,4.46,7.19,5.92,2.72,1.52,5.83,2.3,8.94,2.31Z"/><path class="cls-3" d="M46.9,126.05l109.7,101.93,6.85,6.37c2.19,2.19,4.82,3.88,7.75,4.8,5.84,1.89,12.57,.57,17.31-3.31,2.37-1.93,4.24-4.46,5.39-7.29,.59-1.42,.94-2.89,1.28-4.43l1.05-4.56,4.19-18.24,16.75-72.98,8.36-36.49,4.18-18.25c.34-1.51,.72-3.05,1.02-4.55,.3-1.48,.42-2.99,.34-4.5-.13-3.01-1.05-5.98-2.64-8.54-3.14-5.15-8.91-8.64-14.96-8.76-1.5-.04-3.01,.1-4.49,.43-1.45,.33-2.95,.85-4.44,1.29l-8.95,2.74-35.8,10.95-71.69,21.6-17.92,5.4-8.96,2.7-4.48,1.35c-1.49,.46-3.01,.85-4.42,1.46-2.84,1.2-5.38,3.12-7.29,5.55-1.92,2.42-3.22,5.34-3.75,8.39-.55,3.05-.34,6.24,.65,9.18,.98,2.95,2.72,5.63,4.98,7.76Zm-.09,.1c-2.29-2.13-4.08-4.82-5.09-7.79-1.02-2.97-1.26-6.19-.73-9.29,.51-3.1,1.81-6.07,3.74-8.56,1.93-2.49,4.51-4.47,7.4-5.72,1.45-.64,2.97-1.04,4.45-1.51l4.47-1.39,8.94-2.77,17.88-5.54,71.51-22.19,35.8-10.94,8.95-2.74c1.5-.44,2.95-.95,4.54-1.31,1.57-.35,3.19-.51,4.81-.46,3.23,.1,6.43,1.03,9.2,2.68,2.77,1.65,5.14,3.96,6.84,6.71,1.7,2.75,2.67,5.94,2.8,9.16,.07,1.61-.06,3.23-.38,4.81-.33,1.56-.7,3.05-1.05,4.58l-4.24,18.23-8.48,36.46-16.94,72.93-4.23,18.23-1.06,4.56c-.34,1.51-.71,3.08-1.33,4.55-1.2,2.95-3.15,5.59-5.63,7.59-4.95,4.02-11.94,5.37-18,3.39-3.03-.95-5.79-2.75-8-4.97l-6.84-6.39L46.81,126.15Z"/></g><g><path class="cls-3" d="M143.68,251.53c-3.13-.01-6.27-.74-9.04-2.23-2.77-1.48-5.14-3.67-6.86-6.29-.86-1.32-1.54-2.72-2.29-4.09l-2.2-4.13-4.4-8.27-17.62-33.06-35.34-66.06-8.82-16.53-4.41-8.26c-.72-1.38-1.52-2.73-2.12-4.21-.6-1.47-1.03-3.02-1.25-4.6-.46-3.15-.09-6.42,1.03-9.4,1.13-2.98,2.98-5.68,5.37-7.8,2.38-2.12,5.31-3.62,8.43-4.31,1.56-.35,3.15-.5,4.75-.48l4.69,.15,74.88,2.52,74.88,2.49,4.68,.16c1.54,.03,3.21,.14,4.77,.5,3.15,.7,6.13,2.19,8.56,4.33,4.88,4.24,7.49,10.98,6.56,17.41-.41,3.2-1.76,6.29-3.52,8.89l-4.96,7.94-9.92,15.89-39.97,63.38-19.97,31.69-10,15.84c-1.73,2.63-4.1,4.83-6.87,6.31-2.77,1.49-5.91,2.25-9.04,2.23Zm0-.13c3.11-.01,6.22-.79,8.94-2.28,2.73-1.48,5.06-3.67,6.74-6.28l9.87-15.91,19.73-31.85,39.44-63.7,9.93-15.88,4.96-7.94c1.73-2.57,2.93-5.35,3.33-8.37,.87-5.98-1.57-12.29-6.12-16.24-2.26-1.99-5.03-3.38-7.98-4.03-1.49-.34-2.95-.44-4.53-.47l-4.68-.16-74.87-2.74-74.88-2.71-4.67-.17c-1.53-.02-3.06,.11-4.55,.45-2.98,.66-5.79,2.08-8.07,4.11-2.29,2.02-4.08,4.61-5.17,7.47-1.09,2.86-1.44,5.99-1.01,9.02,.21,1.51,.62,3,1.19,4.42,.57,1.41,1.36,2.76,2.08,4.15l4.39,8.28,8.77,16.55,35,66.24,17.56,33.09,4.39,8.27,2.19,4.14c.74,1.37,1.42,2.78,2.27,4.08,1.7,2.6,4.04,4.78,6.79,6.25,2.74,1.48,5.86,2.21,8.97,2.23Z"/><path class="cls-3" d="M68.46,72.35c-3.11,0-6.22,.77-8.95,2.26-2.73,1.48-5.07,3.67-6.75,6.28-1.69,2.6-2.76,5.62-3.01,8.71-.26,3.09,.27,6.25,1.55,9.08,5.76,11.05,11.71,22.04,17.55,33.06l35.32,66.02,17.62,33.03,4.4,8.26c.75,1.38,1.42,2.78,2.3,4.02,.87,1.25,1.89,2.4,3.04,3.41,4.58,4.07,11.28,5.47,17.15,3.8,2.94-.82,5.65-2.39,7.82-4.53,2.21-2.1,3.61-4.92,5.32-7.54l9.9-15.89,19.8-31.77,39.57-63.56,9.92-15.87,2.48-3.97c.84-1.32,1.56-2.6,2.09-4.03,1.07-2.82,1.41-5.9,.98-8.88-.84-5.96-4.77-11.46-10.27-13.97-1.36-.64-2.81-1.1-4.28-1.38-1.48-.29-2.97-.34-4.55-.39l-9.35-.33-149.63-5.81Zm0-.13l149.68,4.62,9.35,.33c1.54,.05,3.17,.1,4.76,.41,1.58,.3,3.13,.8,4.6,1.49,5.91,2.71,10.11,8.59,11.01,14.98,.46,3.2,.1,6.51-1.05,9.53-.56,1.51-1.37,2.95-2.21,4.26l-2.48,3.97-9.92,15.87-39.78,63.43-19.88,31.72-9.94,15.86-2.49,3.97c-.84,1.35-1.84,2.61-2.98,3.73-2.28,2.24-5.13,3.88-8.21,4.73-6.15,1.73-13.13,.25-17.91-4.02-1.2-1.05-2.26-2.25-3.17-3.56-.92-1.32-1.59-2.74-2.33-4.11l-4.38-8.27-17.53-33.08-34.98-66.2c-5.83-11.04-11.74-22.02-17.5-33.1-1.28-2.86-1.81-6.06-1.55-9.18,.26-3.13,1.34-6.17,3.05-8.79,1.71-2.63,4.06-4.83,6.82-6.32,2.75-1.5,5.89-2.27,9.02-2.26Z"/></g><g><path class="cls-3" d="M108.75,251.18c-6.28,.03-12.49-3.23-15.93-8.5-1.75-2.61-2.75-5.68-3.12-8.78l-1.47-9.25-5.9-37-11.91-73.97-5.9-37c-.46-3.15-.14-6.42,.98-9.41,1.1-2.99,2.99-5.69,5.38-7.78,2.39-2.1,5.29-3.65,8.41-4.36,3.11-.73,6.4-.64,9.47,.21,1.55,.43,2.99,1.05,4.45,1.59l4.37,1.67,8.75,3.34,17.5,6.69,34.99,13.38,69.99,26.73,8.74,3.36c1.45,.57,2.93,1.07,4.39,1.8,1.44,.72,2.8,1.62,4.02,2.67,2.45,2.1,4.36,4.84,5.48,7.87,1.12,3.03,1.51,6.32,1.1,9.53-.41,3.21-1.64,6.3-3.55,8.91-.95,1.31-2.07,2.49-3.31,3.52l-3.64,2.96-14.56,11.79-58.42,46.91-29.2,23.46-14.6,11.73-3.65,2.93c-1.2,.99-2.46,1.95-3.85,2.69-2.75,1.51-5.89,2.3-9.02,2.29Zm0-.13c3.11,0,6.21-.83,8.92-2.34,1.37-.74,2.6-1.69,3.79-2.7l3.63-2.96,14.51-11.84,29.02-23.69,58.03-47.39,14.56-11.79,3.62-2.95c1.16-.97,2.2-2.07,3.09-3.28,1.78-2.43,2.93-5.32,3.3-8.3,.38-2.99,.02-6.07-1.03-8.9-1.04-2.83-2.82-5.37-5.11-7.34-1.14-.98-2.41-1.82-3.75-2.49-1.33-.67-2.82-1.17-4.27-1.75l-8.74-3.36-69.9-26.97-34.96-13.47-17.48-6.74-8.74-3.37-4.37-1.68c-1.46-.55-2.9-1.17-4.36-1.58-2.94-.83-6.08-.92-9.05-.23-2.98,.68-5.76,2.15-8.06,4.16-2.3,2.01-4.11,4.58-5.18,7.45-1.08,2.86-1.4,6-.96,9.03l5.8,37,11.53,74.03,5.82,37.01,1.46,9.25c.37,3.09,1.35,6.12,3.08,8.71,3.4,5.23,9.56,8.48,15.79,8.46Z"/><path class="cls-3" d="M83.59,55.19c-6.25-.04-12.33,3.36-15.7,8.58-1.7,2.6-2.73,5.63-2.96,8.72-.28,3.11,.52,6.18,.94,9.26l5.89,36.97,11.9,73.92,5.91,36.97,.74,4.62c.23,1.54,.55,3.02,1.09,4.46,1.06,2.87,2.87,5.44,5.19,7.43,4.63,3.98,11.29,5.55,17.16,3.79,1.46-.42,2.87-1.03,4.18-1.81,1.32-.76,2.49-1.73,3.71-2.73l7.27-5.9,14.53-11.8,29.06-23.6,58.11-47.22,14.51-11.78c2.27-1.98,4.05-4.52,5.09-7.34,1.06-2.82,1.37-5.91,.93-8.89-.42-2.98-1.57-5.86-3.36-8.28-1.78-2.42-4.19-4.38-6.92-5.65-5.7-2.29-11.62-4.49-17.41-6.74l-69.79-27.12-34.9-13.55-17.45-6.78-8.72-3.39c-1.46-.55-2.89-1.19-4.4-1.56-1.5-.39-3.06-.59-4.61-.6Zm0-.13c1.57,0,3.13,.19,4.65,.57,1.53,.37,2.97,1,4.43,1.53l8.75,3.32,17.5,6.64,35,13.28,70.01,26.54c5.84,2.27,11.63,4.41,17.5,6.77,2.93,1.36,5.51,3.46,7.42,6.06,1.92,2.6,3.15,5.69,3.6,8.88,.47,3.19,.14,6.5-1,9.53-1.12,3.03-3.03,5.76-5.46,7.87l-14.55,11.81-58.27,47.02-29.12,23.52-14.56,11.76-7.28,5.88c-1.2,.97-2.44,2-3.83,2.79-1.38,.81-2.85,1.44-4.39,1.88-6.16,1.82-13.1,.17-17.92-4-2.42-2.08-4.3-4.78-5.4-7.77-.56-1.49-.89-3.07-1.12-4.61l-.73-4.62-5.81-36.98-11.52-73.98-5.82-36.98c-.42-3.08-1.22-6.16-.93-9.31,.24-3.13,1.28-6.19,3-8.8,3.42-5.26,9.55-8.68,15.84-8.62Z"/></g><g><path class="cls-3" d="M75.69,239.45c-4.04,0-8.07-1.35-11.29-3.78-3.24-2.41-5.72-5.85-6.88-9.73-.59-1.93-.84-3.97-.79-5.99,.03-2.03,.52-4,.83-5.98l2.08-11.89,8.3-47.56,16.58-95.13,.07-.38,.38,.06h.03s-.12,.77-.12,.77h-.03s-.39-.07-.39-.07l.07-.39c.74-4.25,2.91-8.26,6.17-11.12,3.24-2.87,7.45-4.6,11.77-4.86,4.32-.3,8.72,1,12.25,3.5,1.77,1.29,3.29,2.7,4.94,4.04l4.87,4.07,38.95,32.59,38.96,32.58,19.48,16.29,9.73,8.16,4.86,4.08,2.43,2.05c.82,.72,1.62,1.48,2.31,2.33,2.85,3.33,4.47,7.67,4.57,12.05,.04,2.19-.28,4.38-.92,6.47-.67,2.08-1.66,4.07-2.98,5.82-1.32,1.74-2.92,3.29-4.75,4.49-.9,.62-1.88,1.13-2.87,1.59-1.01,.44-2.02,.8-3.01,1.16l-11.93,4.34-47.79,17.18-47.79,17.18-23.89,8.59-11.95,4.3-5.98,2.15c-2.01,.69-4.14,1.05-6.26,1.04Zm0-.13c2.11,0,4.21-.38,6.2-1.08l5.96-2.19,11.91-4.39,23.83-8.78,47.65-17.56,47.65-17.56,11.93-4.34c1-.36,1.99-.71,2.92-1.12,.92-.43,1.84-.9,2.68-1.48,1.71-1.12,3.19-2.56,4.43-4.18,1.23-1.63,2.15-3.48,2.78-5.43,.6-1.95,.9-4,.86-6.04-.09-4.09-1.6-8.12-4.26-11.23-.64-.79-1.39-1.5-2.16-2.17l-2.42-2.04-4.86-4.08-9.72-8.17-19.42-16.35-38.85-32.71-38.86-32.7-4.86-4.09c-1.63-1.33-3.22-2.8-4.87-4.01-3.36-2.4-7.55-3.65-11.69-3.37-4.13,.24-8.18,1.89-11.28,4.63-3.13,2.73-5.22,6.56-5.95,10.65l-.32-.45h.03s-.12,.77-.12,.77h-.03s.44-.32,.44-.32l-16.96,95.06-8.46,47.53-2.11,11.88c-.32,1.99-.81,3.95-.84,5.95-.05,2,.19,4.01,.77,5.93,1.14,3.85,3.59,7.26,6.8,9.66,3.2,2.42,7.19,3.77,11.2,3.77Z"/><path class="cls-3" d="M103.63,43.92c-6.22,0-12.39,3.22-15.77,8.47-.85,1.3-1.53,2.71-2.04,4.17-.52,1.47-.78,3-1.04,4.54l-1.62,9.22-6.46,36.87-12.81,73.77-6.43,36.87c-.43,3.03-.12,6.16,.95,9.02,1.05,2.87,2.87,5.44,5.18,7.44,2.3,2.01,5.08,3.46,8.06,4.14,2.97,.68,6.12,.6,9.05-.25,23.42-8.43,46.88-17.1,70.31-25.63l70.31-25.73,8.79-3.2c1.47-.55,2.95-1.02,4.28-1.69,1.35-.67,2.61-1.51,3.75-2.49,4.61-3.9,6.94-10.24,6.13-16.22-.39-2.98-1.54-5.86-3.33-8.28-.89-1.22-1.93-2.31-3.09-3.29l-3.58-3.01-14.34-12.03-57.16-48.36-28.59-24.17-14.29-12.09-3.57-3.02c-1.18-1.02-2.41-1.97-3.77-2.71-2.71-1.51-5.81-2.33-8.92-2.34Zm0-.13c3.13-.01,6.26,.79,9.01,2.29,1.39,.74,2.65,1.7,3.83,2.71l3.6,2.99,14.39,11.98,28.77,23.95,57.55,47.89,14.34,12.03,3.58,3.01c1.23,1.03,2.35,2.21,3.3,3.52,1.92,2.6,3.16,5.69,3.57,8.89,.87,6.41-1.62,13.19-6.58,17.39-1.22,1.05-2.58,1.95-4.02,2.67-1.46,.74-2.97,1.21-4.42,1.75l-8.79,3.2-70.4,25.49c-23.49,8.48-46.88,17.06-70.44,25.47-3.07,.87-6.36,.96-9.47,.23-3.11-.72-6.02-2.24-8.41-4.34-2.4-2.09-4.29-4.78-5.38-7.78-1.11-2.99-1.42-6.26-.96-9.4l6.53-36.87,13.19-73.7,6.54-36.86,1.63-9.22c.26-1.53,.54-3.09,1.06-4.57,.51-1.48,1.2-2.9,2.06-4.21,3.42-5.29,9.64-8.53,15.91-8.51Z"/></g><g><path class="cls-3" d="M48.43,217.62c-3.13,0-6.27-.76-9.03-2.25-2.76-1.48-5.13-3.68-6.84-6.31-1.72-2.62-2.83-5.65-3.1-8.78-.28-3.13,.25-6.32,1.5-9.19,.63-1.44,1.44-2.78,2.18-4.15l2.27-4.1,4.53-8.2,9.06-16.39,36.16-65.62,18.12-32.79,4.53-8.2c.77-1.36,1.46-2.75,2.37-4.08,.9-1.31,1.96-2.52,3.16-3.57,2.39-2.11,5.32-3.61,8.44-4.29,3.12-.68,6.39-.62,9.48,.22,3.08,.83,5.95,2.46,8.24,4.69,1.15,1.11,2.15,2.37,3,3.72l2.43,4.01,9.67,16.04,19.34,32.09,38.7,64.16,9.65,16.06,2.41,4.01c.81,1.3,1.63,2.76,2.18,4.27,1.15,3.02,1.53,6.33,1.07,9.53-.87,6.41-5.08,12.28-10.97,15.03-2.9,1.41-6.22,1.99-9.36,1.92l-9.36,.16-149.84,2.01Zm0-.13l149.81-3.21,9.36-.16c3.1,.05,6.08-.48,8.82-1.79,5.47-2.56,9.42-8.05,10.23-14.02,.42-2.98,.07-6.06-1-8.88-.53-1.43-1.24-2.71-2.08-4.05l-2.41-4.01-9.65-16.06-38.48-64.29-19.25-32.14-9.63-16.07c-1.65-2.67-3.03-5.48-5.26-7.57-2.18-2.13-4.91-3.69-7.85-4.49-2.94-.81-6.08-.88-9.07-.23-2.99,.65-5.79,2.07-8.09,4.09-1.15,1.01-2.17,2.16-3.04,3.42-.86,1.25-1.57,2.65-2.34,4.01l-4.55,8.18-18.21,32.74-36.49,65.44-9.1,16.37-4.55,8.19-2.27,4.09c-.75,1.37-1.56,2.71-2.18,4.13-1.25,2.84-1.78,6-1.51,9.09,.26,3.1,1.35,6.11,3.05,8.71,1.7,2.6,4.04,4.79,6.77,6.26,2.73,1.49,5.84,2.25,8.96,2.26Z"/><path class="cls-3" d="M109.56,49.36l.03,.02,.06,.03-.03,.06L37.25,180.56l-4.53,8.19c-1.59,2.66-2.6,5.61-2.78,8.68-.43,6.12,2.49,12.33,7.39,15.99,2.44,1.84,5.36,3.04,8.38,3.46,1.52,.23,3.03,.2,4.6,.16l4.68-.09,18.71-.35,74.86-1.4,37.43-.72,18.71-.36c1.55-.04,3.14-.04,4.66-.11,1.51-.07,3-.32,4.45-.75,2.89-.86,5.55-2.46,7.64-4.63,4.23-4.29,6.22-10.74,4.89-16.64-.32-1.47-.83-2.9-1.5-4.25-.67-1.32-1.54-2.66-2.32-4l-4.82-8.02-19.28-32.09-38.36-64.3-9.59-16.08-4.79-8.04-2.4-4.02c-.81-1.34-1.56-2.71-2.48-3.93-1.84-2.46-4.3-4.46-7.1-5.73-2.8-1.28-5.93-1.82-9.01-1.62-3.08,.2-6.12,1.16-8.74,2.82-2.62,1.65-4.81,3.98-6.34,6.69l-.03,.06-.06-.03-.03-.02,.06-.12Zm0,0l.03,.02-.09,.03c1.5-2.75,3.68-5.13,6.32-6.84,2.63-1.72,5.71-2.74,8.85-2.98,3.14-.24,6.35,.27,9.24,1.55,2.9,1.27,5.46,3.29,7.39,5.8,.98,1.26,1.73,2.64,2.55,3.96l2.42,4,4.85,8.01,9.69,16.01,38.77,64.06,19.28,32.09,4.82,8.02c.79,1.35,1.63,2.63,2.37,4.09,.72,1.44,1.26,2.98,1.61,4.55,1.43,6.35-.7,13.24-5.23,17.84-2.26,2.31-5.12,4.02-8.21,4.93-1.55,.46-3.15,.72-4.76,.79-1.59,.06-3.13,.06-4.7,.09l-18.72,.3-37.43,.59-74.86,1.21-18.72,.3-4.68,.07c-1.54,.03-3.16,.06-4.73-.18-3.15-.45-6.19-1.71-8.73-3.63-5.1-3.84-8.1-10.28-7.65-16.65,.19-3.17,1.27-6.28,2.89-8.97l4.55-8.18L109.5,49.4l.03,.09-.03-.02,.06-.12Z"/></g><g><path class="cls-3" d="M182.06,237.59c-1.91,0-3.82-.29-5.65-.85l-5.44-1.76-10.88-3.52-21.76-7.05-43.52-14.07-43.54-14.02-21.77-7.02-5.44-1.76c-1.84-.57-3.63-1.4-5.23-2.5-3.23-2.16-5.76-5.35-7.13-8.99-1.4-3.62-1.7-7.67-.8-11.46,.88-3.8,3-7.27,5.88-9.88l16.98-15.33,33.95-30.65,67.89-61.32,.48-.43,.43,.48,.02,.02-.96,.86-.02-.02-.42-.47,.47-.43c3.71-3.39,8.78-5.28,13.83-5.04,5.03,.21,9.95,2.37,13.44,6.02,1.75,1.81,3.13,3.98,4.04,6.32,.48,1.16,.8,2.4,1.05,3.6l.76,3.57,3.03,14.27c4.08,19.02,8.05,38.07,12,57.12l11.9,57.14,2.98,14.28,1.49,7.14c.49,2.36,1.1,4.78,.97,7.25-.1,4.92-2.26,9.73-5.8,13.11-3.49,3.43-8.35,5.44-13.24,5.4Zm0-.13c4.86,0,9.64-2.03,13.07-5.44,3.47-3.37,5.55-8.11,5.61-12.94,.1-2.42-.51-4.78-1.02-7.16l-1.54-7.13-3.09-14.26-12.37-57.04c-4.14-19.01-8.25-38.03-12.27-57.06l-3.03-14.27-.76-3.57c-.25-1.18-.54-2.3-.99-3.39-.85-2.19-2.13-4.21-3.76-5.89-3.24-3.4-7.86-5.43-12.55-5.62-4.7-.22-9.42,1.52-12.91,4.68l.05-.9,.02,.02-.96,.86-.02-.02,.91,.05-68.08,61.11-34.03,30.56-17.02,15.28c-2.77,2.5-4.82,5.82-5.67,9.46-.87,3.63-.6,7.52,.75,11.01,1.31,3.5,3.73,6.57,6.83,8.66,1.54,1.06,3.25,1.86,5.04,2.42l5.44,1.77,21.74,7.11,43.47,14.25,43.48,14.2,21.74,7.09,10.87,3.54,5.44,1.77c1.81,.56,3.71,.86,5.61,.86Z"/><path class="cls-3" d="M148.62,43.13c-3.11,0-6.21,.81-8.93,2.31-2.75,1.48-4.88,3.83-7.24,5.86l-13.9,12.54-27.8,25.08-55.51,50.24-13.89,12.54-3.47,3.14c-1.16,1.04-2.23,2.12-3.13,3.36-1.82,2.46-2.99,5.39-3.37,8.42-.79,6.06,1.56,12.49,6.25,16.45,1.16,.99,2.44,1.84,3.81,2.51,1.36,.69,2.82,1.14,4.32,1.62l8.9,2.88,71.24,23.04,71.23,22.98c2.9,.81,6,.91,8.93,.23,2.93-.67,5.69-2.09,7.95-4.1,2.26-1.99,4.04-4.53,5.08-7.35,1.05-2.82,1.36-5.9,.93-8.89-2.5-12.14-5.16-24.39-7.74-36.58l-15.27-73.3-7.64-36.65-1.91-9.16c-.33-1.53-.58-3.07-1.1-4.53-.5-1.46-1.18-2.87-2.03-4.16-3.35-5.24-9.49-8.49-15.72-8.49Zm0-.13c6.27-.05,12.5,3.18,15.95,8.47,.87,1.31,1.57,2.73,2.09,4.21,.54,1.49,.8,3.04,1.14,4.56l1.98,9.15,7.92,36.59,15.87,73.17c2.58,12.23,5.22,24.36,7.75,36.67,.46,3.19,.13,6.51-1,9.53-1.12,3.03-3.03,5.76-5.45,7.88-2.41,2.14-5.37,3.67-8.52,4.39-3.15,.73-6.48,.62-9.58-.25l-71.2-23.24-71.18-23.23-8.9-2.9c-1.47-.48-3-.95-4.43-1.68-1.43-.71-2.77-1.59-3.97-2.63-4.89-4.15-7.31-10.85-6.47-17.16,.41-3.16,1.64-6.21,3.53-8.76,.93-1.28,2.07-2.43,3.24-3.46l3.48-3.13,13.93-12.51,55.77-49.96,27.84-25.02,13.92-12.51c2.36-2.02,4.5-4.37,7.28-5.87,2.75-1.51,5.87-2.31,9-2.31Z"/></g><g><path class="cls-3" d="M149.44,250.47c-3.13,0-6.26-.8-9.01-2.31-1.39-.73-2.62-1.72-3.87-2.65l-3.74-2.81-14.97-11.26-29.94-22.52-59.95-44.94-14.97-11.25c-1.25-.95-2.5-1.84-3.74-2.85-1.22-1.02-2.32-2.18-3.26-3.46-1.89-2.56-3.11-5.61-3.52-8.77-.86-6.32,1.58-13.02,6.47-17.17,1.21-1.04,2.54-1.93,3.96-2.66,1.45-.7,2.88-1.25,4.32-1.88l8.62-3.67,68.93-29.37,34.46-14.7,17.23-7.35,8.61-3.67,4.31-1.84c1.42-.59,2.87-1.28,4.45-1.71,3.11-.87,6.44-.95,9.59-.21,3.15,.73,6.09,2.27,8.53,4.39,2.44,2.11,4.34,4.85,5.46,7.88,1.13,3.03,1.45,6.35,1.03,9.53l-4.56,37.18-9.44,74.33-4.71,37.16-1.18,9.29c-.33,3.12-1.36,6.19-3.12,8.81-3.48,5.27-9.7,8.52-15.98,8.48Zm0-.13c6.23-.01,12.36-3.29,15.75-8.5,1.71-2.6,2.69-5.61,3-8.7l1.11-9.3,4.42-37.2,8.83-74.4,4.57-37.18c.4-3.01,.1-6.08-.95-8.91-1.04-2.82-2.81-5.38-5.09-7.35-2.28-1.98-5.02-3.42-7.96-4.1-2.93-.69-6.03-.61-8.94,.2-1.45,.39-2.83,1.04-4.29,1.64l-4.31,1.82-8.63,3.64-17.25,7.29-34.51,14.58L26.16,113.05l-8.63,3.65c-1.42,.62-2.91,1.19-4.27,1.85-1.36,.69-2.65,1.54-3.8,2.53-4.69,3.96-7.05,10.38-6.24,16.46,.39,3.03,1.55,5.96,3.36,8.43,.9,1.24,1.96,2.36,3.13,3.34,1.18,.97,2.47,1.89,3.7,2.84l14.94,11.29,59.72,45.24,29.9,22.57,14.95,11.29,3.74,2.82c1.25,.94,2.47,1.92,3.84,2.65,2.72,1.5,5.83,2.31,8.94,2.31Z"/><path class="cls-3" d="M161.65,55.22L23.91,113.97l-8.61,3.67c-2.89,1.12-5.5,2.82-7.54,5.13-4.1,4.56-5.63,11.25-4.02,17.16,.79,2.95,2.35,5.69,4.47,7.89,1.05,1.11,2.26,2.03,3.53,2.97l3.74,2.81,14.96,11.25,59.86,44.98,29.94,22.48,14.97,11.24c1.25,.93,2.5,1.9,3.74,2.78,1.23,.87,2.57,1.6,3.97,2.14,2.81,1.1,5.89,1.47,8.87,1.06,5.98-.78,11.51-4.63,14.09-10.1,.65-1.36,1.13-2.8,1.43-4.27,.29-1.46,.43-3.04,.63-4.58l1.14-9.29,4.56-37.16,9.43-74.28,2.35-18.57,1.18-9.28,.59-4.64c.18-1.55,.45-3.09,.46-4.63,.06-3.08-.66-6.18-2.1-8.92-1.43-2.74-3.57-5.11-6.14-6.83-2.56-1.74-5.56-2.84-8.65-3.14-3.09-.31-6.25,.2-9.12,1.4Zm-.05-.12c2.88-1.23,6.06-1.76,9.19-1.48,3.13,.28,6.17,1.37,8.78,3.11,2.62,1.73,4.81,4.12,6.29,6.9,1.49,2.78,2.25,5.94,2.21,9.09,0,1.59-.26,3.13-.43,4.68l-.55,4.65-1.1,9.29-2.21,18.59-8.82,74.35-4.57,37.16-1.14,9.29c-.21,1.55-.34,3.08-.65,4.69-.32,1.58-.83,3.12-1.53,4.58-2.78,5.88-8.7,10.01-15.11,10.83-3.2,.43-6.51,.02-9.51-1.17-1.5-.59-2.93-1.37-4.24-2.3-1.29-.93-2.5-1.88-3.76-2.82l-14.93-11.29-29.86-22.58-59.74-45.14-14.93-11.28-3.73-2.82c-1.24-.92-2.52-1.9-3.61-3.06-2.2-2.3-3.82-5.16-4.64-8.23-1.66-6.16-.06-13.09,4.22-17.83,2.1-2.38,4.87-4.17,7.8-5.29l8.62-3.65L161.6,55.1Z"/></g><g><path class="cls-3" d="M114.51,252.04c-3.13,0-6.27-.77-9.02-2.27-2.76-1.49-5.11-3.7-6.84-6.32l-10.49-15.52-20.98-31.04-42.06-62.01-10.49-15.52-5.25-7.76c-1.82-2.57-3.11-5.6-3.53-8.76-.89-6.34,1.67-12.98,6.48-17.18,2.39-2.11,5.34-3.58,8.46-4.26,1.56-.36,3.16-.45,4.71-.56l4.67-.33,74.74-5.33,74.73-5.35c1.57-.1,3.08-.25,4.7-.3,1.61-.04,3.23,.12,4.81,.47,3.15,.71,6.12,2.23,8.54,4.37,4.86,4.26,7.46,11.01,6.49,17.43-.23,1.6-.65,3.17-1.26,4.66-.64,1.51-1.35,2.85-2.03,4.27l-4.1,8.42-8.21,16.84-33.12,67.21-16.55,33.61-4.14,8.4-2.07,4.2c-.7,1.39-1.33,2.83-2.22,4.14-1.74,2.62-4.13,4.8-6.91,6.26-2.78,1.47-5.92,2.2-9.05,2.2Zm0-.13c3.11-.02,6.22-.78,8.95-2.25,2.74-1.47,5.08-3.64,6.78-6.23,.86-1.29,1.48-2.72,2.17-4.13l2.04-4.22,4.07-8.43,16.29-33.73,32.57-67.48,8.21-16.83,4.11-8.42c.67-1.4,1.41-2.82,2-4.19,.57-1.4,.97-2.86,1.18-4.35,.91-5.98-1.52-12.28-6.06-16.26-2.25-2-5.02-3.42-7.96-4.08-1.47-.33-2.98-.48-4.49-.44-1.5,.04-3.1,.2-4.64,.29l-74.75,5.1-74.75,5.13-4.67,.32c-1.57,.11-3.09,.19-4.59,.53-2.98,.64-5.81,2.04-8.1,4.06-4.61,4.01-7.1,10.39-6.26,16.47,.4,3.04,1.61,5.93,3.38,8.45l5.23,7.77,10.45,15.54,41.74,62.22,20.92,31.08,10.46,15.54c1.71,2.6,4.04,4.79,6.77,6.28,2.73,1.49,5.84,2.27,8.95,2.27Z"/><path class="cls-3" d="M183.5,70.26v.03s0,.07,0,.07h-.07s-149.36,10.71-149.36,10.71l-9.34,.67c-3.1,.11-6.12,.88-8.8,2.4-5.36,2.98-8.99,8.8-9.38,14.91-.21,3.05,.37,6.14,1.66,8.91,.63,1.4,1.48,2.66,2.37,3.95l2.62,3.88,10.49,15.5,41.95,62.02,20.99,31,10.49,15.5c.88,1.28,1.74,2.61,2.63,3.85,.88,1.23,1.91,2.34,3.06,3.32,2.29,1.95,5.09,3.31,8.04,3.89,5.91,1.21,12.39-.63,16.62-4.97,1.06-1.07,1.98-2.28,2.74-3.57,.74-1.28,1.39-2.74,2.09-4.13l4.1-8.41,16.41-33.65,33.04-67.19,8.26-16.8,4.13-8.4,2.06-4.2c.68-1.41,1.42-2.78,1.94-4.22,1.06-2.88,1.4-6.03,.94-9.07-.46-3.04-1.69-5.97-3.55-8.44-1.84-2.48-4.31-4.51-7.13-5.8-2.82-1.3-5.96-1.85-9.07-1.66h-.07s0-.06,0-.06v-.03s.13-.01,.13-.01Zm0,0v.03s-.07-.06-.07-.06c3.12-.23,6.31,.28,9.18,1.57,2.87,1.27,5.41,3.3,7.32,5.8,1.92,2.49,3.23,5.47,3.74,8.59,.51,3.12,.21,6.37-.85,9.36-.52,1.51-1.27,2.89-1.94,4.29l-2.04,4.21-4.08,8.43-8.15,16.85-32.61,67.4-16.41,33.65-4.1,8.41c-.7,1.4-1.32,2.8-2.14,4.22-.82,1.39-1.81,2.68-2.94,3.83-4.54,4.66-11.49,6.63-17.81,5.33-3.17-.64-6.16-2.1-8.61-4.2-1.23-1.05-2.32-2.25-3.25-3.56-.92-1.3-1.75-2.59-2.64-3.89l-10.44-15.54-20.88-31.07-41.79-62.13-10.45-15.53-2.61-3.88c-.87-1.28-1.77-2.62-2.42-4.07-1.34-2.89-1.94-6.12-1.71-9.3,.43-6.36,4.21-12.4,9.8-15.48,2.77-1.57,5.96-2.36,9.1-2.46l9.34-.64,149.4-10.18-.06,.07v-.03s.13-.01,.13-.01Z"/></g><g><path class="cls-3" d="M81.12,242.19c-6.27,.04-12.5-3.19-15.94-8.48-.87-1.31-1.57-2.72-2.08-4.2-.5-1.49-.86-3.01-1.28-4.51l-2.43-9.04-9.73-36.18L30.07,107.45l-4.87-18.09-2.44-9.04-1.22-4.52c-.39-1.5-.87-3.01-1.09-4.6-.46-3.15-.13-6.42,.98-9.41,1.11-2.99,2.98-5.69,5.36-7.8,2.38-2.11,5.29-3.64,8.41-4.36,3.11-.73,6.4-.64,9.47,.19l72.4,19.3,72.4,19.27,9.05,2.42c3.08,.74,6.12,2.17,8.55,4.3,4.93,4.22,7.45,10.98,6.62,17.4-.41,3.21-1.66,6.3-3.56,8.91-.94,1.31-2.1,2.47-3.2,3.55l-3.31,3.31-13.24,13.25-53.2,52.76-26.59,26.39-13.3,13.19c-1.12,1.1-2.2,2.21-3.34,3.29-1.15,1.07-2.44,1.98-3.82,2.74-2.75,1.51-5.89,2.29-9.02,2.28Zm0-.13c3.11-.02,6.21-.82,8.93-2.33,1.35-.76,2.63-1.67,3.75-2.73,1.12-1.08,2.2-2.21,3.31-3.31l13.19-13.3,26.39-26.59,52.76-53.2,13.25-13.24,3.31-3.31c1.12-1.11,2.18-2.17,3.06-3.4,1.78-2.43,2.94-5.31,3.32-8.3,.78-5.98-1.57-12.31-6.17-16.23-2.28-1.99-5.05-3.31-8.03-4.03l-9.05-2.43-72.34-19.51L44.46,50.66c-2.95-.8-6.09-.89-9.06-.21-2.98,.68-5.76,2.13-8.06,4.15-2.29,2.02-4.09,4.6-5.16,7.47-1.07,2.86-1.4,5.99-.97,9.02,.2,1.51,.67,2.99,1.06,4.51l1.21,4.52,2.41,9.05,4.82,18.1,19.21,72.42,9.66,36.2,2.42,9.05c.42,1.5,.77,3.03,1.26,4.5,.51,1.47,1.2,2.88,2.05,4.17,3.4,5.24,9.57,8.46,15.8,8.44Z"/><path class="cls-3" d="M39.5,49.69c-3.11,0-6.21,.8-8.93,2.31-2.72,1.5-5.05,3.69-6.76,6.29-1.71,2.59-2.74,5.63-2.96,8.72-.12,1.55-.03,3.11,.23,4.64,.27,1.53,.73,3.02,1.13,4.53l9.72,36.15,19.56,72.27,9.74,36.15,1.22,4.52c.42,1.5,.77,3.03,1.3,4.45,1.07,2.86,2.86,5.45,5.18,7.43,4.62,4,11.31,5.47,17.17,3.76,6.1-1.52,9.89-6.98,14.41-11.2l13.22-13.25,26.44-26.51,52.85-53.03,13.23-13.24c2.26-2.11,4.03-4.57,5.08-7.42,1.05-2.82,1.36-5.9,.93-8.88-.43-2.98-1.59-5.86-3.38-8.28-1.78-2.43-4.19-4.38-6.92-5.64-1.37-.65-2.79-1.06-4.32-1.45l-4.52-1.21-9.04-2.42-72.24-19.68-36.12-9.83-18.06-4.91-9.03-2.46c-3.01-.77-5.99-1.87-9.13-1.81Zm0-.13c1.57,0,3.13,.19,4.65,.56l4.53,1.19,9.05,2.39,18.1,4.78,36.2,9.55,72.4,19.08,9.04,2.42,4.52,1.21c1.49,.38,3.09,.84,4.53,1.53,2.93,1.35,5.52,3.45,7.43,6.06,1.92,2.6,3.16,5.68,3.62,8.87,.47,3.19,.13,6.51-1,9.53-1.1,3.03-3.08,5.76-5.38,7.89l-13.24,13.23-53.03,52.85-26.51,26.44-13.25,13.22-6.63,6.61c-2.27,2.24-5.11,3.9-8.19,4.78-6.15,1.77-13.11,.22-17.93-3.97-2.42-2.08-4.28-4.79-5.39-7.77-.56-1.5-.9-3.03-1.32-4.53l-1.21-4.52-9.64-36.17L31.67,112.41l-9.65-36.17c-.39-1.51-.85-3-1.12-4.55-.27-1.54-.35-3.12-.23-4.68,.23-3.13,1.28-6.19,3.01-8.8,1.73-2.61,4.08-4.82,6.82-6.33,2.74-1.52,5.87-2.31,9-2.31Z"/></g><g><path class="cls-3" d="M52.5,221.95c-6.3,.04-12.43-3.34-15.89-8.58-1.74-2.61-2.78-5.68-3.04-8.8-.14-1.56-.02-3.14,.09-4.69l.32-4.67,2.58-37.37,5.03-74.76,2.56-37.37c.12-1.56,.19-3.1,.35-4.69,.18-1.58,.54-3.14,1.09-4.64,1.1-2.99,2.97-5.69,5.39-7.78,4.81-4.19,11.75-5.87,17.92-4.07,1.54,.43,3.02,1.05,4.4,1.85,1.39,.82,2.63,1.72,3.94,2.58l7.77,5.23,15.54,10.45,31.09,20.91,62.19,41.79,7.76,5.24,3.88,2.62c1.27,.87,2.64,1.7,3.86,2.79,2.44,2.12,4.35,4.85,5.47,7.88,1.13,3.03,1.47,6.34,1.04,9.53-.43,3.2-1.66,6.3-3.58,8.9-1.9,2.61-4.49,4.71-7.39,6.11l-16.83,8.21-67.48,32.57-33.73,16.29-16.87,8.15-8.43,4.07c-2.78,1.45-5.9,2.26-9.04,2.24Zm0-.13c3.12,0,6.2-.84,8.95-2.29l8.4-4.14,16.8-8.28,33.61-16.55,67.21-33.12,16.84-8.21c2.73-1.32,5.13-3.27,6.9-5.7,1.78-2.43,2.93-5.31,3.33-8.3,.4-2.99,.08-6.08-.97-8.9-1.04-2.83-2.82-5.37-5.09-7.35-1.11-1-2.43-1.8-3.73-2.69l-3.88-2.62-7.76-5.24-62.04-42-31.03-20.99-15.52-10.49-7.76-5.25c-1.29-.86-2.58-1.79-3.88-2.56-1.32-.77-2.74-1.37-4.2-1.78-5.88-1.73-12.53-.14-17.16,3.86-2.32,1.99-4.12,4.58-5.18,7.44-.53,1.43-.89,2.93-1.06,4.45-.16,1.52-.24,3.1-.36,4.65l-2.66,37.37-5.42,74.73-2.65,37.37-.33,4.67c-.12,1.56-.24,3.11-.1,4.66,.25,3.1,1.27,6.13,2.99,8.72,3.42,5.2,9.5,8.57,15.75,8.54Z"/><path class="cls-3" d="M63.73,24.37c-6.23-.01-12.36,3.29-15.75,8.51-1.71,2.59-2.73,5.63-2.98,8.72l-.65,9.33-2.58,37.35-5.03,74.7-2.56,37.35c-.32,3.09-.06,6.18,1.02,9.05,1.06,2.86,2.86,5.44,5.17,7.44,2.3,2.01,5.11,3.43,8.08,4.11,2.97,.68,6.11,.59,9.04-.25,1.48-.41,2.85-1.03,4.25-1.75l4.2-2.06,8.41-4.11,16.81-8.23,33.63-16.46,67.24-32.94,8.41-4.1,4.19-2.06c1.35-.68,2.62-1.51,3.75-2.5,2.28-1.97,4.05-4.51,5.09-7.34,1.05-2.82,1.38-5.91,1-8.89-.38-2.99-1.55-5.87-3.34-8.28-.89-1.21-1.94-2.31-3.1-3.26-1.15-.95-2.48-1.77-3.77-2.66l-15.52-10.47-61.9-42.12-30.96-21.05-15.48-10.53-3.87-2.63c-1.3-.86-2.55-1.81-3.91-2.55-2.71-1.51-5.81-2.32-8.92-2.33Zm0-.13c3.13,0,6.26,.78,9.02,2.29,1.39,.75,2.64,1.68,3.94,2.53l3.89,2.6,15.56,10.41,31.12,20.81,62.24,41.61,15.52,10.47c1.28,.88,2.61,1.7,3.87,2.73,1.25,1.02,2.37,2.2,3.33,3.5,1.92,2.6,3.17,5.69,3.58,8.89,.41,3.2,.05,6.49-1.07,9.52-1.12,3.03-3.02,5.77-5.47,7.87-1.22,1.06-2.58,1.95-4.02,2.67l-4.21,2.06-8.41,4.1-67.35,32.71-33.67,16.37-16.83,8.18-8.42,4.09-4.21,2.05c-1.38,.69-2.87,1.37-4.4,1.79-3.07,.87-6.36,.96-9.47,.24-3.11-.72-6.03-2.22-8.42-4.31-2.4-2.09-4.28-4.79-5.38-7.78-1.13-2.98-1.38-6.27-1.05-9.38l2.66-37.34,5.41-74.68,2.65-37.34,.67-9.34c.25-3.12,1.29-6.19,3.02-8.8,3.44-5.26,9.62-8.57,15.89-8.55Z"/></g><g><path class="cls-3" d="M32.11,193.51c-3.13,0-6.27-.78-9.02-2.29-2.76-1.49-5.11-3.7-6.84-6.32-1.72-2.62-2.8-5.67-3.06-8.8-.27-3.13,.28-6.31,1.52-9.19l14.6-34.5L58.41,63.37l14.59-34.5,3.65-8.63c1.16-2.93,2.98-5.68,5.4-7.76,4.81-4.23,11.78-5.75,17.94-4.03,3.08,.84,5.94,2.5,8.22,4.73,1.16,1.1,2.12,2.4,3.04,3.64l2.82,3.74,11.29,14.94,22.58,29.89,45.19,59.76,11.27,14.96c.94,1.26,1.88,2.45,2.81,3.78,.92,1.33,1.67,2.77,2.24,4.28,1.14,3.02,1.5,6.34,1.04,9.54-.9,6.4-5.1,12.28-11.01,15-1.46,.69-3.01,1.2-4.59,1.5-1.61,.29-3.13,.43-4.69,.63l-9.3,1.14-74.4,8.83-37.2,4.42-18.6,2.21-9.3,1.11-4.65,.55-2.33,.27-2.35,.13Zm0-.13l2.33-.15,2.32-.29,4.65-.59,9.29-1.18,18.58-2.35,37.17-4.71,74.33-9.44,9.3-1.14c1.54-.2,3.13-.35,4.59-.62,1.48-.28,2.92-.76,4.29-1.4,5.5-2.53,9.42-8.02,10.27-13.99,.43-2.98,.1-6.07-.97-8.89-.53-1.41-1.24-2.75-2.09-3.99-.86-1.23-1.86-2.49-2.78-3.73l-11.27-14.96-44.99-59.91-22.51-29.95-11.25-14.97-2.81-3.74c-.94-1.26-1.84-2.49-2.95-3.54-2.17-2.14-4.89-3.72-7.83-4.53-5.88-1.66-12.57-.23-17.18,3.81-2.33,2-4.06,4.59-5.21,7.46l-3.67,8.62-14.68,34.46-29.45,68.89-14.67,34.47c-1.23,2.85-1.78,6-1.52,9.1,.25,3.1,1.31,6.12,3.01,8.72,1.7,2.6,4.04,4.79,6.77,6.28,2.73,1.5,5.83,2.28,8.95,2.29Z"/><path class="cls-3" d="M94.81,8.31c-3.11,0-6.22,.77-8.96,2.23-2.74,1.46-5.1,3.63-6.79,6.23-.86,1.3-1.51,2.71-2.1,4.16l-1.82,4.31-3.65,8.62-14.59,34.47-29.08,69-7.29,17.24-3.65,8.62c-1.17,2.9-2.65,5.67-3.02,8.72-.44,3.03-.1,6.16,.98,9.01,1.08,2.86,2.87,5.44,5.15,7.47,2.29,2.02,5.08,3.47,8.06,4.13,3,.72,6.05,.39,9.16-.04l74.3-9.22,74.3-9.25,4.64-.57c1.55-.2,3.12-.34,4.57-.65,2.95-.63,5.73-2.01,8-3.98,4.56-3.94,6.97-10.25,6.14-16.23-.39-2.98-1.57-5.86-3.35-8.29l-5.62-7.47-11.27-14.95-44.81-59.98-22.41-29.98-11.21-14.99c-1.77-2.56-4.02-4.79-6.76-6.28-2.71-1.5-5.81-2.3-8.92-2.31Zm0-.13c3.13-.01,6.27,.77,9.02,2.27,2.78,1.47,5.09,3.73,6.88,6.29l11.32,14.91,22.64,29.81,45.31,59.61,11.26,14.95,5.63,7.49c1.91,2.6,3.17,5.68,3.59,8.89,.88,6.42-1.69,13.16-6.59,17.39-2.44,2.12-5.43,3.59-8.58,4.27-1.6,.34-3.15,.47-4.69,.67l-4.64,.57-74.33,9-74.33,9.03c-3.04,.42-6.33,.77-9.44,0-3.12-.69-6.03-2.22-8.41-4.33-2.38-2.12-4.24-4.81-5.35-7.8-1.12-2.98-1.47-6.25-1-9.4,.23-1.58,.66-3.12,1.27-4.59l1.83-4.31,3.67-8.61,7.34-17.22,29.43-68.85,14.66-34.45,3.67-8.61,1.83-4.31c.59-1.44,1.25-2.88,2.12-4.18,1.71-2.62,4.1-4.81,6.87-6.27,2.77-1.47,5.9-2.23,9.03-2.23Z"/></g><g><path class="cls-3" d="M178.89,193.3c-1.57,0-3.13-.2-4.65-.55l-4.58-.97-9.16-1.94-18.33-3.88-36.65-7.75-73.33-15.39-9.16-1.93-4.58-.97c-1.54-.32-3.08-.81-4.51-1.48-2.88-1.34-5.42-3.42-7.3-5.99-1.89-2.57-3.1-5.61-3.56-8.76-.47-3.15-.13-6.42,.98-9.41,.55-1.49,1.3-2.92,2.2-4.23,.9-1.33,2.01-2.47,3.04-3.63l12.52-13.94,50.06-55.75,25.02-27.88,12.51-13.94c2.11-2.32,4.11-4.65,6.32-6.97,2.3-2.26,5.17-3.94,8.29-4.82,6.23-1.77,13.28-.22,18.16,4.05,2.45,2.11,4.34,4.86,5.47,7.87,1.04,3.01,1.95,5.95,2.93,8.93l11.58,35.63,22.86,71.35,11.44,35.67c.48,1.48,.98,2.98,1.23,4.54,.26,1.56,.33,3.14,.19,4.71-.26,3.14-1.35,6.2-3.09,8.82-1.75,2.61-4.1,4.83-6.87,6.32-2.75,1.52-5.89,2.28-9.02,2.28Zm0-.13c3.11-.02,6.22-.81,8.93-2.33,2.73-1.49,5.03-3.71,6.73-6.29,1.7-2.59,2.75-5.61,2.98-8.69,.12-1.54,.04-3.1-.23-4.62-.25-1.53-.76-2.99-1.25-4.48l-11.71-35.58-23.45-71.16-11.57-35.63c-.97-2.95-1.91-5.98-2.91-8.87-1.06-2.82-2.82-5.38-5.1-7.34-4.54-3.97-11.15-5.43-16.95-3.78-2.9,.81-5.59,2.37-7.75,4.47-2.1,2.19-4.19,4.6-6.28,6.89l-12.56,13.9-25.11,27.8L22.43,113.07l-12.55,13.9c-1.04,1.17-2.13,2.28-2.98,3.54-.87,1.26-1.58,2.62-2.12,4.05-1.08,2.86-1.41,5.99-.97,9.02,.44,3.03,1.59,5.96,3.4,8.43,1.8,2.48,4.23,4.48,7.01,5.78,2.76,1.34,5.9,1.7,8.94,2.42l9.16,1.96,73.25,15.77,36.64,7.82,18.32,3.91,9.16,1.96,4.58,.98c1.52,.35,3.07,.56,4.62,.56Z"/><path class="cls-3" d="M129.23,3.2c-3.11,.01-6.22,.79-8.93,2.31-1.36,.75-2.63,1.67-3.76,2.73-1.13,1.06-2.13,2.27-3.18,3.42l-12.51,13.92-25.02,27.84L25.87,109.2l-12.51,13.93-3.13,3.48c-1.03,1.17-2.13,2.29-3.02,3.52-1.81,2.47-2.99,5.39-3.38,8.42-.83,6.07,1.62,12.47,6.27,16.44,4.62,4.27,11.27,4.47,17.27,5.96l73.26,15.47,73.26,15.44c3,.75,6.03,.87,8.99,.19,2.94-.66,5.69-2.09,7.94-4.09,4.58-3.96,6.95-10.27,6.01-16.25-.21-1.5-.64-2.91-1.15-4.41l-1.45-4.45-2.89-8.9-5.79-17.8-22.84-71.3-11.43-35.65-2.86-8.91c-.99-2.95-1.71-6.03-3.46-8.62-1.68-2.6-4.04-4.76-6.78-6.22-2.74-1.45-5.84-2.24-8.95-2.26Zm0-.13c3.13-.01,6.26,.77,9.04,2.21,2.78,1.45,5.19,3.62,6.92,6.25,1.8,2.62,2.56,5.73,3.56,8.66l2.93,8.89,11.71,35.56,23.43,71.11,5.78,17.8,2.89,8.9,1.45,4.45c.49,1.45,.98,3.04,1.2,4.63,.47,3.19,.13,6.51-1,9.53-1.12,3.03-3.02,5.76-5.44,7.89-2.41,2.14-5.37,3.68-8.52,4.39-3.14,.74-6.5,.58-9.55-.19l-73.21-15.69-73.22-15.66-9.15-1.96c-3.11-.68-6.06-2.14-8.47-4.23-4.84-4.17-7.37-10.83-6.49-17.16,.42-3.16,1.66-6.2,3.54-8.75,.95-1.29,2.04-2.41,3.08-3.57l3.14-3.47,12.54-13.89,50.24-55.51,25.08-27.8,12.54-13.9c1.06-1.15,2.05-2.35,3.2-3.42,1.14-1.07,2.42-2,3.79-2.75,2.74-1.52,5.87-2.3,9-2.31Z"/></g><g><path class="cls-3" d="M160.88,207.57c-2.98,0-5.95-.73-8.61-2.08-2.6-1.45-5.11-3.03-7.67-4.54l-15.28-9.16-30.55-18.32-61.16-36.54-15.28-9.15-7.64-4.58c-2.61-1.44-5.02-3.43-6.77-5.89-3.58-4.91-4.54-11.55-2.64-17.31,.94-2.88,2.56-5.55,4.73-7.67,1.08-1.06,2.29-1.99,3.58-2.78,1.3-.78,2.6-1.46,3.89-2.19l62.27-34.62,62.26-34.64,7.78-4.33,3.89-2.17c1.3-.73,2.72-1.41,4.18-1.87,5.87-1.9,12.59-.72,17.49,2.99,5.02,3.59,8.02,9.73,7.92,15.88l-.3,17.81c-.37,23.75-.95,47.49-1.44,71.23l-1.52,71.23v.18s-.18,0-.18,0h-.03v-.36h.03s.18,0,.18,0v.18c-.07,2.48-.58,4.94-1.56,7.21-.98,2.27-2.42,4.34-4.19,6.06-3.55,3.43-8.44,5.46-13.38,5.43Zm0-.13c4.9,0,9.72-2.06,13.21-5.47,1.74-1.71,3.13-3.76,4.08-6,.95-2.25,1.43-4.67,1.48-7.1l.18,.18h-.03s0-.36,0-.36h.03l-.18,.18,.96-71.24c.33-23.75,.58-47.49,1.04-71.24l.31-17.8c.09-5.75-2.7-11.45-7.38-14.81-4.59-3.47-10.85-4.56-16.32-2.8-1.38,.43-2.66,1.04-3.94,1.75l-3.9,2.15-7.8,4.3-62.37,34.44L17.89,88.08c-1.29,.72-2.62,1.42-3.87,2.17-1.24,.75-2.4,1.64-3.44,2.66-2.09,2.02-3.64,4.57-4.55,7.33-1.84,5.52-.94,11.91,2.49,16.64,1.7,2.38,3.96,4.27,6.54,5.71l7.63,4.6,15.25,9.2,60.98,36.84,30.52,18.38,15.26,9.19c2.55,1.51,5.07,3.11,7.65,4.55,2.63,1.35,5.58,2.08,8.54,2.08Z"/><path class="cls-3" d="M163.69,9.61c-3.11,0-6.21,.81-8.94,2.3l-8.18,4.54-16.36,9.09-32.72,18.18L32.09,80.19l-16.36,9.1c-2.77,1.41-5.21,3.34-7.01,5.82-1.81,2.46-2.98,5.39-3.38,8.42-.41,3.03-.08,6.16,.99,9.02,1.06,2.86,2.87,5.44,5.18,7.43,1.16,1.01,2.43,1.81,3.79,2.61l4.01,2.4,8.03,4.81,64.23,38.48,32.12,19.23,16.06,9.61,8.03,4.81,4.01,2.39c1.31,.75,2.7,1.35,4.15,1.76,2.89,.83,6,.91,8.93,.23,2.93-.67,5.7-2.08,7.98-4.05,2.29-1.96,4.06-4.51,5.1-7.33,.52-1.41,.86-2.89,1.02-4.39,.16-1.48,.13-3.06,.17-4.61l.65-37.43,1.61-74.86,.8-37.43,.1-4.68c.02-1.56,.12-3.12,0-4.66-.23-3.08-1.24-6.11-2.93-8.7-3.36-5.22-9.46-8.57-15.69-8.57Zm0-.13c6.28-.05,12.47,3.28,15.92,8.55,1.74,2.62,2.78,5.69,3.04,8.83,.13,1.57,.05,3.14,.04,4.69l-.06,4.68-.51,37.43-1,74.87-.66,37.43c-.04,1.56,0,3.11-.17,4.73-.17,1.6-.54,3.19-1.1,4.7-1.11,3.03-3.02,5.77-5.47,7.87-2.45,2.1-5.4,3.61-8.55,4.33-3.15,.73-6.48,.64-9.58-.25-1.55-.45-3.04-1.09-4.44-1.9l-4.02-2.41-8.01-4.83-16.03-9.67-32.06-19.34L26.9,130.54l-8.02-4.83-4.01-2.42c-1.33-.78-2.71-1.65-3.9-2.7-2.41-2.08-4.29-4.78-5.39-7.77-1.11-2.99-1.45-6.25-1.01-9.4,.43-3.15,1.65-6.2,3.54-8.75,1.87-2.57,4.47-4.6,7.26-6.01l16.38-9.05L97.35,43.48l32.76-18.12,16.38-9.06,8.19-4.53c2.75-1.49,5.88-2.31,9.01-2.3Z"/></g><g><path class="cls-3" d="M139.23,215.19c-3.01,0-6.02-.73-8.69-2.12-2.7-1.36-4.94-3.5-6.79-5.85l-11.59-13.78-23.17-27.56-46.43-55.05-11.6-13.77-5.8-6.89-2.9-3.44c-.97-1.13-1.94-2.36-2.68-3.69-1.52-2.65-2.4-5.68-2.51-8.74-.13-3.06,.54-6.14,1.81-8.92,2.5-5.62,7.92-9.79,13.96-10.86l70.91-12.61,70.91-12.62,8.86-1.58,4.43-.79c1.48-.25,2.94-.56,4.5-.71,6.21-.62,12.58,2.08,16.56,6.85,2,2.37,3.46,5.2,4.17,8.23,.73,3.02,.65,6.22-.12,9.23-.39,1.52-.96,2.92-1.46,4.33l-1.54,4.23-3.08,8.46-49.74,135.18-.05,.15-.15-.06h-.03s.11-.3,.11-.3h.03s.15,.07,.15,.07l-.05,.14c-1.36,3.65-3.8,6.93-7.04,9.11-3.21,2.22-7.1,3.39-10.99,3.37Zm0-.13c3.86-.01,7.71-1.21,10.86-3.42,3.18-2.18,5.56-5.43,6.87-9.04l.09,.2h-.03s.11-.3,.11-.3h.03s-.2,.1-.2,.1l48.79-135.53,3.08-8.46,1.54-4.23c.5-1.42,1.07-2.81,1.42-4.2,.72-2.8,.79-5.78,.11-8.6-.66-2.82-2.02-5.46-3.89-7.68-3.73-4.46-9.65-6.97-15.44-6.39-1.42,.12-2.91,.44-4.39,.69l-4.43,.77-8.87,1.55-70.95,12.39-70.94,12.42c-5.8,1.02-10.98,4.98-13.4,10.37-1.23,2.67-1.87,5.62-1.76,8.56,.1,2.94,.94,5.84,2.39,8.4,.72,1.3,1.61,2.44,2.6,3.59l2.89,3.45,5.78,6.9,11.55,13.81,46.16,55.29,23.12,27.61,11.56,13.8c1.85,2.36,4.05,4.46,6.73,5.82,2.65,1.39,5.63,2.12,8.62,2.12Z"/><path class="cls-3" d="M194.16,26.9c-1.56-.01-3.1,.24-4.63,.53l-4.61,.82-9.22,1.63-18.43,3.27-36.86,6.54-73.7,13.19-9.21,1.64c-3.07,.59-6.2,.87-8.96,2.23-2.78,1.29-5.21,3.29-7.01,5.76-1.8,2.47-2.99,5.39-3.44,8.41-.45,3.02-.11,6.16,.97,9.01,.54,1.43,1.26,2.79,2.13,4.04,.87,1.24,1.92,2.41,2.92,3.61l12.05,14.32,48.2,57.29,24.11,28.64,12.06,14.32,3.01,3.58c1.02,1.19,1.98,2.43,3.05,3.47,2.15,2.12,4.82,3.69,7.72,4.51,5.79,1.67,12.4,.22,16.94-3.74,2.28-1.96,4.05-4.52,5.1-7.34l3.21-8.78,12.8-35.18,25.9-70.25,12.94-35.13c1.18-2.88,1.8-5.96,1.55-9.06-.22-3.08-1.25-6.1-2.94-8.7-1.67-2.61-4.01-4.79-6.71-6.3-2.71-1.52-5.81-2.3-8.92-2.32Zm0-.13c3.13,0,6.27,.76,9.02,2.28,2.75,1.51,5.13,3.7,6.85,6.33,1.73,2.62,2.8,5.68,3.05,8.82,.28,3.14-.34,6.33-1.5,9.23l-12.67,35.23-25.32,70.46-12.81,35.18-3.21,8.8c-1.13,3.02-3.02,5.76-5.47,7.87-4.89,4.25-11.94,5.79-18.16,4-3.11-.89-5.97-2.59-8.26-4.85-1.16-1.15-2.11-2.38-3.12-3.57l-3-3.59-12.01-14.36-24.02-28.72-48.05-57.42-12.01-14.36c-.99-1.2-2.04-2.36-2.95-3.68-.9-1.31-1.65-2.73-2.21-4.22-1.12-2.98-1.46-6.25-.98-9.4,.48-3.15,1.71-6.17,3.6-8.74,1.88-2.57,4.42-4.64,7.31-5.97,1.44-.67,2.97-1.15,4.53-1.44l4.61-.82,9.22-1.61,73.77-12.81,36.87-6.46,18.44-3.23,9.22-1.62,4.61-.81c1.53-.29,3.09-.54,4.65-.52Z"/></g><g><path class="cls-3" d="M116.51,215.38c-1.56-.14-3.14-.15-4.66-.57-1.52-.37-3-.92-4.39-1.65-2.78-1.46-5.16-3.64-6.88-6.26-.87-1.31-1.55-2.73-2.1-4.19l-1.68-4.37-3.36-8.74-13.46-34.96-27.03-69.88-6.74-17.48-3.37-8.74-1.68-4.37c-.57-1.47-1.02-3.02-1.24-4.59-.47-3.15-.13-6.42,.99-9.41,1.11-2.99,2.99-5.68,5.37-7.8,2.38-2.12,5.29-3.64,8.41-4.36,1.55-.36,3.15-.53,4.75-.49,1.6,.03,3.17,.32,4.7,.56l74.02,11.62,74.02,11.6c3.1,.51,6.13,.93,9.28,1.51,3.15,.7,6.14,2.17,8.58,4.29,4.91,4.23,7.48,10.97,6.61,17.4-.42,3.21-1.67,6.29-3.56,8.9-1.95,2.52-3.93,4.88-5.89,7.33l-11.79,14.56-47.39,58.03-23.69,29.02-11.84,14.51c-.99,1.2-1.95,2.45-3.12,3.51-1.15,1.07-2.44,1.99-3.81,2.74-2.76,1.49-5.9,2.27-9.03,2.26Zm0-.13c3.11-.02,6.21-.81,8.93-2.31,1.36-.75,2.62-1.68,3.75-2.74,1.14-1.05,2.09-2.29,3.07-3.51l11.73-14.6,23.46-29.2,46.91-58.42,11.79-14.56c1.94-2.42,3.98-4.86,5.85-7.27,1.77-2.44,2.94-5.31,3.33-8.3,.82-5.98-1.59-12.3-6.16-16.23-2.27-1.98-5.05-3.35-8-4-2.99-.55-6.14-.99-9.2-1.5l-73.98-11.85L64,28.94c-1.55-.24-3.06-.53-4.59-.56-1.53-.04-3.06,.12-4.54,.45-2.98,.67-5.77,2.12-8.05,4.15-2.28,2.03-4.1,4.6-5.17,7.47-1.08,2.86-1.41,5.99-.97,9.02,.4,3.03,1.81,5.86,2.86,8.8l3.34,8.75,6.69,17.5,26.67,70.02,13.39,34.99,3.35,8.75c1.18,2.88,2.02,5.94,3.75,8.54,1.7,2.6,4.06,4.77,6.81,6.22,1.37,.73,2.84,1.28,4.35,1.65,1.51,.41,3.08,.43,4.62,.57Z"/><path class="cls-3" d="M58.97,28.08c-4.91-.01-9.78,2.02-13.21,5.53-3.46,3.47-5.53,8.31-5.5,13.22-.01,2.45,.51,4.89,1.41,7.16l2.65,6.89,5.3,13.77,21.28,55.07,21.27,55.08,5.31,13.77c.93,2.27,1.66,4.66,2.8,6.76,1.17,2.11,2.74,3.99,4.62,5.48,1.89,1.49,4.07,2.61,6.38,3.27,1.16,.33,2.35,.55,3.55,.6,.6,.04,1.2,.11,1.8,.13,.6,0,1.2-.04,1.8-.1,2.39-.26,4.73-.99,6.83-2.14,2.1-1.17,3.96-2.75,5.48-4.61l.28-.34,.35,.28,.03,.02-.56,.7-.03-.02-.35-.28,.28-.35,56.98-70.57,28.48-35.29,14.27-17.63c2.48-2.8,4.18-6.11,4.74-9.75,.54-3.6-.02-7.37-1.61-10.66-1.57-3.29-4.12-6.12-7.3-7.91-1.58-.9-3.3-1.57-5.08-1.97-1.77-.36-3.71-.61-5.55-.92l-22.39-3.6-44.76-7.28-44.76-7.27-22.38-3.63-11.19-1.82-5.6-.91c-.93-.14-1.86-.32-2.8-.44l-2.81-.23Zm0-.13l2.84,.21c.94,.11,1.87,.28,2.8,.42l5.6,.87,11.2,1.73,22.41,3.46,44.82,6.92,44.82,6.91,22.41,3.49c1.88,.32,3.7,.54,5.63,.93,1.91,.43,3.75,1.15,5.45,2.12,3.42,1.92,6.16,4.96,7.84,8.49,1.7,3.52,2.31,7.56,1.72,11.43-.57,3.87-2.49,7.53-5.02,10.38l-14.27,17.62-28.6,35.2-57.18,70.41-.07-.63,.03,.02-.56,.7-.03-.02,.62-.07c-1.59,1.95-3.55,3.6-5.76,4.82-2.21,1.2-4.66,1.96-7.16,2.23-.63,.06-1.25,.1-1.88,.1-.63-.02-1.25-.09-1.88-.14-1.26-.06-2.5-.29-3.71-.64-2.42-.7-4.69-1.86-6.66-3.43-1.96-1.57-3.6-3.54-4.81-5.74-.59-1.1-1.09-2.28-1.51-3.42l-1.32-3.45-5.27-13.79-21.05-55.16-21.04-55.16-5.28-13.79-2.64-6.89c-.91-2.29-1.43-4.76-1.41-7.23-.03-4.96,2.09-9.84,5.58-13.33,3.47-3.53,8.38-5.57,13.32-5.55Z"/></g><g><path class="cls-3" d="M94.74,208.14c-6.28,.03-12.46-3.29-15.91-8.55-1.74-2.61-2.78-5.67-3.06-8.79-.18-3.13-.24-6.24-.37-9.36l-1.34-37.44-2.81-74.87-1.36-37.44c-.05-1.55-.15-3.14,.03-4.73,.17-1.58,.52-3.15,1.08-4.64,1.1-2.99,2.99-5.69,5.4-7.78,2.41-2.09,5.31-3.6,8.42-4.33,3.11-.74,6.4-.65,9.47,.22,1.54,.42,3.02,1.07,4.4,1.82l4.14,2.19,8.28,4.39,16.55,8.77,33.1,17.54,66.21,35.06,8.27,4.4,4.13,2.2c1.4,.74,2.78,1.64,3.99,2.69,2.45,2.11,4.36,4.84,5.48,7.87,1.14,3.03,1.47,6.33,1.06,9.53-.41,3.2-1.64,6.3-3.55,8.91-.95,1.3-2.07,2.49-3.31,3.52-1.25,1.04-2.64,1.85-3.94,2.67l-15.88,9.93-63.7,39.44-31.85,19.73-15.92,9.87c-2.67,1.63-5.28,3.32-7.99,4.9-2.76,1.49-5.89,2.29-9.03,2.28Zm0-.13c3.11-.01,6.21-.83,8.93-2.33,2.67-1.59,5.29-3.31,7.94-4.96l15.85-9.99,31.69-19.97,63.38-39.97,15.89-9.92c1.33-.84,2.65-1.61,3.8-2.57,1.16-.96,2.2-2.07,3.09-3.28,1.78-2.43,2.92-5.31,3.31-8.3,.39-2.99,.07-6.08-.99-8.9-1.05-2.82-2.82-5.37-5.11-7.34-1.14-.99-2.4-1.81-3.75-2.53l-4.13-2.2-8.27-4.4-66.1-35.29-33.05-17.63-16.53-8.82-8.26-4.41-4.13-2.2c-1.36-.73-2.75-1.35-4.23-1.76-2.93-.84-6.08-.93-9.05-.23-2.97,.69-5.77,2.14-8.08,4.13-2.32,1.99-4.12,4.57-5.19,7.44-.54,1.43-.88,2.93-1.05,4.45-.18,1.52-.09,3.05-.04,4.62l1.26,37.44,2.42,74.89,1.27,37.44c.12,3.12,.18,6.25,.35,9.35,.27,3.09,1.3,6.12,3.01,8.72,3.4,5.21,9.53,8.52,15.77,8.51Z"/><path class="cls-3" d="M89.13,10.26c-4.79-.01-9.5,1.95-12.96,5.23-3.49,3.26-5.6,7.93-5.77,12.7,.21,9.56,.65,19.15,.96,28.72l2.13,57.45,2.13,57.45,.52,14.36c.11,2.4,.05,4.8,.59,7.08,.53,2.29,1.48,4.47,2.82,6.39,2.68,3.85,6.9,6.58,11.48,7.54,4.59,.98,9.52,.05,13.48-2.45l.37-.23,.23,.37,.02,.03-.74,.47-.02-.03-.24-.37,.37-.23,78.17-49,39.08-24.51c6.48-4.1,13.1-8.14,19.49-12.25,3-2.18,5.35-5.27,6.52-8.8,1.21-3.51,1.28-7.39,.27-10.96-.98-3.58-3.15-6.8-6.04-9.12-1.44-1.18-3.09-2.02-4.81-2.93l-5.09-2.71-20.34-10.87-40.64-21.82-40.64-21.82-20.32-10.91-10.16-5.45c-1.69-.91-3.36-1.88-5.2-2.44-1.82-.59-3.73-.9-5.65-.91Zm0-.13c1.93,0,3.86,.29,5.7,.87,1.86,.55,3.55,1.52,5.25,2.41l10.2,5.37,20.41,10.75,40.81,21.49,40.82,21.49,20.39,10.79,5.09,2.71c1.67,.88,3.47,1.8,5.02,3.07,3.1,2.49,5.43,5.95,6.49,9.79,1.07,3.83,1,7.97-.29,11.74-1.25,3.78-3.78,7.1-6.99,9.44-6.54,4.2-13.04,8.19-19.58,12.28l-39.16,24.38-78.3,48.78,.14-.61,.02,.03-.74,.47-.02-.03,.6,.14c-4.15,2.61-9.32,3.57-14.12,2.53-4.79-1.02-9.17-3.87-11.96-7.9-1.4-2.01-2.39-4.29-2.93-6.68-.27-1.19-.41-2.41-.47-3.63l-.12-3.59-.48-14.36-1.89-57.46-1.89-57.46c-.29-9.58-.72-19.14-.91-28.74,.19-4.82,2.32-9.53,5.85-12.81,3.5-3.3,8.25-5.27,13.07-5.25Z"/></g><g><path class="cls-3" d="M76.48,194.2c-3.11,0-6.22-.78-8.95-2.27-2.74-1.48-5.08-3.66-6.82-6.24-1.74-2.58-2.83-5.6-3.11-8.7-.15-1.55-.09-3.12,.15-4.66,.23-1.54,.71-3.03,1.16-4.51l10.84-35.57,21.56-71.18,10.82-35.58,2.71-8.89c.9-3.02,2.52-5.85,4.74-8.11,4.42-4.57,11.19-6.63,17.42-5.45,3.12,.58,6.09,1.95,8.54,3.96,1.24,1,2.3,2.19,3.35,3.3l3.17,3.4,12.7,13.58,25.4,27.16,50.81,54.31,12.69,13.59,3.17,3.4c1.09,1.17,2.05,2.47,2.84,3.86,1.58,2.79,2.45,5.98,2.5,9.19,.13,6.42-3.07,12.82-8.39,16.47-1.32,.91-2.75,1.67-4.25,2.23-1.51,.58-3.08,.89-4.57,1.24l-9.06,2.09-145.07,32.9-.08,.02-.02-.08v-.03s.15-.04,.15-.04v.03s.03,.08,.03,.08l-.08,.02c-1.43,.32-2.9,.49-4.37,.48Zm0-.13c1.46,0,2.91-.18,4.33-.51l-.06,.1v-.03s.15-.04,.15-.04v.03s-.09-.06-.09-.06l144.81-34.03,9.06-2.09c1.53-.36,3.01-.65,4.4-1.19,1.4-.52,2.73-1.23,3.96-2.08,4.95-3.38,7.94-9.37,7.82-15.36-.04-2.99-.85-5.96-2.33-8.56-.73-1.3-1.63-2.51-2.65-3.61l-3.17-3.4-12.68-13.6-50.63-54.48-25.33-27.23-12.66-13.62-3.17-3.4c-1.07-1.14-2.07-2.28-3.25-3.23-2.34-1.93-5.17-3.24-8.14-3.8-5.95-1.14-12.45,.81-16.69,5.18-4.5,4.3-5.26,10.86-7.3,16.66l-10.92,35.55-21.93,71.07-10.91,35.55c-.45,1.48-.94,2.95-1.17,4.48-.24,1.52-.3,3.08-.16,4.61,.28,3.07,1.35,6.06,3.07,8.63,1.72,2.56,4.03,4.73,6.75,6.2,2.71,1.49,5.79,2.26,8.88,2.27Z"/><path class="cls-3" d="M123.47,3.25c-3.11,0-6.21,.79-8.96,2.23-2.75,1.46-5.11,3.62-6.81,6.22-.85,1.3-1.53,2.71-2.04,4.17-.5,1.47-.92,2.98-1.39,4.47l-2.73,8.95-10.91,35.81-21.71,71.66-5.45,17.91-2.72,8.95-1.36,4.48c-.46,1.5-.92,2.96-1.13,4.48-.45,3.02-.13,6.16,.95,9.02,1.07,2.86,2.88,5.43,5.17,7.45,2.28,2.02,5.07,3.47,8.05,4.15,2.98,.7,6.09,.55,9.08-.22l72.93-16.94,72.93-16.97,9.12-2.11c2.95-.67,5.73-2.02,8.01-3.99,4.6-3.91,6.96-10.24,6.15-16.21-.39-2.98-1.55-5.86-3.33-8.29-.87-1.21-1.97-2.29-3.03-3.45l-3.19-3.42-12.77-13.69-50.84-54.97-25.43-27.48-12.71-13.74c-1.07-1.13-2.09-2.32-3.21-3.39-1.13-1.06-2.38-2-3.74-2.74-2.71-1.52-5.81-2.32-8.92-2.33Zm0-.13c3.13,0,6.27,.77,9.02,2.28,1.38,.74,2.65,1.68,3.81,2.75,1.15,1.08,2.17,2.25,3.25,3.38l12.82,13.64,25.64,27.28,51.29,54.55,12.76,13.69,3.19,3.42c1.04,1.14,2.18,2.25,3.13,3.58,1.91,2.6,3.16,5.69,3.58,8.89,.87,6.41-1.66,13.17-6.6,17.38-2.44,2.12-5.44,3.57-8.57,4.27l-9.12,2.1-72.98,16.72-72.98,16.75c-3.05,.79-6.35,.94-9.46,.2-3.11-.71-6.03-2.24-8.4-4.35-2.38-2.11-4.26-4.8-5.37-7.79-1.11-2.99-1.44-6.26-.96-9.4,.22-1.58,.71-3.11,1.17-4.58l1.37-4.47,2.75-8.95,5.5-17.89,22.07-71.54,10.98-35.79,2.75-8.95c.47-1.49,.89-2.99,1.4-4.47,.52-1.48,1.21-2.9,2.07-4.21,1.71-2.62,4.11-4.8,6.88-6.26,2.78-1.45,5.9-2.23,9.03-2.23Z"/></g><g><path class="cls-3" d="M223.24,191.84l-149.07-15.29-9.32-.97c-1.55-.18-3.1-.28-4.68-.57-1.56-.3-3.08-.79-4.52-1.47-5.83-2.66-9.95-8.47-10.85-14.77-.47-3.15-.12-6.42,1.01-9.4,.56-1.49,1.31-2.91,2.21-4.22,.9-1.3,1.83-2.54,2.74-3.81l10.99-15.17,43.96-60.67,21.97-30.34,10.98-15.17,2.75-3.79c.89-1.25,1.88-2.58,3.04-3.69,2.3-2.26,5.18-3.93,8.3-4.8,6.23-1.76,13.28-.22,18.16,4.06,2.45,2.1,4.32,4.9,5.49,7.83l3.81,8.56,15.24,34.22,30.19,68.57,15.1,34.29c1.26,2.89,1.78,6.1,1.5,9.24-.27,3.14-1.37,6.19-3.1,8.81-1.73,2.63-4.1,4.83-6.86,6.32-2.76,1.5-5.9,2.27-9.03,2.26Zm0-.13c3.11-.01,6.22-.8,8.93-2.31,2.72-1.49,5.05-3.69,6.73-6.29,1.69-2.6,2.74-5.61,2.99-8.69,.25-3.08-.29-6.22-1.54-9.04l-15.36-34.17-30.76-68.32-15.23-34.22-3.81-8.56c-1.15-2.87-2.86-5.39-5.15-7.37-4.53-3.99-11.14-5.44-16.94-3.79-2.9,.8-5.59,2.35-7.75,4.45-1.1,1.05-1.99,2.23-2.91,3.52l-2.76,3.78-11.04,15.14-22.07,30.27-44.12,60.56-11.03,15.14c-1.82,2.55-3.85,4.93-4.87,7.83-1.09,2.86-1.43,5.99-.99,9.02,.85,6.06,4.8,11.66,10.4,14.23,1.39,.65,2.85,1.13,4.36,1.43,1.49,.29,3.06,.4,4.61,.58l9.31,.99c49.66,5.33,99.32,10.79,149,15.82Z"/><path class="cls-3" d="M61.98,174.8l148.95,15.39,9.31,.97c1.56,.16,3.07,.26,4.6,.13,1.52-.13,3.03-.45,4.48-.96,5.81-1.99,10.37-7.12,11.83-13.06,.74-2.97,.7-6.11-.09-9.07-.38-1.49-.99-2.87-1.65-4.31l-1.91-4.27-7.64-17.09-30.54-68.36-15.28-34.17-7.64-17.09c-.64-1.41-1.26-2.87-1.92-4.25-.65-1.36-1.47-2.64-2.43-3.8-1.92-2.32-4.44-4.14-7.25-5.23-2.8-1.1-5.88-1.49-8.88-1.17-3,.33-5.89,1.44-8.35,3.18-1.23,.87-2.35,1.89-3.33,3.04-.96,1.13-1.85,2.45-2.77,3.7l-5.5,7.57-22,30.29-44.26,60.39-11.06,15.1-5.53,7.55-2.76,3.78c-.91,1.27-1.89,2.49-2.65,3.82-1.55,2.67-2.42,5.73-2.49,8.82-.07,3.09,.64,6.2,2.06,8.95,1.4,2.76,3.48,5.18,6.04,6.94,2.55,1.77,5.56,2.86,8.65,3.2Zm-.01,.13c-3.11-.32-6.16-1.4-8.75-3.16-2.6-1.76-4.73-4.19-6.17-6.98-1.46-2.78-2.21-5.94-2.16-9.09,.04-3.15,.91-6.28,2.47-9.02,.77-1.38,1.75-2.61,2.65-3.88l2.74-3.8,5.47-7.59,10.94-15.19,43.76-60.75,22.01-30.28,5.5-7.57c.93-1.26,1.78-2.53,2.84-3.78,1.05-1.23,2.25-2.32,3.57-3.26,2.63-1.87,5.75-3.06,8.96-3.41,3.21-.34,6.49,.07,9.5,1.25,3.01,1.18,5.7,3.14,7.75,5.63,1.03,1.24,1.89,2.62,2.59,4.07,.68,1.44,1.28,2.86,1.92,4.29l7.58,17.11,15.17,34.22,30.36,68.44,7.59,17.11,1.9,4.28c.64,1.41,1.29,2.89,1.68,4.43,.81,3.08,.84,6.36,.07,9.45-1.54,6.18-6.28,11.49-12.33,13.55-1.5,.52-3.07,.85-4.65,.99-1.58,.14-3.19,.02-4.73-.14l-9.31-.99-148.9-15.92Z"/></g><g><path class="cls-3" d="M203.35,220.64c-3.14,.02-6.25-.83-9.03-2.25l-8.49-3.95-16.98-7.9-33.97-15.8-67.99-31.49-16.99-7.9c-2.88-1.35-5.41-3.43-7.3-6-1.89-2.57-3.1-5.61-3.53-8.77-.45-3.15-.12-6.42,1-9.41,1.1-2.99,2.98-5.69,5.39-7.78,1.21-1.06,2.53-1.91,3.79-2.81l3.83-2.69,7.66-5.38,61.32-43.06,30.65-21.54,15.33-10.77,7.66-5.38c1.29-.89,2.52-1.83,3.93-2.65,1.39-.81,2.89-1.45,4.44-1.89,6.25-1.84,13.27-.13,18.15,4.1,2.45,2.1,4.36,4.84,5.48,7.87,.56,1.51,.93,3.1,1.11,4.7,.17,1.58,.28,3.12,.43,4.68l3.27,37.32,6.22,74.67,3.12,37.33,.39,4.67c.15,1.55,.25,3.14,.1,4.7-.27,3.14-1.33,6.2-3.07,8.82-3.47,5.26-9.64,8.62-15.93,8.56Zm0-.13c6.24,0,12.33-3.37,15.7-8.58,1.7-2.59,2.72-5.61,2.96-8.7,.13-1.55,.02-3.08-.14-4.64l-.43-4.66-3.41-37.31-6.84-74.61-3.26-37.32c-.14-1.55-.26-3.13-.42-4.65-.17-1.5-.51-2.98-1.04-4.39-1.04-2.83-2.82-5.38-5.11-7.34-4.56-3.95-11.12-5.55-16.93-3.83-1.45,.41-2.85,1-4.15,1.75-1.29,.75-2.55,1.7-3.84,2.58l-7.68,5.36-15.36,10.72-30.72,21.44-61.43,42.89-7.68,5.36-3.84,2.68c-1.28,.91-2.59,1.75-3.73,2.75-2.31,2-4.12,4.58-5.18,7.44-1.07,2.86-1.4,6-.98,9.03,.41,3.03,1.56,5.96,3.37,8.43,1.8,2.47,4.23,4.48,7.01,5.79l16.96,7.94,67.82,31.84,33.94,15.87,16.97,7.93,8.48,3.97c2.77,1.42,5.85,2.26,8.97,2.25Z"/><path class="cls-3" d="M189.33,23.27c-3.11,0-6.21,.81-8.93,2.31-1.36,.74-2.6,1.7-3.89,2.58l-3.83,2.69-15.32,10.75-30.65,21.5-61.22,43.1-15.32,10.76c-1.27,.9-2.59,1.77-3.77,2.73-1.18,.97-2.25,2.09-3.15,3.32-1.81,2.47-2.98,5.39-3.37,8.43-.39,3.03-.04,6.16,1.02,9.02,1.06,2.87,2.87,5.45,5.19,7.43,1.16,.99,2.44,1.84,3.81,2.52,1.38,.68,2.82,1.32,4.22,1.98l8.49,3.94,67.9,31.55,33.96,15.76,16.98,7.88,8.49,3.94,4.24,1.97c1.43,.67,2.78,1.3,4.24,1.7,2.9,.83,6,.92,8.93,.24,2.94-.66,5.69-2.11,7.96-4.08,2.28-1.97,4.05-4.51,5.1-7.34,1.06-2.84,1.34-5.87,.97-8.93l-3.27-37.29-6.22-74.61-3.12-37.31-.78-9.33c-.26-3.08-1.26-6.1-2.96-8.7-3.36-5.22-9.48-8.53-15.71-8.53Zm0-.13c6.27-.04,12.48,3.24,15.94,8.51,1.74,2.62,2.79,5.68,3.08,8.82l.85,9.32,3.41,37.28,6.83,74.56,3.26,37.29c.38,3.13,.1,6.49-1.05,9.5-1.12,3.03-3.03,5.76-5.47,7.87-2.43,2.11-5.37,3.66-8.53,4.37-3.15,.73-6.48,.63-9.58-.26-1.55-.43-3.04-1.12-4.43-1.78l-4.24-1.98-8.48-3.97-16.95-7.94-33.9-15.88-67.82-31.73-8.48-3.97c-1.41-.67-2.82-1.3-4.24-2.01-1.42-.72-2.76-1.6-3.97-2.64-2.42-2.08-4.3-4.78-5.4-7.77-1.1-2.99-1.45-6.24-1.04-9.4,.41-3.16,1.64-6.2,3.53-8.76,.94-1.28,2.05-2.44,3.28-3.44,1.25-1,2.55-1.84,3.82-2.75l15.35-10.72,61.44-42.79,30.69-21.44,15.34-10.72,3.84-2.68c1.29-.88,2.53-1.84,3.91-2.59,2.75-1.51,5.87-2.31,9-2.31Z"/></g><g><path class="cls-3" d="M175.09,241.37c-3.13,0-6.27-.79-9.01-2.31-2.82-1.45-4.92-3.87-7.18-5.99l-13.49-13-26.97-26-54.03-51.91-13.49-12.99-3.37-3.25c-1.13-1.06-2.27-2.21-3.2-3.5-1.88-2.57-3.11-5.61-3.51-8.77-.85-6.32,1.63-13,6.5-17.17,2.4-2.1,5.38-3.53,8.43-4.28l9-2.59,71.99-20.75,72-20.77c3.11-.87,6.44-.95,9.59-.21,3.15,.73,6.1,2.27,8.51,4.41,2.42,2.13,4.34,4.85,5.45,7.89,1.13,3.03,1.47,6.35,1,9.54-.23,1.62-.68,3.12-1.04,4.63l-1.13,4.54-2.26,9.09-4.53,18.17-18.42,72.62-9.2,36.31-2.3,9.08c-.4,1.51-.72,3.04-1.24,4.53-.52,1.48-1.23,2.9-2.1,4.21-3.45,5.3-9.72,8.5-15.98,8.45Zm0-.13c6.23,0,12.39-3.22,15.75-8.47,.85-1.3,1.53-2.7,2.03-4.16,.5-1.46,.82-3,1.2-4.51l2.23-9.1,8.92-36.38,17.83-72.77,4.53-18.17,2.27-9.09,1.13-4.54c.37-1.52,.81-3.03,1.01-4.5,.43-2.98,.12-6.07-.93-8.89-1.04-2.83-2.82-5.37-5.09-7.36-2.26-2-5-3.44-7.94-4.12-2.93-.68-6.04-.61-8.95,.2l-72.05,20.52-72.05,20.56-9.01,2.57c-3.01,.74-5.81,2.08-8.13,4.09-4.67,3.96-7.08,10.38-6.27,16.46,.38,3.03,1.55,5.96,3.36,8.44,.89,1.25,1.96,2.33,3.1,3.41l3.36,3.26,13.46,13.03,53.76,52.19,26.92,26.05,13.46,13.03c2.27,2.13,4.35,4.53,7.14,5.98,2.72,1.51,5.83,2.3,8.94,2.31Z"/><path class="cls-3" d="M46.94,124.65l107.9,103.83,6.74,6.49c2.16,2.23,4.75,3.96,7.67,4.93,5.8,1.99,12.56,.78,17.36-3.01,2.41-1.88,4.32-4.39,5.51-7.2,.61-1.41,.99-2.88,1.35-4.41l1.13-4.54,4.5-18.17,18.02-72.67,9-36.34,4.5-18.17c.37-1.51,.77-3.04,1.1-4.53,.32-1.47,.47-2.99,.42-4.49-.08-3.01-.95-6-2.49-8.58-3.05-5.2-8.76-8.79-14.81-9.03-1.5-.07-3.02,.05-4.49,.36-1.45,.31-2.97,.8-4.46,1.21l-9,2.58-35.99,10.32-72.06,20.34-18.01,5.09-9.01,2.54-4.5,1.27c-1.5,.44-3.02,.8-4.44,1.38-2.86,1.15-5.43,3.02-7.39,5.42-1.96,2.39-3.31,5.28-3.89,8.32-.6,3.04-.44,6.23,.49,9.19,.92,2.96,2.62,5.67,4.85,7.85Zm-.09,.1c-2.26-2.17-3.99-4.89-4.95-7.88-.97-2.99-1.15-6.22-.57-9.3,.57-3.09,1.92-6.04,3.89-8.49,1.97-2.46,4.59-4.39,7.5-5.59,1.46-.61,2.99-.98,4.48-1.43l4.49-1.31,8.99-2.61,17.97-5.23,71.89-20.93,35.99-10.32,9-2.58c1.51-.42,2.97-.89,4.57-1.24,1.58-.32,3.2-.45,4.81-.38,6.5,.26,12.61,4.1,15.88,9.67,1.65,2.78,2.56,5.99,2.64,9.21,.04,1.61-.12,3.23-.47,4.8-.35,1.56-.75,3.04-1.13,4.56l-4.56,18.15-9.12,36.31-18.21,72.62-4.55,18.16-1.14,4.54c-.36,1.5-.76,3.07-1.41,4.52-1.25,2.93-3.25,5.53-5.77,7.49-5.02,3.94-12.03,5.17-18.06,3.08-3.02-1-5.74-2.85-7.92-5.11l-6.72-6.51L46.85,124.75Z"/></g><g><path class="cls-3" d="M141.86,251.8c-3.13,0-6.27-.75-9.03-2.23-2.77-1.47-5.15-3.66-6.87-6.28-.87-1.31-1.52-2.74-2.24-4.12l-2.13-4.17-4.26-8.34-17.04-33.36-34.19-66.67-8.53-16.68-4.26-8.34c-.7-1.4-1.46-2.75-2.07-4.23-.6-1.47-1.03-3.02-1.26-4.59-.96-6.34,1.61-12.99,6.4-17.2,2.38-2.12,5.31-3.62,8.42-4.32,1.56-.35,3.15-.51,4.75-.48,1.59,.05,3.13,.15,4.69,.22l74.83,3.82,74.83,3.8,4.68,.24c1.53,.07,3.19,.17,4.75,.53,3.15,.69,6.13,2.18,8.57,4.31,4.89,4.24,7.47,10.98,6.57,17.41-.41,3.2-1.73,6.3-3.54,8.89l-5.1,7.85-10.2,15.71-41.07,62.67-20.52,31.34-10.26,15.67c-1.73,2.63-4.1,4.83-6.87,6.31-2.77,1.49-5.91,2.25-9.04,2.24Zm0-.13c3.11,0,6.22-.79,8.94-2.28,2.73-1.49,5.06-3.68,6.74-6.28l10.14-15.75,20.28-31.5,40.55-63,10.2-15.71,5.1-7.85c1.76-2.53,2.94-5.34,3.34-8.34,.84-5.97-1.57-12.29-6.13-16.24-2.27-1.98-5.04-3.37-7.98-4.02-1.48-.34-2.96-.43-4.54-.5l-4.68-.25-74.81-4.05-74.82-4.02c-1.55-.08-3.13-.18-4.66-.24-1.53-.03-3.06,.11-4.55,.45-2.98,.66-5.78,2.09-8.07,4.11-4.6,4.03-7.09,10.4-6.18,16.49,.21,1.51,.62,3,1.2,4.42,.58,1.4,1.34,2.78,2.04,4.18l4.24,8.35,8.48,16.7,33.84,66.85,16.98,33.4,4.24,8.35,2.12,4.17c.72,1.39,1.37,2.81,2.23,4.1,1.7,2.6,4.05,4.78,6.8,6.24,2.74,1.47,5.85,2.23,8.96,2.23Z"/><path class="cls-3" d="M69.09,71.33c-3.11,0-6.22,.77-8.95,2.26-2.73,1.49-5.06,3.68-6.75,6.28-1.69,2.61-2.75,5.62-3,8.72-.26,3.09,.3,6.24,1.55,9.08l16.99,33.35,34.16,66.62,17.04,33.33,4.26,8.33c.72,1.39,1.38,2.79,2.25,4.04,.87,1.26,1.9,2.4,3.05,3.4,4.59,4.06,11.29,5.46,17.16,3.79,2.94-.82,5.65-2.4,7.82-4.54,1.09-1.07,2.02-2.27,2.85-3.57l2.54-3.93,10.17-15.71,20.35-31.42,40.67-62.86,10.19-15.7,2.55-3.93c.85-1.29,1.56-2.6,2.09-4.02,1.07-2.81,1.42-5.9,.98-8.88-.85-5.97-4.79-11.45-10.28-13.97-1.36-.64-2.81-1.11-4.29-1.38-1.47-.29-2.99-.33-4.57-.42l-9.35-.49-149.51-8.41Zm0-.13l149.57,7.22,9.35,.49c1.54,.09,3.15,.12,4.74,.44,1.59,.3,3.14,.8,4.6,1.48,5.91,2.72,10.11,8.58,11.03,14.97,.47,3.2,.09,6.51-1.05,9.53-.56,1.51-1.35,2.95-2.22,4.27l-2.55,3.92-10.2,15.7-40.88,62.72-20.43,31.37-10.22,15.69-2.55,3.92c-.85,1.32-1.84,2.61-2.98,3.71-2.28,2.24-5.13,3.89-8.2,4.74-6.15,1.73-13.12,.25-17.92-4.01-1.2-1.05-2.27-2.25-3.17-3.56-.92-1.31-1.59-2.76-2.3-4.13l-4.24-8.34-16.95-33.38-33.82-66.8-16.93-33.39c-1.26-2.87-1.82-6.05-1.55-9.18,.26-3.13,1.33-6.17,3.04-8.8,1.71-2.63,4.07-4.83,6.82-6.33,2.75-1.5,5.89-2.27,9.02-2.26Z"/></g><g><path class="cls-3" d="M106.93,250.84c-6.28,.02-12.48-3.24-15.93-8.51-1.75-2.61-2.76-5.68-3.1-8.78l-1.31-9.27-5.25-37.09-10.62-74.17-5.26-37.09c-.44-3.15-.11-6.42,1-9.41,1.1-2.99,2.98-5.69,5.38-7.79,2.39-2.11,5.3-3.62,8.41-4.35,3.11-.73,6.4-.65,9.47,.21,1.56,.42,2.99,1.07,4.43,1.64l4.34,1.75,8.69,3.5,17.38,6.99,34.75,13.99,69.52,27.95,8.68,3.51c1.45,.6,2.89,1.12,4.36,1.84,1.44,.72,2.8,1.62,4.03,2.67,4.96,4.21,7.42,11,6.58,17.4-.4,3.21-1.65,6.31-3.56,8.91-.95,1.3-2.07,2.49-3.31,3.52-1.24,1.02-2.46,1.94-3.69,2.91l-14.76,11.53-59.23,45.89-29.61,22.95-14.8,11.48-3.7,2.87c-1.22,.96-2.47,1.93-3.86,2.67-2.76,1.5-5.89,2.3-9.02,2.29Zm0-.13c3.11,0,6.21-.83,8.93-2.33,1.37-.74,2.59-1.7,3.81-2.68l3.68-2.9,14.72-11.59,29.43-23.18,58.85-46.37,14.76-11.53c1.22-.96,2.49-1.92,3.66-2.88,1.16-.97,2.2-2.07,3.09-3.28,1.78-2.43,2.94-5.31,3.32-8.3,.78-5.98-1.51-12.32-6.13-16.24-1.14-.98-2.41-1.82-3.76-2.49-1.33-.66-2.83-1.2-4.26-1.8l-8.68-3.51-69.42-28.18-34.72-14.08-17.36-7.04-8.68-3.52-4.34-1.76c-1.46-.58-2.87-1.23-4.34-1.62-2.94-.82-6.08-.91-9.05-.22-2.97,.69-5.77,2.12-8.07,4.15-2.3,2.01-4.11,4.58-5.17,7.45-1.07,2.86-1.4,5.99-.98,9.03l5.16,37.1,10.24,74.22,5.18,37.1,1.29,9.28c.33,3.1,1.32,6.13,3.06,8.72,3.41,5.22,9.56,8.48,15.79,8.47Z"/><path class="cls-3" d="M65.97,75.88l21.1,148.25,1.31,9.27c.33,3.08,1.3,6.05,3,8.61,3.34,5.14,9.41,8.35,15.53,8.32,3.06,0,6.1-.8,8.77-2.28,1.35-.73,2.55-1.66,3.78-2.64l3.68-2.89,14.73-11.54,58.94-46.17,29.46-23.1,14.73-11.55c1.22-.96,2.48-1.92,3.66-2.89,1.16-.96,2.21-2.06,3.1-3.28,1.79-2.42,2.95-5.31,3.32-8.29,.8-5.98-1.49-12.32-6.11-16.23-1.14-.98-2.41-1.82-3.76-2.49-1.33-.65-2.83-1.2-4.26-1.79l-8.68-3.5-34.71-14.02-69.3-28.33-17.33-7.08-8.66-3.54-4.33-1.77c-1.45-.58-2.87-1.23-4.35-1.65-2.96-.85-6.14-.96-9.16-.28-3.01,.68-5.86,2.12-8.19,4.16-2.34,2.03-4.19,4.63-5.27,7.54-1.1,2.9-1.43,6.09-1.01,9.17Zm-.13,.02c-.44-3.1-.13-6.31,.95-9.26,1.08-2.95,2.92-5.6,5.28-7.68,2.35-2.09,5.23-3.58,8.29-4.29,3.07-.72,6.31-.64,9.35,.21,1.53,.42,2.96,1.06,4.41,1.63l4.35,1.74,8.69,3.47,17.38,6.94,69.54,27.76,34.71,14.03,8.68,3.51c1.45,.6,2.89,1.12,4.36,1.84,1.44,.72,2.8,1.61,4.03,2.67,4.96,4.21,7.41,11,6.55,17.4-.41,3.2-1.67,6.29-3.59,8.88-.96,1.3-2.08,2.47-3.32,3.49-1.24,1.01-2.46,1.93-3.7,2.9l-14.77,11.5-29.54,23-59.06,46.02-14.77,11.5-3.69,2.88c-1.21,.96-2.49,1.95-3.89,2.7-2.79,1.53-5.97,2.36-9.15,2.35-6.38,.01-12.66-3.33-16.13-8.69-1.76-2.65-2.77-5.78-3.09-8.9l-1.29-9.27-20.58-148.32Z"/></g><g><path class="cls-3" d="M74.08,238.54c-4.05,0-8.08-1.35-11.31-3.79-3.23-2.43-5.72-5.87-6.87-9.76-.6-1.94-.84-3.97-.78-6,.04-2.04,.53-4.01,.89-5.99l2.3-11.87,9.15-47.49,18.27-94.98,.07-.38,.38,.08h.03s-.15,.77-.15,.77h-.03s-.38-.08-.38-.08l.07-.38c.81-4.23,3.05-8.2,6.36-11,3.28-2.81,7.52-4.47,11.84-4.66,4.32-.23,8.7,1.13,12.18,3.69,1.75,1.31,3.24,2.75,4.87,4.12l4.79,4.16,38.34,33.24,38.35,33.23,19.18,16.61,9.58,8.32,4.79,4.16,2.39,2.08c.81,.73,1.6,1.49,2.28,2.35,2.82,3.35,4.4,7.71,4.46,12.08,.06,4.37-1.34,8.75-3.99,12.25-1.34,1.73-2.95,3.26-4.78,4.45-1.81,1.21-3.92,2.05-5.9,2.68l-11.99,4.13-48.04,16.33-48.04,16.33-24.02,8.17-12.01,4.08-6.01,2.04c-2.01,.68-4.13,1.04-6.26,1.03Zm0-.13c4.28,.08,8.18-1.88,12.19-3.16l11.98-4.18,23.96-8.35,47.91-16.71,47.91-16.71,12-4.13c2.04-.66,3.88-1.4,5.61-2.54,1.71-1.11,3.21-2.54,4.46-4.15,2.47-3.25,3.78-7.35,3.72-11.44-.05-4.08-1.52-8.13-4.15-11.26-.64-.8-1.38-1.51-2.13-2.2l-2.39-2.08-4.79-4.16-9.57-8.33-19.12-16.68-38.24-33.35-38.25-33.34-4.78-4.17c-1.6-1.36-3.17-2.86-4.8-4.09-3.32-2.45-7.49-3.77-11.62-3.56-4.13,.17-8.2,1.75-11.35,4.44-3.17,2.67-5.33,6.46-6.12,10.53l-.31-.46h.03s-.15,.77-.15,.77h-.03s.46-.31,.46-.31l-18.65,94.91-9.31,47.46-2.32,11.87c-.37,1.98-.86,3.94-.9,5.95-.07,2,.17,4.02,.76,5.94,1.12,3.86,3.59,7.28,6.79,9.69,3.2,2.43,7.19,3.78,11.21,3.79Z"/><path class="cls-3" d="M104.78,43.52c-6.23-.01-12.38,3.23-15.77,8.46-.85,1.3-1.53,2.71-2.04,4.18-.51,1.47-.77,3-1.07,4.54l-1.78,9.19-7.11,36.76-14.1,73.53-7.06,36.75c-.43,3.03-.12,6.16,.95,9.02,1.06,2.86,2.86,5.44,5.17,7.45,2.3,2.01,5.09,3.46,8.06,4.13,2.97,.68,6.11,.58,9.05-.24l70.75-24.43,70.75-24.49,8.85-3.05c1.49-.52,2.95-.97,4.29-1.64,1.35-.67,2.61-1.51,3.75-2.49,4.61-3.91,6.93-10.24,6.14-16.22-.39-2.99-1.55-5.86-3.34-8.28-.89-1.22-1.93-2.3-3.09-3.3l-3.53-3.07-14.13-12.28-56.3-49.35-28.16-24.67-14.08-12.33-3.52-3.08c-1.16-1.04-2.4-1.98-3.76-2.73-2.71-1.51-5.81-2.33-8.92-2.34Zm0-.13c3.13-.01,6.26,.79,9.02,2.29,1.38,.75,2.65,1.68,3.82,2.72l3.54,3.06,14.17,12.23,28.35,24.45,56.71,48.89,14.13,12.28,3.53,3.07c1.2,1.04,2.34,2.21,3.29,3.51,1.92,2.6,3.17,5.69,3.58,8.89,.85,6.41-1.63,13.18-6.59,17.39-1.22,1.05-2.58,1.95-4.02,2.67-1.45,.73-2.99,1.2-4.44,1.71l-8.85,3.05-70.83,24.26-70.86,24.25c-3.07,.85-6.36,.95-9.47,.23-3.11-.71-6.02-2.24-8.41-4.34-2.4-2.1-4.27-4.8-5.37-7.79-1.11-2.99-1.43-6.25-.97-9.4l7.16-36.76,14.48-73.46,7.18-36.74,1.79-9.19c.3-1.53,.57-3.08,1.09-4.56,.51-1.48,1.2-2.9,2.06-4.21,3.43-5.28,9.64-8.53,15.91-8.5Z"/></g><g><path class="cls-3" d="M207.33,216.23l-149.85,.27h-9.37c-3.14,.11-6.38-.46-9.24-1.85-5.78-2.72-9.94-8.49-10.81-14.81-.44-3.16-.07-6.42,1.07-9.4,.55-1.49,1.35-2.9,2.13-4.23l2.34-4.06,9.34-16.23,37.38-64.94,18.68-32.47,9.34-16.24c.79-1.36,1.53-2.7,2.36-4.07,.85-1.37,1.86-2.64,3.02-3.76,2.31-2.25,5.2-3.92,8.32-4.76,6.23-1.72,13.29-.22,18.14,4.12,1.21,1.07,2.29,2.29,3.2,3.62,.92,1.36,1.63,2.71,2.43,4.06l4.68,8.11,18.73,32.44,37.2,65.04,9.3,16.26,4.65,8.13,2.33,4.06c.76,1.36,1.6,2.69,2.22,4.15,1.25,2.9,1.77,6.11,1.47,9.24-.29,3.14-1.39,6.19-3.13,8.81-1.73,2.62-4.11,4.82-6.89,6.29-2.77,1.48-5.91,2.23-9.04,2.23Zm0-.13c3.11-.02,6.22-.79,8.94-2.27,2.73-1.48,5.06-3.66,6.75-6.26,1.7-2.59,2.75-5.61,3.01-8.69,.27-3.08-.26-6.22-1.51-9.05-.61-1.42-1.45-2.73-2.23-4.09l-2.36-4.05-4.71-8.09-9.43-16.19-37.73-64.73-18.73-32.45-4.68-8.11c-.79-1.34-1.54-2.74-2.37-3.97-.85-1.24-1.86-2.38-2.99-3.38-4.52-4.04-11.11-5.44-16.93-3.84-2.91,.78-5.61,2.32-7.78,4.42-1.08,1.05-2.04,2.23-2.84,3.51-.8,1.29-1.57,2.68-2.36,4.02l-9.39,16.21-18.79,32.41-37.55,64.84-9.39,16.21-2.35,4.05c-.8,1.36-1.55,2.67-2.09,4.11-1.1,2.85-1.47,5.98-1.05,9.01,.82,6.07,4.81,11.64,10.37,14.27,2.77,1.35,5.84,1.91,8.94,1.82h9.37s149.85,.28,149.85,.28Z"/><path class="cls-3" d="M127.28,39.76c-3.11,0-6.22,.77-8.95,2.25-2.74,1.47-5.07,3.66-6.77,6.26-3.17,5.36-6.24,10.8-9.37,16.2l-18.69,32.44-37.27,64.94-9.34,16.22-4.67,8.11c-.78,1.36-1.59,2.67-2.15,4.09-.58,1.41-.98,2.9-1.19,4.42-.89,6.07,1.59,12.45,6.2,16.47,2.3,2.01,5.11,3.42,8.09,4.07,1.49,.33,3.01,.45,4.56,.44h4.68s74.87-.11,74.87-.11l74.87-.13h4.68c1.54,0,3.03-.11,4.51-.44,2.94-.64,5.71-2.04,7.97-4.02,4.53-3.97,6.97-10.27,6.09-16.24-.21-1.49-.6-2.96-1.18-4.35-.56-1.39-1.36-2.69-2.14-4.05l-4.68-8.11-9.36-16.21-37.17-65-18.59-32.49c-3.11-5.4-6.17-10.86-9.32-16.22-1.68-2.6-4.01-4.79-6.73-6.27-2.72-1.49-5.83-2.26-8.94-2.28Zm0-.13c3.13,0,6.27,.74,9.03,2.23,2.77,1.48,5.14,3.67,6.87,6.3,3.21,5.37,6.3,10.78,9.45,16.16l18.84,32.35,37.7,64.69,9.36,16.21,4.68,8.11c.76,1.34,1.61,2.71,2.22,4.21,.62,1.49,1.04,3.06,1.26,4.66,.95,6.43-1.66,13.15-6.52,17.41-2.43,2.13-5.41,3.63-8.56,4.32-1.57,.35-3.21,.48-4.79,.47h-4.68l-74.87-.13-74.87-.1h-4.68c-1.57,0-3.18-.13-4.74-.48-3.11-.68-6.05-2.16-8.45-4.27-4.79-4.21-7.36-10.85-6.41-17.19,.22-1.58,.64-3.13,1.25-4.59,.6-1.48,1.44-2.83,2.21-4.18l4.69-8.1,9.38-16.2,37.6-64.75,18.75-32.4c3.14-5.39,6.22-10.81,9.41-16.19,1.71-2.62,4.07-4.82,6.84-6.3,2.76-1.49,5.89-2.25,9.02-2.25Z"/></g></g><path class="cls-3" d="M180.56,118.71l-1.42-5.78-8.23,1.02c-.43-1.31-.91-2.6-1.46-3.87l6.94-4.66-2.72-5.29-7.93,3.09c-.76-1.16-1.57-2.28-2.44-3.36l5.55-6.36-4-4.41-6.91,5.08c-1.02-.92-2.08-1.79-3.18-2.61l3.74-7.62-5-3.22-5.35,6.69c-1.23-.62-2.48-1.18-3.75-1.69l1.64-8.32-5.66-1.82-3.47,7.9c-1.33-.28-2.68-.51-4.03-.67l-.57-8.51-5.94-.29-1.3,8.52c-1.36,.06-2.72,.19-4.07,.37l-2.77-8.12-5.82,1.26,.96,8.61c-1.3,.41-2.59,.88-3.85,1.41l-4.75-7.09-5.29,2.72,3.14,8.05c-1.15,.74-2.26,1.53-3.34,2.37l-6.43-5.62-4.41,4,5.09,6.92c-.93,1.01-1.81,2.07-2.65,3.16l-7.6-3.73-3.22,5,6.62,5.3c-.64,1.23-1.21,2.5-1.74,3.78l-8.22-1.62-1.82,5.66,7.74,3.39c-.3,1.36-.54,2.74-.72,4.12l-8.3,.56-.29,5.94,8.23,1.26c.06,1.41,.18,2.82,.36,4.21l-7.83,2.67,1.26,5.82,8.26-.92c.43,1.38,.92,2.74,1.48,4.07l-6.76,4.67,2.86,5.22,7.53-3.06c.77,1.2,1.6,2.37,2.48,3.5l-5.32,6.26,4.11,4.3,6.45-4.87c1.06,.97,2.17,1.89,3.32,2.76l-3.5,7.37,5.09,3.09,4.92-6.32c1.29,.66,2.61,1.27,3.96,1.81l-1.46,7.97,5.71,1.66,3.13-7.4c1.42,.31,2.84,.55,4.28,.72l.65,8.11,5.95,.13,1.1-7.94c1.45-.07,2.9-.21,4.34-.41l2.7,7.56,5.78-1.41-.98-7.88c1.39-.44,2.75-.95,4.09-1.53l4.57,6.62,5.22-2.86-3.01-7.41c1.21-.79,2.39-1.64,3.52-2.54l6.18,5.26,4.3-4.11-4.87-6.44c.96-1.07,1.87-2.18,2.73-3.34l7.4,3.51,3.09-5.09-6.38-4.97c.65-1.28,1.24-2.59,1.77-3.93l8.08,1.48,1.66-5.71-7.57-3.2c.29-1.39,.51-2.79,.67-4.19l8.33-.67,.13-5.95-8.23-1.14c-.08-1.41-.22-2.81-.42-4.2l7.85-2.8Zm-26.88-16.74c.79,3.42,.18,7.01-1.68,9.98-1.86,2.97-4.82,5.09-8.24,5.87-7.12,1.64-14.22-2.8-15.85-9.92-.79-3.42-.18-7.01,1.68-9.98,1.86-2.97,4.82-5.09,8.24-5.87,7.12-1.64,14.22,2.8,15.85,9.92Zm8.72,37.85c1.64,7.12-2.8,14.22-9.92,15.85-3.42,.79-7.01,.18-9.98-1.68-2.97-1.86-5.09-4.82-5.87-8.24-.79-3.42-.18-7.01,1.68-9.98,1.86-2.97,4.82-5.09,8.24-5.87,7.12-1.64,14.22,2.8,15.85,9.92Zm-29.43-12.82c.71,3.09-1.22,6.17-4.3,6.88-3.09,.71-6.17-1.22-6.88-4.3-.71-3.09,1.22-6.17,4.3-6.88,3.09-.71,6.17,1.22,6.88,4.3Zm-14.98-16.8c1.64,7.12-2.8,14.22-9.92,15.85-7.12,1.64-14.22-2.8-15.85-9.92-1.64-7.12,2.8-14.22,9.92-15.85,7.12-1.64,14.22,2.8,15.85,9.92Zm8.72,37.85c.79,3.42,.18,7.01-1.68,9.98-1.86,2.97-4.82,5.09-8.24,5.87-7.12,1.64-14.22-2.8-15.85-9.92-1.64-7.12,2.8-14.22,9.92-15.85,3.42-.79,7.01-.18,9.98,1.68,2.97,1.86,5.09,4.82,5.87,8.24Z"/><path class="cls-1" d="M111.12,76.24c-.96,.18-1.59,1.11-1.41,2.07l1.48,7.73c-6.35,2.38-12.1,6.15-16.8,11.03l-6.5-4.41c-.41-.28-.88-.36-1.33-.28-.45,.08-.86,.34-1.13,.75l-6.59,9.71c-.55,.81-.34,1.91,.47,2.46l6.52,4.43c-2.83,6.17-4.23,12.9-4.11,19.68l-7.69,1.47c-.96,.18-1.59,1.11-1.41,2.07l2.21,11.53c.19,.96,1.11,1.59,2.07,1.41l7.73-1.48c2.38,6.35,6.15,12.1,11.03,16.8l-4.41,6.5c-.55,.81-.34,1.91,.47,2.46l9.71,6.59c.81,.55,1.91,.34,2.46-.47l4.43-6.52c6.17,2.83,12.9,4.23,19.68,4.11l1.47,7.69c.19,.96,1.11,1.59,2.07,1.41l11.53-2.21c.96-.18,1.59-1.11,1.41-2.07l-1.48-7.73c6.35-2.38,12.1-6.15,16.8-11.03l6.5,4.41c.81,.55,1.91,.34,2.46-.47l6.59-9.71c.55-.81,.34-1.91-.47-2.46l-6.52-4.43c2.83-6.17,4.23-12.9,4.11-19.68l7.69-1.47c.96-.18,1.59-1.11,1.41-2.07l-2.21-11.53c-.19-.96-1.11-1.59-2.07-1.41l-7.73,1.48c-2.38-6.35-6.15-12.1-11.03-16.8l4.41-6.5c.55-.81,.34-1.91-.47-2.46l-9.71-6.59c-.4-.28-.88-.36-1.33-.28-.45,.08-.86,.34-1.13,.75l-4.42,6.52c-6.17-2.83-12.9-4.23-19.68-4.11l-1.47-7.69c-.19-.96-1.11-1.59-2.07-1.41l-11.53,2.21Zm11.27,27.69c6.52-1.25,13.26,.15,18.75,3.87s9.28,9.48,10.52,16c2.6,13.57-6.3,26.68-19.87,29.28-13.57,2.6-26.68-6.3-29.28-19.87-1.25-6.52,.15-13.26,3.87-18.75,3.73-5.49,9.48-9.28,16-10.52Z"/></svg>